<?xml version="1.0" encoding="UTF-8" standalone="no"?>
<!-- Created with Inkscape (http://www.inkscape.org/) -->
<svg
   xmlns:dc="http://purl.org/dc/elements/1.1/"
   xmlns:cc="http://web.resource.org/cc/"
   xmlns:rdf="http://www.w3.org/1999/02/22-rdf-syntax-ns#"
   xmlns:svg="http://www.w3.org/2000/svg"
   xmlns="http://www.w3.org/2000/svg"
   xmlns:sodipodi="http://sodipodi.sourceforge.net/DTD/sodipodi-0.dtd"
   xmlns:inkscape="http://www.inkscape.org/namespaces/inkscape"
   width="383.57144"
   height="237.14285"
   id="svg14634"
   sodipodi:version="0.32"
   inkscape:version="0.45.1"
   sodipodi:docbase="/Users/paul/Desktop/16languages"
   sodipodi:docname="bf_stamp.svg"
   inkscape:output_extension="org.inkscape.output.svg.inkscape"
   version="1.0"
   inkscape:export-filename="/Users/paul/Desktop/16languages/bf_stamp.png"
   inkscape:export-xdpi="60"
   inkscape:export-ydpi="60">
  <defs
     id="defs14636">
    <filter
       inkscape:collect="always"
       id="filter16683">
      <feGaussianBlur
         inkscape:collect="always"
         stdDeviation="3.2731687"
         id="feGaussianBlur16685" />
    </filter>
  </defs>
  <sodipodi:namedview
     id="base"
     pagecolor="#ffffff"
     bordercolor="#666666"
     borderopacity="1.0"
     gridtolerance="10000"
     guidetolerance="10"
     objecttolerance="10"
     inkscape:pageopacity="0.0"
     inkscape:pageshadow="2"
     inkscape:zoom="1.4"
     inkscape:cx="199.0181"
     inkscape:cy="96.80463"
     inkscape:document-units="px"
     inkscape:current-layer="layer1"
     inkscape:window-width="697"
     inkscape:window-height="581"
     inkscape:window-x="380"
     inkscape:window-y="93" />
  <metadata
     id="metadata14639">
    <rdf:RDF>
      <cc:Work
         rdf:about="">
        <dc:format>image/svg+xml</dc:format>
        <dc:type
           rdf:resource="http://purl.org/dc/dcmitype/StillImage" />
      </cc:Work>
    </rdf:RDF>
  </metadata>
  <g
     inkscape:label="Layer 1"
     inkscape:groupmode="layer"
     id="layer1"
     transform="translate(-132.14285,-200.21933)">
    <rect
       style="fill:#dfdfdf;fill-opacity:1;stroke:none;stroke-width:6;stroke-miterlimit:4;stroke-dasharray:none;stroke-dashoffset:0;stroke-opacity:1"
       id="rect28765"
       width="383.57144"
       height="237.14285"
       x="132.14285"
       y="200.21933" />
    <path
       style="font-size:12px;font-style:normal;font-variant:normal;font-weight:normal;font-stretch:normal;text-align:start;line-height:125%;writing-mode:lr-tb;text-anchor:start;fill:#1a1a1a;fill-opacity:1;stroke:none;stroke-linejoin:miter;stroke-opacity:1;font-family:Bitstream Vera Sans Mono"
       d="M 145.75,210.34375 C 140.85992,209.4099 136.28082,217.64174 145.125,216.25 C 144.20449,223.79023 156.30922,210.86121 155.5625,218.40625 C 160.54051,220.51439 165.7448,215.45593 170,216.40625 C 172.94058,222.53455 176.51843,211.79345 179.21875,218.40625 C 184.02569,214.1373 184.14368,218.62262 189.9939,218.79225 C 196.93882,214.76617 196.83111,221.07605 204.55577,215.90624 C 206.98159,218.82895 211.91767,219.88906 217.13093,216.63541 C 221.91222,215.90398 223.60056,220.40622 227.75,215.78125 C 228.57856,221.60781 236.42301,217.6023 240.96875,215.78125 C 243.08492,219.87214 248.99576,219.14505 254.1838,216.26243 C 257.95989,217.50834 260.12678,219.38218 263.84375,215.78125 C 265.92162,223.17139 270.53194,211.76615 273.0625,218.40625 C 279.2135,217.9714 282.15657,217.5317 286.52492,217.72916 C 292.9502,212.7546 293.48815,220.83075 299.1753,218.42826 C 305.80153,212.56094 307.73446,220.41533 312.125,217.40625 C 313.58245,213.62545 318.33956,222.55503 323.58104,217.36446 C 325.64071,219.48113 331.66674,215.78187 333.4375,218.3125 C 337.54149,218.12633 343.39988,214.1726 346.21875,218.40625 C 349.6822,220.68076 357.85053,212.1744 358.6875,218.40625 C 362.68427,221.36945 370.18899,213.19575 372.125,217.40625 C 375.73736,220.91779 381.23249,216.66769 386.5625,215.78125 C 387.86967,223.89917 393.7769,211.10066 394.78125,218.40625 C 398.77001,221.35459 406.28366,213.19571 408.21875,217.40625 C 411.33732,221.82361 420.17458,213.91323 420.9939,218.79225 C 427.30865,215.64587 428.99886,219.28044 434.5,217.3125 C 435.94111,221.04008 445.11643,212.29584 446.3125,218.40625 C 451.03159,213.24304 451.3165,220.01649 456.5,217.40625 C 457.95681,213.62381 462.71601,222.55873 467.95477,217.36122 C 473.95649,212.96013 474.51777,221.70568 480.53125,218.09375 C 485.90065,216.26649 486.96424,219.92403 494.25,215.78125 C 496.21662,223.41645 501.7918,211.63058 503.0625,218.40625 C 507.89563,219.38183 512.71615,211.66166 507.03125,210.1875 C 503.45898,204.90875 500.96383,213.85329 496.84375,208.1875 C 495.58221,214.25724 486.21369,205.35186 485,209.40625 C 481.99066,209.75273 473.52496,205.0158 472.5625,210.78125 C 467.65558,209.49751 460.61921,205.05969 458.75,210.1875 C 455.89207,209.4205 452.77388,207.03155 449.28125,210.78125 C 447.16725,203.36008 443.13808,214.94763 437.39579,208.55816 C 434.47573,209.17636 431.05256,209.08454 427.25,208.40625 C 425.90594,211.24624 419.23284,206.21327 418.20289,209.54515 C 411.98005,204.84235 409.47604,210.97476 405.01596,210.0437 C 399.6821,206.85941 394.78336,207.49271 392.1875,210.78125 C 389.60993,203.60897 386.5862,213.77179 381.50344,209.29919 C 375.56265,204.9116 373.28254,211.15516 368.9236,210.04022 C 363.82049,207.05583 358.58508,207.19767 356.34375,210.78125 C 351.78328,208.88119 344.11863,205.05105 343.25,210.78125 C 336.16783,207.55905 334.27332,209.31776 329.71827,208.80906 C 325.51807,209.22825 322.4237,208.49615 316.375,208.1875 C 313.84181,214.76383 309.23904,203.4686 307.15625,210.78125 C 301.7929,209.89478 296.31086,205.66998 292.71875,209.1875 C 290.60941,212.81548 281.96454,205.15098 281.01895,209.53622 C 275.53864,205.14059 271.49662,210.38186 268.8125,210.1875 C 265.9052,204.07323 262.29688,214.74552 259.59375,208.1875 C 256.69636,212.24267 250.93055,208.51318 246.8125,208.1875 C 241.48842,209.14108 239.96457,212.06323 233.26659,207.76086 C 227.50998,207.99671 227.31424,212.40825 222.53125,208.1875 C 220.61558,213.49089 213.51891,206.98906 209.6875,208.1875 C 205.56956,210.61721 202.41704,210.83456 196.25,207.40625 C 196.77466,213.70409 185.15678,203.13099 184.4375,210.1875 C 181.57957,209.4205 178.46138,207.03155 174.96875,210.78125 C 172.85475,203.36008 168.82558,214.94763 163.08329,208.55816 C 157.07608,204.77303 156.35383,213.4368 150.50344,209.29919 C 148.00033,208.78093 144.63671,205.27782 145.75,210.34375 z M 138.5,225.34375 C 140.3402,227.77124 135.45027,236.04428 142.14992,232.72916 C 148.5752,227.7546 149.11315,235.83075 154.8003,233.42826 C 161.42653,227.56094 163.35946,235.41533 167.75,232.40625 C 169.03781,229.11666 174.08008,236.78064 176.625,230.78125 C 177.42434,236.82669 186.34554,231.44164 189.0625,232.3125 C 190.50361,236.04008 199.67893,227.29584 200.875,233.40625 C 205.69131,229.71262 205.41294,232.23669 210.6875,234.15625 C 217.29448,230.303 219.92394,231.29335 224.5,233.40625 C 226.50418,227.08839 229.67861,236.92707 235.09375,233.09375 C 240.46315,231.26649 241.52674,234.92403 248.8125,230.78125 C 249.61184,236.82669 258.53304,231.44164 261.25,232.3125 C 262.69111,236.04008 271.86643,227.29584 273.0625,233.40625 C 276.35341,236.60584 285.45476,226.69717 285.5,233.40625 C 292.7463,232.13775 290.25228,230.29483 296.6875,233.40625 C 300.41265,234.29586 307.40324,228.12569 309.15625,233.40625 C 313.96319,229.1373 314.08118,233.62262 319.9314,233.79225 C 326.82882,229.27245 328.05672,232.4961 333.4375,233.40625 C 339.41514,230.71358 340.49314,235.20924 347.06644,231.63035 C 349.13661,234.64913 355.17766,231.85242 358.71242,232.72916 C 364.21779,226.6582 367.82292,238.50426 369.875,230.78125 C 373.29592,234.86041 376.58009,231.82186 379.34375,231.40625 C 381.21479,236.53955 388.30213,232.03245 393.1875,230.78125 C 393.98684,236.82669 402.90804,231.44164 405.625,232.3125 C 408.97889,233.16332 412.94314,233.12307 417.3926,232.36205 C 420.02367,234.43948 425.17407,231.43036 429.875,231.40625 C 432.81558,237.53455 436.39343,226.79345 439.09375,233.40625 C 442.37325,236.58847 451.49238,226.69924 451.53125,233.40625 C 458.95854,231.65014 456.19214,231.12743 463.375,233.40625 C 469.35264,230.71358 470.43064,235.20924 477.00394,231.63035 C 479.07411,234.64913 485.11516,231.85242 488.64992,232.72916 C 495.0752,227.7546 495.61315,235.83075 501.3003,233.42826 C 505.89213,232.97219 514.45356,227.73492 506.54737,225.2308 C 501.28968,222.20373 495.81489,222.00336 493.5,225.78125 C 485.99029,220.65776 485.89682,226.45704 479.6333,223.13043 C 476.95658,225.34625 470.95509,222.71322 467.77842,224.1637 C 462.61612,219.02137 458.00381,227.96785 456.5,224.1875 C 452.17219,221.28158 450.00204,228.78 443.5083,223.13043 C 438.63096,220.29065 435.75998,229.45884 433.84375,223.1875 C 429.28183,225.27001 426.48351,226.10457 420.0625,222.40625 C 419.37476,226.90667 412.08702,221.71574 410.02842,224.1637 C 405.00167,223.14633 402.81388,224.44376 396.75,223.1875 C 393.85583,227.24633 388.05988,223.51313 383.9375,223.1875 C 377.06502,224.75219 379.47507,226.04403 373.125,223.1875 C 371.84155,229.89464 366.28506,218.22722 364.3125,225.78125 C 356.94558,221.59053 356.00397,225.38374 350.625,223.5 C 347.90421,224.3602 344.31003,223.96367 340.625,223.40625 C 339.78849,227.20454 328.76256,218.39343 328.8125,225.78125 C 323.45143,224.87795 317.97552,220.67166 314.375,224.1875 C 312.70037,226.43715 308.17008,221.33337 304.88298,225.41247 C 300.14026,223.05696 293.49771,220.92918 292.125,225.78125 C 288.42571,220.33692 286.43294,226.77356 281.36977,224.6697 C 275.7655,220.76853 272.14398,224.32784 268.78992,225.41073 C 261.354,220.37886 261.87531,227.10199 254.89159,222.76086 C 249.87101,222.21596 248.78963,228.33975 242.3125,223.5 C 238.91265,225.18106 234.74003,222.6532 228.75,223.1875 C 227.46655,229.89464 221.91006,218.22722 219.9375,225.78125 C 215.01008,224.54455 207.96755,220.0386 206.09375,225.1875 C 203.1147,224.47991 200.10986,222.40372 196.60242,225.41073 C 189.1665,220.37886 189.68781,227.10199 182.70409,222.76086 C 177.61151,222.10943 176.31139,228.42062 172.96875,223.1875 C 168.84867,228.85329 166.35352,219.90875 162.78125,225.1875 C 158.32477,225.92021 153.35736,221.15774 148.34375,223.1875 C 150.0967,231.36121 136.21658,217.22825 138.5,225.34375 z M 138.5,240.34375 C 140.3402,242.77124 135.45027,251.04428 142.14992,247.72916 C 147.65529,241.6582 151.26042,253.50426 153.3125,245.78125 C 156.72874,248.22372 160.81771,250.33189 166.62829,246.62869 C 171.24318,244.88443 173.12133,251.95688 179.20477,247.36122 C 184.50245,242.54575 187.40037,253.12413 190.03125,245.78125 C 192.65555,251.581 197.5253,244.24469 198.875,247.40625 C 201.97813,251.80789 210.78529,243.97189 211.6189,248.79225 C 218.61659,244.71166 218.47995,251.10496 226.23931,245.89616 C 228.70338,250.6413 232.61956,246.18619 234.96875,246.40625 C 235.66649,253.47073 247.34456,242.8364 246.8125,249.15625 C 253.41812,245.29156 256.01275,246.30134 260.59375,248.40625 C 261.74999,241.05082 267.44233,253.90059 268.8125,245.78125 C 272.23342,249.86041 275.51759,246.82186 278.28125,246.40625 C 281.89402,251.68761 284.32848,242.69794 288.46875,248.40625 C 291.97176,243.12167 293.02194,249.466 298.2439,248.79225 C 305.24159,244.71166 305.10495,251.10496 312.86431,245.89616 C 315.24594,248.89392 320.25773,249.84995 325.44334,246.63517 C 324.70424,253.27133 336.6975,241.11679 336.03125,248.40625 C 343.45854,246.65014 340.69214,246.12743 347.875,248.40625 C 352.16384,247.91246 357.7865,244.29057 360.65625,248.40625 C 366.8485,247.06142 368.84496,248.59143 374.0801,247.36205 C 376.6992,248.32131 380.3525,247.79164 383.9375,247.34375 C 385.42798,250.98834 394.57978,242.32044 395.78125,248.40625 C 399.92152,242.69794 402.35598,251.68761 405.96875,246.40625 C 408.67671,245.54386 412.07529,251.68381 417.3926,247.36205 C 420.02367,249.43948 425.17407,246.43036 429.875,246.40625 C 432.81558,252.53455 436.39343,241.79345 439.09375,248.40625 C 443.23402,242.69794 445.66848,251.68761 449.28125,246.40625 C 452.20791,246.66057 455.22432,249.95177 458.75,245.78125 C 458.58536,253.36646 469.99505,244.07279 470.5625,248.34375 C 474.72924,248.06033 480.54126,244.21092 483.375,248.40625 C 486.82401,250.66176 495.01581,242.18096 495.84375,248.40625 C 501.76475,244.34796 501.3579,249.20805 507.03125,247.40625 C 511.44796,244.74826 509.17757,238.55067 504.0625,238.1875 C 501.52931,244.76383 496.92654,233.4686 494.84375,240.78125 C 489.4804,239.89478 483.99836,235.66998 480.40625,239.1875 C 478.29691,242.81548 469.65204,235.15098 468.70645,239.53622 C 463.22614,235.14059 459.18412,240.38186 456.5,240.1875 C 453.5927,234.07323 449.98438,244.74552 447.28125,238.1875 C 443.16117,243.85329 440.66602,234.90875 437.09375,240.1875 C 434.1147,239.47991 431.10986,237.40372 427.60242,240.41073 C 420.1665,235.37886 420.68781,242.10199 413.70409,237.76086 C 408.61151,237.10943 407.31139,243.42062 403.96875,238.1875 C 399.84867,243.85329 397.35352,234.90875 393.78125,240.1875 C 388.71757,239.7283 384.0395,237.45678 381.15342,239.1637 C 376.42981,237.64714 374.29659,240.0105 369.5,238.40625 C 368.66349,242.20454 357.63756,233.39343 357.6875,240.78125 C 352.32643,239.87795 346.85052,235.67166 343.25,239.1875 C 341.57537,241.43715 337.04508,236.33337 333.75798,240.41247 C 326.31805,235.39689 326.83008,242.07184 319.89159,237.76086 C 314.84793,237.18427 313.7802,243.35175 307.3125,238.5 C 303.92243,240.19187 299.69467,237.65924 293.71875,238.1875 C 292.56413,245.46523 286.87267,232.74347 285.5,240.78125 C 282.05396,236.79391 278.85436,239.70088 276.03125,240.1875 C 272.45898,234.90875 269.96383,243.85329 265.84375,238.1875 C 263.02518,244.77392 259.57244,234.10064 256.625,240.1875 C 251.56558,239.72718 246.92051,237.44486 244.02308,239.1771 C 238.84454,234.95458 235.32894,240.92166 232.71875,240.1875 C 229.81981,234.11157 226.60143,244.75342 220.6875,238.5 C 217.96671,239.3602 214.37253,238.96367 210.6875,238.40625 C 209.85099,242.20454 198.82506,233.39343 198.875,240.78125 C 195.42896,236.79391 192.22936,239.70088 189.40625,240.1875 C 186.50731,234.11157 183.28893,244.75342 177.375,238.5 C 171.19127,234.97514 170.47253,243.85107 164.01212,238.92867 C 159.0806,234.17755 154.76253,243.09879 153.3125,239.1875 C 148.98469,236.28158 146.81454,243.78 140.3208,238.13043 C 137.30187,236.19639 138.88544,238.62992 138.5,240.34375 z M 145.75,253.1875 C 140.98376,251.59524 134.91991,259.77442 141.125,260.78125 C 140.96036,268.36646 152.37005,259.07279 152.9375,263.34375 C 158.84655,260.80315 160.06335,265.14058 166.62829,261.62869 C 171.05772,260.36075 173.22624,266.14655 176.625,260.78125 C 177.42434,266.82669 186.34554,261.44164 189.0625,262.3125 C 190.50361,266.04008 199.67893,257.29584 200.875,263.40625 C 205.69131,259.71262 205.41294,262.23669 210.6875,264.15625 C 218.18878,259.34236 217.75792,266.16113 225.3088,261.26243 C 228.89999,261.65019 232.13104,266.2 237.88719,261.99982 C 238.58467,266.71116 247.66241,258.36879 249.40625,262.40625 C 255.0796,264.20805 254.67275,259.34796 260.59375,263.40625 C 264.33271,264.31891 271.30081,258.11224 273.0625,263.40625 C 276.35341,266.60584 285.45476,256.69717 285.5,263.40625 C 292.7463,262.13775 290.25228,260.29483 296.6875,263.40625 C 298.69168,257.08839 301.86611,266.92707 307.28125,263.09375 C 312.0765,261.53116 314.19923,263.89393 319,262.3125 C 320.44111,266.04008 329.61643,257.29584 330.8125,263.40625 C 335.62881,259.71262 335.35044,262.23669 340.625,264.15625 C 348.12628,259.34236 347.69542,266.16113 355.2463,261.26243 C 359.02239,262.50834 361.18928,264.38218 364.90625,260.78125 C 366.98412,268.17139 371.59444,256.76615 374.125,263.40625 C 378.84409,258.24304 379.129,265.01649 384.3125,262.40625 C 385.60031,259.11666 390.64258,266.78064 393.1875,260.78125 C 395.15412,268.41645 400.7293,256.63058 402,263.40625 C 408.5457,260.40716 405.98159,262.00559 413.1875,263.40625 C 413.48735,257.39451 419.53524,267.60927 422.03125,260.78125 C 423.24157,268.79539 430.13298,256.41321 429.875,263.40625 C 437.1213,262.13775 434.62728,260.29483 441.0625,263.40625 C 443.06668,257.08839 446.24111,266.92707 451.65625,263.09375 C 457.02565,261.26649 458.08924,264.92403 465.375,260.78125 C 466.17434,266.82669 475.09554,261.44164 477.8125,262.3125 C 479.25361,266.04008 488.42893,257.29584 489.625,263.40625 C 494.44131,259.71262 494.16294,262.23669 499.4375,264.15625 C 502.96975,262.36819 513.51153,260.85888 508.40625,255.96875 C 503.69961,254.10218 495.81202,249.89358 494.84375,255.78125 C 490.69169,251.85604 489.02093,254.93454 484.4236,255.04022 C 477.338,250.51009 477.92377,257.32266 470.5625,252.40625 C 466.28376,253.98746 464.32511,257.40066 457.9458,253.13043 C 455.56899,256.21089 450.02286,251.76447 444.3125,253.1875 C 444.00254,259.15027 437.97127,249.0171 435.5,255.78125 C 434.24261,247.88386 427.40495,260.08009 427.625,253.1875 C 420.41715,254.45112 422.85324,256.26029 416.4375,253.1875 C 415.15405,259.89464 409.59756,248.22722 407.625,255.78125 C 404.95652,250.09775 400.14493,257.25386 398.75,254.1875 C 393.62798,251.48176 393.12731,258.34415 388.5625,253.1875 C 386.02931,259.76383 381.42654,248.4686 379.34375,255.78125 C 375.72856,252.26021 372.81228,254.27286 369.875,255.1875 C 366.9677,249.07323 363.35938,259.74552 360.65625,253.1875 C 357.86272,257.49903 351.58024,253.03788 347.875,253.40625 C 347.02522,257.23943 335.98268,248.38079 336.03125,255.78125 C 331.87919,251.85604 330.20843,254.93454 325.6111,255.04022 C 318.5255,250.51009 319.11127,257.32266 311.75,252.40625 C 312.27466,258.70409 300.65678,248.13099 299.9375,255.1875 C 297.07957,254.4205 293.96138,252.03155 290.46875,255.78125 C 288.35475,248.36008 284.32558,259.94763 278.58329,253.55816 C 272.57608,249.77303 271.85383,258.4368 266.00344,254.29919 C 260.73763,250.18303 256.9928,255.56654 254.375,255.1875 C 251.47455,249.12574 248.24495,259.74918 242.3125,253.5 C 238.91265,255.18106 234.74003,252.6532 228.75,253.1875 C 228.78056,260.44088 217.10464,248.32613 217.9375,255.28125 C 212.41464,252.03077 207.17855,252.24312 204.5,255.78125 C 201.92243,248.60897 198.8987,258.77179 193.81594,254.29919 C 188.47315,252.56733 186.74192,254.97753 180.8125,253.1875 C 174.7227,256.54694 177.04544,254.22761 170,253.1875 C 170.41635,260.22386 158.70852,248.50022 159.25769,254.9132 C 152.3082,251.27659 152.34629,256.2768 145.75,253.1875 z M 145.75,268.1875 C 140.98376,266.59524 134.91991,274.77442 141.125,275.78125 C 141.95356,281.60781 149.79801,277.6023 154.34375,275.78125 C 156.28768,282.5312 161.7908,273.40163 162.78125,277.40625 C 168.4546,279.20805 168.04775,274.34796 173.96875,278.40625 C 177.70771,279.31891 184.67581,273.11224 186.4375,278.40625 C 189.72841,281.60584 198.82976,271.69717 198.875,278.40625 C 206.1213,277.13775 203.62728,275.29483 210.0625,278.40625 C 212.06668,272.08839 215.24111,281.92707 220.65625,278.09375 C 225.4515,276.53116 227.57423,278.89393 232.375,277.3125 C 233.81611,281.04008 242.99143,272.29584 244.1875,278.40625 C 249.00381,274.71262 248.72544,277.23669 254,279.15625 C 261.50128,274.34236 261.07042,281.16113 268.6213,276.26243 C 272.39739,277.50834 274.56428,279.38218 278.28125,275.78125 C 280.35912,283.17139 284.96944,271.76615 287.5,278.40625 C 292.31631,274.71262 292.03794,277.23669 297.3125,279.15625 C 304.81378,274.34236 304.38292,281.16113 311.9338,276.26243 C 315.52499,276.65019 318.75604,281.2 324.51219,276.99982 C 325.20967,281.71116 334.28741,273.36879 336.03125,277.40625 C 341.7046,279.20805 341.29775,274.34796 347.21875,278.40625 C 350.95771,279.31891 357.92581,273.11224 359.6875,278.40625 C 365.83819,277.97061 368.78221,277.53333 373.14942,277.7279 C 376.97884,277.24415 379.65448,278.48089 383.9375,277.34375 C 385.42798,280.98834 394.57978,272.32044 395.78125,278.40625 C 399.92152,272.69794 402.35598,281.68761 405.96875,276.40625 C 408.67671,275.54386 412.07529,281.68381 417.3926,277.36205 C 420.02367,279.43948 425.17407,276.43036 429.875,276.40625 C 432.81558,282.53455 436.39343,271.79345 439.09375,278.40625 C 443.23402,272.69794 445.66848,281.68761 449.28125,276.40625 C 452.20791,276.66057 455.22432,279.95177 458.75,275.78125 C 458.58536,283.36646 469.99505,274.07279 470.5625,278.34375 C 476.47246,275.80545 477.6861,280.13485 484.25584,276.63517 C 483.51674,283.27133 495.51,271.11679 494.84375,278.40625 C 502.34614,276.42002 499.52886,276.42002 507.03125,278.40625 C 510.13114,274.5147 510.19026,270.01423 505.03125,268.1875 C 500.91117,273.85329 498.41602,264.90875 494.84375,270.1875 C 489.78007,269.7283 485.102,267.45678 482.21592,269.1637 C 477.49231,267.64714 475.35909,270.0105 470.5625,268.40625 C 469.72599,272.20454 458.70006,263.39343 458.75,270.78125 C 455.30396,266.79391 452.10436,269.70088 449.28125,270.1875 C 445.70898,264.90875 443.21383,273.85329 439.09375,268.1875 C 436.27518,274.77392 432.82244,264.10064 429.875,270.1875 C 424.81558,269.72718 420.17051,267.44486 417.27308,269.1771 C 412.09454,264.95458 408.57894,270.92166 405.96875,270.1875 C 402.39648,264.90875 399.90133,273.85329 395.78125,268.1875 C 394.51971,274.25724 385.15119,265.35186 383.9375,269.40625 C 378.17493,266.98862 376.88327,271.20932 370.39159,267.76086 C 369.64235,272.71016 360.76409,264.70696 357.6875,269.1875 C 355.59148,273.23484 348.22351,265.21676 344.25,268.1875 C 342.96655,274.89464 337.41006,263.22722 335.4375,270.78125 C 328.07058,266.59053 327.12897,270.38374 321.75,268.5 C 315.56627,264.97514 314.84753,273.85107 308.38712,268.92867 C 303.97043,268.6048 301.41492,269.16378 295.6875,268.1875 C 291.00389,273.31335 290.64343,266.56297 285.5,269.1875 C 284.19218,272.42635 279.18076,264.84653 276.65625,270.78125 C 273.92652,263.55159 270.71603,274.30577 265.07462,268.92867 C 260.65793,268.6048 258.10242,269.16378 252.375,268.1875 C 247.69139,273.31335 247.33093,266.56297 242.1875,269.1875 C 240.07805,272.81409 231.47027,265.14058 230.51539,269.54515 C 224.61645,267.26092 223.11479,270.11382 216.9375,268.1875 C 211.44994,272.51411 211.57759,267.10422 206.09375,269.1875 C 204.80128,272.99213 199.7726,264.3055 197.53125,270.78125 C 192.97078,268.88119 185.30613,265.05105 184.4375,270.78125 C 179.07643,269.87795 173.60052,265.67166 170,269.1875 C 168.69218,272.42635 163.68076,264.84653 161.15625,270.78125 C 158.42652,263.55159 155.21603,274.30577 149.57462,268.92867 C 148.62357,268.95264 145.29864,266.28964 145.75,268.1875 z M 138.5,285.34375 C 140.33992,287.77051 135.45087,296.04582 142.14942,292.7279 C 145.97884,292.24415 148.65448,293.48089 152.9375,292.34375 C 156.36821,293.10681 160.29441,293.12995 164.76727,292.36122 C 170.76899,287.96013 171.33027,296.70568 177.34375,293.09375 C 183.93146,288.10251 184.8503,294.4543 189.9939,293.79225 C 197.08184,289.07428 198.1027,292.78878 203.84375,293.40625 C 204.43635,286.60846 208.75489,297.52769 213.40625,293.09375 C 218.83864,291.16493 219.80566,295.01421 227.125,290.78125 C 228.32649,298.89495 235.24078,286.25302 234.96875,293.40625 C 242.39604,291.65014 239.62964,291.12743 246.8125,293.40625 C 251.10134,292.91246 256.724,289.29057 259.59375,293.40625 C 265.786,292.06142 267.78246,293.59143 273.0176,292.36205 C 275.6367,293.32131 279.29,292.79164 282.875,292.34375 C 284.36548,295.98834 293.51728,287.32044 294.71875,293.40625 C 298.85902,287.69794 301.29348,296.68761 304.90625,291.40625 C 307.61467,290.54504 311.0117,296.68102 316.33109,292.36458 C 322.35463,287.95181 322.90046,296.69057 328.90625,293.09375 C 333.75171,291.45238 335.80682,293.93109 340.625,292.34375 C 344.05571,293.10681 347.98191,293.12995 352.45477,292.36122 C 357.75245,287.54575 360.65037,298.12413 363.28125,290.78125 C 365.90555,296.581 370.7753,289.24469 372.125,292.40625 C 375.73736,295.91779 381.23249,291.66769 386.5625,290.78125 C 386.39786,298.36646 397.80755,289.07279 398.375,293.34375 C 404.28496,290.80545 405.4986,295.13485 412.06834,291.63517 C 411.32924,298.27133 423.3225,286.11679 422.65625,293.40625 C 430.15864,291.42002 427.34136,291.42002 434.84375,293.40625 C 435.43635,286.60846 439.75489,297.52769 444.40625,293.09375 C 449.83864,291.16493 450.80566,295.01421 458.125,290.78125 C 459.32649,298.89495 466.24078,286.25302 465.96875,293.40625 C 470.94063,295.50576 476.14765,290.4514 480.40625,291.40625 C 484.01902,296.68761 486.45348,287.69794 490.59375,293.40625 C 494.0572,295.68076 502.22553,287.1744 503.0625,293.40625 C 507.89563,294.38183 512.71615,286.66166 507.03125,285.1875 C 504.13231,279.11157 500.91393,289.75342 495,283.5 C 489.60242,279.59795 486.4078,289.48225 484.375,283.1875 C 479.81766,285.27792 476.98979,286.10177 470.5625,282.40625 C 465.39667,284.23119 465.38682,286.93027 460.75,283.1875 C 459.48632,289.25573 450.1502,280.35133 448.9375,284.40625 C 445.93439,284.81593 437.42688,279.96298 436.5,285.78125 C 433.83152,280.09775 429.01993,287.25386 427.625,284.1875 C 423.29719,281.28158 421.12704,288.78 414.6333,283.13043 C 411.94771,285.32912 406.03389,282.7108 402.83558,284.1771 C 397.73471,283.12023 395.63405,284.44085 389.53125,283.1875 C 386.63386,287.24267 380.86805,283.51318 376.75,283.1875 C 369.61732,285.40226 372.28568,284.95741 364.90625,283.1875 C 364.96502,290.25945 358.37319,277.77191 357.0625,285.78125 C 349.68396,281.52762 348.8276,285.4432 343.375,283.5 C 340.64417,284.34804 337.11451,283.95966 333.4375,283.40625 C 332.58772,287.23943 321.54518,278.38079 321.59375,285.78125 C 316.2304,284.89478 310.74836,280.66998 307.15625,284.1875 C 305.71253,287.71963 300.91291,279.66453 298.3125,285.78125 C 295.58218,278.55355 292.37655,289.3024 286.72741,283.93737 C 282.56177,283.06938 280.17782,284.76553 275.6875,283.40625 C 274.34069,286.27199 267.59609,281.20695 266.58145,284.53622 C 260.39434,279.83848 257.86388,285.98841 253.4236,285.04022 C 248.07887,281.8254 243.19234,282.53189 240.5625,285.78125 C 239.34235,277.75597 232.48644,290.26408 232.71875,283.1875 C 227.05377,283.88484 225.70505,287.23432 218.82909,282.76086 C 218.07691,287.73056 209.16392,279.70819 206.09375,284.1875 C 204.80128,287.99213 199.7726,279.3055 197.53125,285.78125 C 192.97078,283.88119 185.30613,280.05105 184.4375,285.78125 C 179.07643,284.87795 173.60052,280.67166 170,284.1875 C 167.89055,287.81409 159.28277,280.14058 158.32789,284.54515 C 153.14987,283.0813 149.29236,283.48103 145.75,284.40625 C 145.31318,287.36463 136.30855,278.29625 138.5,285.34375 z M 138.5,300.34375 C 140.3402,302.77124 135.45027,311.04428 142.14992,307.72916 C 147.65529,301.6582 151.26042,313.50426 153.3125,305.78125 C 156.73342,309.86041 160.01759,306.82186 162.78125,306.40625 C 164.65229,311.53955 171.73963,307.03245 176.625,305.78125 C 178.0679,310.95878 185.203,308.19301 190.11827,305.90624 C 192.50675,311.67212 197.64214,304.14129 198.875,307.40625 C 202.48736,310.91779 207.98249,306.66769 213.3125,305.78125 C 214.61967,313.89917 220.5269,301.10066 221.53125,308.40625 C 227.52279,308.90221 231.70191,306.40442 235.09375,308.09375 C 239.889,306.53116 242.01173,308.89393 246.8125,307.3125 C 250.16639,308.16332 254.13064,308.12307 258.5801,307.36205 C 261.21117,309.43948 266.36157,306.43036 271.0625,306.40625 C 274.00308,312.53455 277.58093,301.79345 280.28125,308.40625 C 283.56075,311.58847 292.67988,301.69924 292.71875,308.40625 C 297.69063,310.50576 302.89765,305.4514 307.15625,306.40625 C 310.76902,311.68761 313.20348,302.69794 317.34375,308.40625 C 320.84676,303.12167 321.89694,309.466 327.1189,308.79225 C 333.47308,305.58972 335.12125,309.29076 340.625,307.34375 C 344.05643,308.10864 347.98039,308.12608 352.45604,307.36446 C 355.03005,309.49896 360.25789,306.37445 364.90625,306.40625 C 368.51902,311.68761 370.95348,302.69794 375.09375,308.40625 C 378.59676,303.12167 379.64694,309.466 384.8689,308.79225 C 391.22308,305.58972 392.87125,309.29076 398.375,307.34375 C 399.86548,310.98834 409.01728,302.32044 410.21875,308.40625 C 415.02569,304.1373 415.14368,308.62262 420.9939,308.79225 C 427.89132,304.27245 429.11922,307.4961 434.5,308.40625 C 438.78884,307.91246 444.4115,304.29057 447.28125,308.40625 C 450.12306,301.76016 453.51063,312.49956 456.5,306.40625 C 459.12361,306.20321 463.34861,311.43442 468.88528,306.99496 C 474.29562,303.66914 475.30187,312.103 481.46176,307.72749 C 487.8727,302.75023 488.40875,310.85613 494.1128,308.42826 C 500.72887,302.54483 502.63747,310.43399 507.03125,307.40625 C 511.44796,304.74826 509.17757,298.55067 504.0625,298.1875 C 502.14432,303.48902 495.07949,296.98797 491.25,298.1875 C 487.08989,300.58063 483.99636,300.86052 477.8125,297.40625 C 473.50021,298.94891 471.57781,302.42273 465.1958,298.13043 C 459.51821,296.10429 457.98867,303.67644 454.5,298.1875 C 449.81639,303.31335 449.45593,296.56297 444.3125,299.1875 C 442.21648,303.23484 434.84851,295.21676 430.875,298.1875 C 430.00201,304.3603 421.77227,295.86096 418.40625,298.1875 C 414.28617,303.85329 411.79102,294.90875 408.21875,300.1875 C 403.15507,299.7283 398.477,297.45678 395.59092,299.1637 C 390.56417,298.14633 388.37638,299.44376 382.3125,298.1875 C 377.62889,303.31335 377.26843,296.56297 372.125,299.1875 C 370.45037,301.43715 365.92008,296.33337 362.63298,300.41247 C 355.19305,295.39689 355.70508,302.07184 348.76659,297.76086 C 346.54133,300.64608 340.56882,298.0523 336.9129,298.79118 C 332.79369,299.28289 329.58957,298.4738 323.59375,298.1875 C 320.77518,304.77392 317.32244,294.10064 314.375,300.1875 C 311.07539,298.09894 308.37434,299.19878 303.95346,300.0437 C 298.83573,297.06613 293.62419,297.19421 291.375,300.78125 C 286.80579,298.90271 279.14929,295.04274 278.28125,300.78125 C 274.12919,296.85604 272.45843,299.93454 267.8611,300.04022 C 260.7755,295.51009 261.36127,302.32266 254,297.40625 C 253.30981,301.88164 246.10196,296.71819 244.02308,299.1771 C 239.23398,297.61461 237.18087,300.01277 232.375,298.40625 C 231.52522,302.23943 220.48268,293.38079 220.53125,300.78125 C 216.37919,296.85604 214.70843,299.93454 210.1111,300.04022 C 204.76637,296.8254 199.87984,297.53189 197.25,300.78125 C 194.51968,293.55355 191.31405,304.3024 185.66491,298.93737 C 179.56673,294.54858 178.30419,302.55459 173.08645,299.67492 C 168.02576,296.57032 163.6724,297.94089 161.15625,300.78125 C 159.14737,293.25313 153.61064,304.87098 152.3125,298.1875 C 147.75516,300.27792 144.92729,301.10177 138.5,297.40625 C 138.5,298.38542 138.5,299.36458 138.5,300.34375 z M 145.75,313.1875 C 140.98376,311.59524 134.91991,319.77442 141.125,320.78125 C 140.96036,328.36646 152.37005,319.07279 152.9375,323.34375 C 158.84746,320.80545 160.0611,325.13485 166.63084,321.63517 C 168.68384,324.6883 174.77822,321.79002 178.2749,322.72911 C 182.55974,322.55022 184.82602,323.72848 191.65625,320.78125 C 193.73412,328.17139 198.34444,316.76615 200.875,323.40625 C 207.02569,322.97061 209.96971,322.53333 214.33692,322.7279 C 218.6841,322.47861 220.86978,323.78728 227.75,320.78125 C 227.58536,328.36646 238.99505,319.07279 239.5625,323.34375 C 245.47155,320.80315 246.68835,325.14058 253.25329,321.62869 C 257.68272,320.36075 259.85124,326.14655 263.25,320.78125 C 264.6929,325.95878 271.828,323.19301 276.74327,320.90624 C 279.16852,323.82749 284.10672,324.89301 289.31644,321.63035 C 291.38629,324.64831 297.42831,321.85407 300.96192,322.7279 C 305.3091,322.47861 307.49478,323.78728 314.375,320.78125 C 315.68217,328.89917 321.5894,316.10066 322.59375,323.40625 C 328.59101,320.82181 327.67807,321.46463 333.4375,324.15625 C 340.04312,320.29156 342.63775,321.30134 347.21875,323.40625 C 353.27801,321.20242 354.61481,324.57344 360.57327,321.9962 C 361.32395,326.66174 370.32344,318.42339 372.125,322.40625 C 375.22813,326.80789 384.03529,318.97189 384.8689,323.79225 C 391.96084,319.0904 393.01492,322.77404 398.75,323.40625 C 399.23509,316.8199 404.28157,327.91586 409.27426,322.72749 C 415.6852,317.75023 416.22125,325.85613 421.9253,323.42826 C 428.54137,317.54483 430.44997,325.43399 434.84375,322.40625 C 436.27437,318.79433 441.08824,326.99139 443.6875,320.78125 C 444.88899,328.89495 451.80328,316.25302 451.53125,323.40625 C 459.03364,321.42002 456.21636,321.42002 463.71875,323.40625 C 463.65774,316.25847 470.25135,328.875 471.5625,320.78125 C 474.03279,327.00378 479.18863,318.80743 480.40625,322.40625 C 486.0796,324.20805 485.67275,319.34796 491.59375,323.40625 C 492.74999,316.05082 498.44233,328.90059 499.8125,320.78125 C 503.26787,324.32137 507.99151,323.55809 509.65625,318.78125 C 509.30365,313.66507 503.11016,311.42137 500.4375,315.78125 C 499.21735,307.75597 492.36144,320.26408 492.59375,313.1875 C 485.12728,315.15441 487.87272,315.15441 480.40625,313.1875 C 480.46502,320.25945 473.87319,307.77191 472.5625,315.78125 C 470.06842,309.6546 464.98747,317.7088 463.71875,314.1875 C 458.08488,312.37644 458.42208,317.21662 452.53125,313.1875 C 451.37663,320.46523 445.68517,307.74347 444.3125,315.78125 C 440.86646,311.79391 437.66686,314.70088 434.84375,315.1875 C 431.94481,309.11157 428.72643,319.75342 422.8125,313.5 C 416.62877,309.97514 415.91003,318.85107 409.44962,313.92867 C 404.5181,309.17755 400.20003,318.09879 398.75,314.1875 C 394.42219,311.28158 392.25204,318.78 385.7583,313.13043 C 383.38149,316.21089 377.83536,311.76447 372.125,313.1875 C 372.54135,320.22386 360.83352,308.50022 361.38269,314.9132 C 354.89793,311.45134 353.77259,315.81531 347.875,313.1875 C 342.55092,314.14108 341.02707,317.06323 334.32909,312.76086 C 328.57248,312.99671 328.37674,317.40825 323.59375,313.1875 C 320.77518,319.77392 317.32244,309.10064 314.375,315.1875 C 309.31558,314.72718 304.67051,312.44486 301.77308,314.1771 C 296.98398,312.61461 294.93087,315.01277 290.125,313.40625 C 289.27522,317.23943 278.23268,308.38079 278.28125,315.78125 C 272.9179,314.89478 267.43586,310.66998 263.84375,314.1875 C 262.55128,317.99213 257.5226,309.3055 255.28125,315.78125 C 247.76297,310.63031 247.70571,316.49095 241.3833,313.13043 C 239.00649,316.21089 233.46036,311.76447 227.75,313.1875 C 228.16635,320.22386 216.45852,308.50022 217.00769,314.9132 C 210.52293,311.45134 209.39759,315.81531 203.5,313.1875 C 196.36732,315.40226 199.03568,314.95741 191.65625,313.1875 C 192.07533,320.22633 180.32874,308.50565 180.88447,314.90873 C 174.5579,311.68118 172.91138,315.43327 167.375,313.40625 C 166.03094,316.24624 159.35784,311.21327 158.32789,314.54515 C 152.26447,311.68716 152.05937,316.11691 145.75,313.1875 z M 189.0625,328.1875 C 181.92982,330.40226 184.59818,329.95741 177.21875,328.1875 C 177.27752,335.25945 170.68569,322.77191 169.375,330.78125 C 166.88092,324.6546 161.79997,332.7088 160.53125,329.1875 C 154.89738,327.37644 155.23458,332.21662 149.34375,328.1875 C 148.18913,335.46523 142.49767,322.74347 141.125,330.78125 C 134.88456,331.87895 141.09249,340.18104 146.09375,338.40625 C 146.03274,331.25847 152.62635,343.875 153.9375,335.78125 C 156.40779,342.00378 161.56363,333.80743 162.78125,337.40625 C 168.4546,339.20805 168.04775,334.34796 173.96875,338.40625 C 175.12499,331.05082 180.81733,343.90059 182.1875,335.78125 C 185.60452,338.2257 189.69064,340.32661 195.50584,336.63517 C 197.55884,339.6883 203.65322,336.79002 207.1499,337.72911 C 211.43474,337.55022 213.70102,338.72848 220.53125,335.78125 C 221.36087,341.6159 229.1955,337.58107 233.75,335.78125 C 235.84929,339.81246 241.66087,339.19085 246.8125,336.3125 C 247.41988,340.85696 254.74412,335.55155 256.71875,338.09375 C 263.31109,333.12171 264.25218,339.41847 269.3689,338.79225 C 276.36659,334.71166 276.22995,341.10496 283.98931,335.89616 C 286.45338,340.6413 290.36956,336.18619 292.71875,336.40625 C 294.58979,341.53955 301.67713,337.03245 306.5625,335.78125 C 308.0054,340.95878 315.1405,338.19301 320.05577,335.90624 C 322.44425,341.67212 327.57964,334.14129 328.8125,337.40625 C 333.97043,340.11666 334.42606,333.20422 339,338.40625 C 345.20942,337.03757 347.2086,338.57956 352.45604,337.36446 C 355.03005,339.49896 360.25789,336.37445 364.90625,336.40625 C 368.51902,341.68761 370.95348,332.69794 375.09375,338.40625 C 381.28656,337.06283 383.28128,338.58842 388.51859,337.36458 C 393.83765,332.53753 396.73917,343.12154 399.375,335.78125 C 401.84529,342.00378 407.00113,333.80743 408.21875,337.40625 C 413.8921,339.20805 413.48525,334.34796 419.40625,338.40625 C 420.56249,331.05082 426.25483,343.90059 427.625,335.78125 C 431.04592,339.86041 434.33009,336.82186 437.09375,336.40625 C 440.70652,341.68761 443.14098,332.69794 447.28125,338.40625 C 453.47406,337.06283 455.46878,338.58842 460.70609,337.36458 C 466.72963,332.95181 467.27546,341.69057 473.28125,338.09375 C 478.71364,336.16493 479.68066,340.01421 487,335.78125 C 488.20149,343.89495 495.11578,331.25302 494.84375,338.40625 C 499.77713,339.24102 506.11062,337.87416 509.65625,334.15625 C 510.12178,329.21799 500.46354,327.74542 497.8125,328.1875 C 493.12889,333.31335 492.76843,326.56297 487.625,329.1875 C 485.51555,332.81409 476.90777,325.14058 475.95289,329.54515 C 469.73005,324.84235 467.22604,330.97476 462.76596,330.0437 C 455.66578,325.51879 456.26666,332.29689 448.9375,327.40625 C 443.27554,330.08941 444.03617,330.77079 438.09375,328.1875 C 436.93913,335.46523 431.24767,322.74347 429.875,330.78125 C 426.42896,326.79391 423.22936,329.70088 420.40625,330.1875 C 416.83398,324.90875 414.33883,333.85329 410.21875,328.1875 C 407.40018,334.77392 403.94744,324.10064 401,330.1875 C 397.70039,328.09894 394.99934,329.19878 390.57846,330.0437 C 383.47828,325.51879 384.07916,332.29689 376.75,327.40625 C 371.08804,330.08941 371.84867,330.77079 365.90625,328.1875 C 365.93854,335.44304 354.22809,323.32598 355.0625,330.28125 C 347.63303,325.42531 348.09634,332.27967 340.625,327.40625 C 335.45917,329.23119 335.44932,331.93027 330.8125,328.1875 C 328.27931,334.76383 323.67654,323.4686 321.59375,330.78125 C 316.2304,329.89478 310.74836,325.66998 307.15625,329.1875 C 305.06628,333.2427 297.68057,325.22824 293.71875,328.1875 C 292.56413,335.46523 286.87267,322.74347 285.5,330.78125 C 278.41783,327.55905 276.52332,329.31776 271.96827,328.80906 C 265.62155,324.46183 264.75617,333.39282 258.78193,329.30615 C 253.63242,327.3233 251.80397,330.17332 246.8125,328.40625 C 245.96272,332.23943 234.92018,323.38079 234.96875,330.78125 C 229.6054,329.89478 224.12336,325.66998 220.53125,329.1875 C 218.42191,332.81548 209.77704,325.15098 208.83145,329.53622 C 203.71232,328.09411 199.78436,328.48609 196.25,329.40625 C 196.45408,331.97391 189.13325,325.86817 189.0625,328.1875 z M 145.75,343.1875 C 140.98376,341.59524 134.91991,349.77442 141.125,350.78125 C 140.96036,358.36646 152.37005,349.07279 152.9375,353.34375 C 158.84746,350.80545 160.0611,355.13485 166.63084,351.63517 C 165.89174,358.27133 177.885,346.11679 177.21875,353.40625 C 184.72114,351.42002 181.90386,351.42002 189.40625,353.40625 C 189.99885,346.60846 194.31739,357.52769 198.96875,353.09375 C 204.40114,351.16493 205.36816,355.01421 212.6875,350.78125 C 213.88899,358.89495 220.80328,346.25302 220.53125,353.40625 C 228.03364,351.42002 225.21636,351.42002 232.71875,353.40625 C 232.65774,346.25847 239.25135,358.875 240.5625,350.78125 C 243.03279,357.00378 248.18863,348.80743 249.40625,352.40625 C 252.52482,356.82361 261.36208,348.91323 262.1814,353.79225 C 269.12632,349.76617 269.01861,356.07605 276.74327,350.90624 C 279.16909,353.82895 284.10517,354.88906 289.31843,351.63541 C 294.09972,350.90398 295.78806,355.40622 299.9375,350.78125 C 299.77286,358.36646 311.18255,349.07279 311.75,353.34375 C 315.91674,353.06033 321.72876,349.21092 324.5625,353.40625 C 327.09306,346.76615 331.70338,358.17139 333.78125,350.78125 C 337.29374,352.59021 340.48941,355.69513 346.13726,351.99999 C 351.57595,348.65003 352.54958,357.09693 358.71242,352.72916 C 365.1377,347.7546 365.67565,355.83075 371.3628,353.42826 C 377.98903,347.56094 379.92196,355.41533 384.3125,352.40625 C 385.76931,348.62381 390.52851,357.55873 395.76727,352.36122 C 401.76899,347.96013 402.33027,356.70568 408.34375,353.09375 C 414.38476,346.70442 417.44539,357.50555 420.40625,351.40625 C 423.33291,351.66057 426.34932,354.95177 429.875,350.78125 C 429.71036,358.36646 441.12005,349.07279 441.6875,353.34375 C 447.59746,350.80545 448.8111,355.13485 455.38084,351.63517 C 457.43343,354.68725 463.52906,351.79214 467.02426,352.72749 C 472.51166,346.65812 476.10662,358.51419 478.15625,350.78125 C 481.7711,354.36965 484.72286,352.26082 487.625,351.40625 C 488.30596,358.4497 499.95271,347.89586 499.4375,354.15625 C 502.96975,352.36819 513.51153,350.85888 508.40625,345.96875 C 500.76671,340.81914 500.32438,346.27537 494.0708,343.13043 C 488.39321,341.10429 486.86367,348.67644 483.375,343.1875 C 478.69139,348.31335 478.33093,341.56297 473.1875,344.1875 C 471.07805,347.81409 462.47027,340.14058 461.51539,344.54515 C 456.33737,343.0813 452.47986,343.48103 448.9375,344.40625 C 443.15465,342.01462 441.83993,346.17498 435.39159,342.76086 C 429.63498,342.99671 429.43924,347.40825 424.65625,343.1875 C 421.83768,349.77392 418.38494,339.10064 415.4375,345.1875 C 410.98084,345.90852 406.02268,341.15185 401,343.1875 C 400.90216,349.84595 391.75048,339.90964 388.5625,343.1875 C 386.02931,349.76383 381.42654,338.4686 379.34375,345.78125 C 373.9804,344.89478 368.49836,340.66998 364.90625,344.1875 C 362.81628,348.2427 355.43057,340.22824 351.46875,343.1875 C 350.60879,349.35938 342.34811,340.87665 339,343.1875 C 334.31639,348.31335 333.95593,341.56297 328.8125,344.1875 C 327.13787,346.43715 322.60758,341.33337 319.32048,345.41247 C 311.88055,340.39689 312.39258,347.07184 305.45409,342.76086 C 299.69748,342.99671 299.50174,347.40825 294.71875,343.1875 C 292.80308,348.49089 285.70641,341.98906 281.875,343.1875 C 277.75706,345.61721 274.60454,345.83456 268.4375,342.40625 C 267.74731,346.88164 260.53946,341.71819 258.46058,344.1771 C 253.28204,339.95458 249.76644,345.92166 247.15625,345.1875 C 243.58398,339.90875 241.08883,348.85329 236.96875,343.1875 C 234.15018,349.77392 230.69744,339.10064 227.75,345.1875 C 224.89207,344.4205 221.77388,342.03155 218.28125,345.78125 C 216.16725,338.36008 212.13808,349.94763 206.39579,343.55816 C 202.99928,344.90227 199.21388,343.05304 193.65625,343.1875 C 190.83768,349.77392 187.38494,339.10064 184.4375,345.1875 C 181.13789,343.09894 178.43684,344.19878 174.01596,345.0437 C 166.91578,340.51879 167.51666,347.29689 160.1875,342.40625 C 158.40776,345.89407 152.4771,343.29529 148.5,343.5 C 147.87632,343.73776 145.10477,341.17695 145.75,343.1875 z M 138.5,360.34375 C 140.3402,362.77124 135.45027,371.04428 142.14992,367.72916 C 148.5752,362.7546 149.11315,370.83075 154.8003,368.42826 C 161.31253,364.00311 163.00852,367.66264 167.375,369.15625 C 174.87628,364.34236 174.44542,371.16113 181.9963,366.26243 C 185.77239,367.50834 187.93928,369.38218 191.65625,365.78125 C 192.48587,371.6159 200.3205,367.58107 204.875,365.78125 C 206.99398,369.86546 212.86921,369.14127 218.0621,366.27082 C 221.76467,368.38978 224.78843,367.82177 227.75,366.40625 C 230.69058,372.53455 234.26843,361.79345 236.96875,368.40625 C 243.13516,367.95833 246.09024,367.5075 250.4624,367.72911 C 254.74724,367.55022 257.01352,368.72848 263.84375,365.78125 C 265.92162,373.17139 270.53194,361.76615 273.0625,368.40625 C 279.2135,367.9714 282.15657,367.5317 286.52492,367.72916 C 292.03029,361.6582 295.63542,373.50426 297.6875,365.78125 C 301.10842,369.86041 304.39259,366.82186 307.15625,366.40625 C 310.76902,371.68761 313.20348,362.69794 317.34375,368.40625 C 320.18556,361.76016 323.57313,372.49956 326.5625,366.40625 C 329.36791,367.0815 332.56592,369.64744 336.03125,365.78125 C 338.10912,373.17139 342.71944,361.76615 345.25,368.40625 C 351.401,367.9714 354.34407,367.5317 358.71242,367.72916 C 365.1377,362.7546 365.67565,370.83075 371.3628,368.42826 C 377.62476,365.19256 377.81643,370.88111 385.34375,365.78125 C 387.28768,372.5312 392.7908,363.40163 393.78125,367.40625 C 397.38745,370.9178 402.88612,366.65422 408.21875,365.78125 C 408.07099,373.37259 419.47172,364.0588 420.0625,368.3125 C 425.87774,365.88901 427.16742,370.10582 433.69144,366.63035 C 433.00127,373.2316 444.91852,361.16741 444.3125,368.40625 C 451.5588,367.13775 449.06478,365.29483 455.5,368.40625 C 457.50418,362.08839 460.67861,371.92707 466.09375,368.09375 C 471.46315,366.26649 472.52674,369.92403 479.8125,365.78125 C 481.77912,373.41645 487.3543,361.63058 488.625,368.40625 C 495.1707,365.40716 492.60659,367.00559 499.8125,368.40625 C 500.11235,362.39451 506.16024,372.60927 508.65625,365.78125 C 512.81201,362.50979 503.77629,354.40222 502.0625,360.1875 C 499.20457,359.4205 496.08638,357.03155 492.59375,360.78125 C 490.51096,353.4686 485.90819,364.76383 483.375,358.1875 C 480.58449,362.50224 474.27178,358.03814 470.5625,358.40625 C 469.72599,362.20454 458.70006,353.39343 458.75,360.78125 C 455.30396,356.79391 452.10436,359.70088 449.28125,360.1875 C 446.38231,354.11157 443.16393,364.75342 437.25,358.5 C 434.52921,359.3602 430.93503,358.96367 427.25,358.40625 C 425.90594,361.24624 419.23284,356.21327 418.20289,359.54515 C 411.98005,354.84235 409.47604,360.97476 405.01596,360.0437 C 399.6821,356.85941 394.78336,357.49271 392.1875,360.78125 C 389.60993,353.60897 386.5862,363.77179 381.50344,359.29919 C 376.16065,357.56733 374.42942,359.97753 368.5,358.1875 C 364.38206,360.61721 361.22954,360.83456 355.0625,357.40625 C 355.58716,363.70409 343.96928,353.13099 343.25,360.1875 C 340.39207,359.4205 337.27388,357.03155 333.78125,360.78125 C 331.69846,353.4686 327.09569,364.76383 324.5625,358.1875 C 319.87889,363.31335 319.51843,356.56297 314.375,359.1875 C 313.06718,362.42635 308.05576,354.84653 305.53125,360.78125 C 303.52237,353.25313 297.98564,364.87098 296.6875,358.1875 C 292.13016,360.27792 289.30229,361.10177 282.875,357.40625 C 283.39966,363.70409 271.78178,353.13099 271.0625,360.1875 C 267.76289,358.09894 265.06184,359.19878 260.64096,360.0437 C 253.54078,355.51879 254.14166,362.29689 246.8125,357.40625 C 247.32914,363.73344 235.68677,353.1264 234.96875,360.1875 C 232.01262,359.83596 229.03177,356.71684 225.5,360.78125 C 223.38655,353.36233 219.35984,364.94452 213.61039,358.56859 C 207.59542,354.76293 206.89682,363.43936 201.03193,359.30615 C 195.75022,355.91944 192.72057,359.12756 189.40625,360.78125 C 187.29225,353.36008 183.26308,364.94763 177.52079,358.55816 C 174.12428,359.90227 170.33888,358.05304 164.78125,358.1875 C 162.86558,363.49089 155.76891,356.98906 151.9375,358.1875 C 147.81956,360.61721 144.66704,360.83456 138.5,357.40625 C 138.5,358.38542 138.5,359.36458 138.5,360.34375 z M 138.5,375.34375 C 140.33992,377.77051 135.45087,386.04582 142.14942,382.7279 C 146.4966,382.47861 148.68228,383.78728 155.5625,380.78125 C 156.39106,386.60781 164.23551,382.6023 168.78125,380.78125 C 170.72518,387.5312 176.2283,378.40163 177.21875,382.40625 C 182.8921,384.20805 182.48525,379.34796 188.40625,383.40625 C 194.46551,381.20242 195.80231,384.57344 201.76077,381.9962 C 204.28857,384.33957 210.34746,381.52023 213.40625,383.09375 C 218.25171,381.45238 220.30682,383.93109 225.125,382.34375 C 226.61548,385.98834 235.76728,377.32044 236.96875,383.40625 C 241.77569,379.1373 241.89368,383.62262 247.7439,383.79225 C 254.64132,379.27245 255.86922,382.4961 261.25,383.40625 C 265.53884,382.91246 271.1615,379.29057 274.03125,383.40625 C 276.87306,376.76016 280.26063,387.49956 283.25,381.40625 C 285.8744,381.20521 290.09673,386.42963 295.63719,381.99982 C 296.33467,386.71116 305.41241,378.36879 307.15625,382.40625 C 310.76245,385.9178 316.26112,381.65422 321.59375,380.78125 C 323.67162,388.17139 328.28194,376.76615 330.8125,383.40625 C 336.96319,382.97061 339.90721,382.53333 344.27442,382.7279 C 348.10384,382.24415 350.77948,383.48089 355.0625,382.34375 C 356.55298,385.98834 365.70478,377.32044 366.90625,383.40625 C 370.18575,386.58847 379.30488,376.69924 379.34375,383.40625 C 384.31563,385.50576 389.52265,380.4514 393.78125,381.40625 C 397.39402,386.68761 399.82848,377.69794 403.96875,383.40625 C 407.4322,385.68076 415.60053,377.1744 416.4375,383.40625 C 422.41405,383.90403 426.57414,381.44372 429.96875,383.09375 C 434.81421,381.45238 436.86932,383.93109 441.6875,382.34375 C 443.17798,385.98834 452.32978,377.32044 453.53125,383.40625 C 457.67152,377.69794 460.10598,386.68761 463.71875,381.40625 C 466.42671,380.54386 469.82529,386.68381 475.1426,382.36205 C 477.77367,384.43948 482.92407,381.43036 487.625,381.40625 C 490.56558,387.53455 494.14343,376.79345 496.84375,383.40625 C 500.98402,377.69794 503.41848,386.68761 507.03125,381.40625 C 512.69238,379.89341 507.9276,372.22235 503.0625,373.1875 C 501.77905,379.89464 496.22256,368.22722 494.25,375.78125 C 490.55071,370.33692 488.55794,376.77356 483.49477,374.6697 C 477.45873,371.61402 476.31306,375.80676 470.5625,373.1875 C 463.69002,374.75219 466.10007,376.04403 459.75,373.1875 C 458.46655,379.89464 452.91006,368.22722 450.9375,375.78125 C 443.57058,371.59053 442.62897,375.38374 437.25,373.5 C 434.52921,374.3602 430.93503,373.96367 427.25,373.40625 C 426.41349,377.20454 415.38756,368.39343 415.4375,375.78125 C 410.07643,374.87795 404.60052,370.67166 401,374.1875 C 399.32537,376.43715 394.79508,371.33337 391.50798,375.41247 C 386.76526,373.05696 380.12271,370.92918 378.75,375.78125 C 373.82258,374.54455 366.78005,370.0386 364.90625,375.1875 C 359.84257,374.7283 355.1645,372.45678 352.27842,374.1637 C 347.55481,372.64714 345.42159,375.0105 340.625,373.40625 C 339.78849,377.20454 328.76256,368.39343 328.8125,375.78125 C 324.44435,370.85873 322.81876,376.33186 317.46145,374.67492 C 311.8402,370.77174 308.2494,374.32529 304.88298,375.41247 C 297.44305,370.39689 297.95508,377.07184 291.01659,372.76086 C 285.25998,372.99671 285.06424,377.40825 280.28125,373.1875 C 277.46268,379.77392 274.00994,369.10064 271.0625,375.1875 C 266.60584,375.90852 261.64768,371.15185 256.625,373.1875 C 256.52716,379.84595 247.37548,369.90964 244.1875,373.1875 C 241.65431,379.76383 237.05154,368.4686 234.96875,375.78125 C 227.8805,372.56339 225.95336,374.32693 221.4129,373.79118 C 217.74103,373.50145 214.92139,374.51343 210.6875,373.40625 C 209.34344,376.24624 202.67034,371.21327 201.64039,374.54515 C 195.74145,372.26092 194.23979,375.11382 188.0625,373.1875 C 182.57494,377.51411 182.70259,372.10422 177.21875,374.1875 C 175.92628,377.99213 170.8976,369.3055 168.65625,375.78125 C 164.09578,373.88119 156.43113,370.05105 155.5625,375.78125 C 148.48033,372.55905 146.58582,374.31776 142.03077,373.80906 C 139.33927,372.82128 137.80088,371.21306 138.5,375.34375 z M 169.59375,387.9375 C 169.75531,394.46695 163.63196,383.73711 161.4375,390.78125 C 153.92779,385.65776 153.83432,391.45704 147.5708,388.13043 C 146.52348,392.47237 136.40584,383.47029 138.5,392.4375 C 138.63611,395.05931 137.66428,402.0121 144.94144,396.63035 C 147.01161,399.64913 153.05266,396.85242 156.58742,397.72916 C 162.09279,391.6582 165.69792,403.50426 167.75,395.78125 C 168.41863,398.34604 175.95411,405.30077 176.0625,396.8125 C 170.93174,394.42306 180.69076,385.89313 173.0625,385.9375 C 171.24967,386.26343 168.66509,384.76459 169.59375,387.9375 z M 176.8125,387.9375 C 177.65723,393.14485 173.72172,403.13245 182.28125,400.625 C 184.56395,397.01905 180.10264,392.13984 183.28125,387.9375 C 185.17323,384.86929 174.99432,384.968 176.8125,387.9375 z M 226.65625,387.9375 C 220.18216,392.05935 220.74304,385.3049 213.50866,390.34388 C 209.28527,387.71359 207.54345,389.44314 202.89096,390.0437 C 195.79078,385.51879 196.39166,392.29689 189.0625,387.40625 C 190.83479,392.27633 176.72864,392.91673 186.40625,396.25 C 189.39011,400.24741 195.3296,395.14452 197.1814,398.79225 C 204.27334,394.0904 205.32742,397.77404 211.0625,398.40625 C 210.57999,391.34316 222.35853,403.05106 221.83606,396.68055 C 226.1281,397.91976 232.00842,404.8956 233.125,397.625 C 233.91955,392.68707 242.39367,401.61226 246.15625,398.40625 C 251.51051,390.66508 244.73599,401.79805 252.3125,400.625 C 257.09431,398.15548 253.71402,394.08037 259.59375,398.40625 C 262.43556,391.76016 265.82313,402.49956 268.8125,396.40625 C 271.61791,397.0815 274.81592,399.64744 278.28125,395.78125 C 280.35912,403.17139 284.96944,391.76615 287.5,398.40625 C 294.15342,392.62541 289.29034,401.00298 296.78125,400.625 C 301.88403,398.94387 294.54222,392.05462 298.78125,388.78125 C 297.18386,380.34154 290.96965,390.60642 290.46875,390.1875 C 286.89648,384.90875 284.40133,393.85329 280.28125,388.1875 C 277.46268,394.77392 274.00994,384.10064 271.0625,390.1875 C 268.20457,389.4205 265.08638,387.03155 261.59375,390.78125 C 260.4906,382.47711 252.8135,396.92734 254.78125,385.9375 C 246.09341,382.77247 249.90409,394.54612 245.15625,388.1875 C 241.82603,384.89744 232.40223,395.21684 233.125,387.9375 C 235.01698,384.86929 224.83807,384.968 226.65625,387.9375 z M 385.46875,387.9375 C 379.27615,392.17587 377.71659,389.38419 373.125,388.1875 C 371.84155,394.89464 366.28506,383.22722 364.3125,390.78125 C 361.64402,385.09775 356.83243,392.25386 355.4375,389.1875 C 350.31548,386.48176 349.81481,393.34415 345.25,388.1875 C 342.71681,394.76383 338.11404,383.4686 336.03125,390.78125 C 332.41606,387.26021 329.49978,389.27286 326.5625,390.1875 C 323.6552,384.07323 320.04688,394.74552 317.34375,388.1875 C 314.55022,392.49903 308.26774,388.03788 304.5625,388.40625 C 304.23653,391.30424 292.58668,394.82274 302.90625,396.25 C 304.40266,401.34567 310.47445,395.20352 314.375,396.40625 C 317.31558,402.53455 320.89343,391.79345 323.59375,398.40625 C 327.73402,392.69794 330.16848,401.68761 333.78125,396.40625 C 336.70791,396.66057 339.72432,399.95177 343.25,395.78125 C 344.55717,403.89917 350.4644,391.10066 351.46875,398.40625 C 357.38975,394.34796 356.9829,399.20805 362.65625,397.40625 C 364.08687,393.79433 368.90074,401.99139 371.5,395.78125 C 374.21736,403.08622 377.36515,392.28473 382.9963,397.61257 C 386.407,400.66356 390.59974,402.33263 393.90625,398.09375 C 401.09103,391.71477 400.67065,402.22682 406.21875,398.0625 C 407.24299,391.47095 400.98041,393.68274 397.3386,389.857 C 392.97115,389.07875 387.70267,381.79779 385.46875,387.9375 z M 407.8125,387.9375 C 408.65723,393.14485 404.72172,403.13245 413.28125,400.625 C 414.82984,393.35838 412.23225,397.06633 419.40625,398.40625 C 424.76051,390.66508 417.98599,401.79805 425.5625,400.625 C 429.79521,397.75808 433.93939,396.58212 437.21875,398.09375 C 445.82399,391.57857 441.31562,401.82337 448.375,400.625 C 452.14827,396.88865 446.94777,393.28627 456.40625,398.09375 C 459.75559,396.39487 464.02367,398.94308 469.9375,398.40625 C 471.22285,391.65424 476.77827,403.39066 478.78125,395.78125 C 481.40555,401.581 486.2753,394.24469 487.625,397.40625 C 492.78293,400.11666 493.23856,393.20422 497.8125,398.40625 C 500.34306,391.76615 504.95338,403.17139 507.03125,395.78125 C 513.2828,394.67977 507.05412,386.41269 502.0625,388.1875 C 501.75254,394.15027 495.72127,384.0171 493.25,390.78125 C 491.99261,382.88386 485.15495,395.08009 485.375,388.1875 C 478.16715,389.45112 480.60324,391.26029 474.1875,388.1875 C 472.17813,394.45745 468.93933,384.64869 463.59375,388.5 C 458.25889,390.27879 456.61621,386.56265 449.26233,391.34831 C 454.76552,388.82072 443.87601,381.23315 443.90625,388.9375 C 443.17692,393.60146 433.30398,384.76704 432.64039,389.54515 C 428.7725,387.78637 421.34058,381.80846 421.5625,389.78125 C 421.18661,388.62281 414.65714,388.62281 414.28125,389.78125 C 417.05938,384.64651 407.18696,384.50906 407.8125,387.9375 z M 228.0625,393.71875 C 225.18443,393.82153 228.92139,391.77741 228.0625,393.71875 z M 386.875,393.71875 C 383.99693,393.82153 387.73389,391.77741 386.875,393.71875 z M 392.4375,393.3125 C 391.69952,394.28596 391.74606,392.2229 392.4375,393.3125 z M 428.53125,393.28125 C 427.83288,394.30362 427.81101,392.31577 428.53125,393.28125 z M 147.9375,402.9375 C 147.96156,409.21665 142.03914,399.05587 139.5,405.78125 C 135.36045,409.04662 144.35962,417.20374 146.09375,411.40625 C 146.76664,410.81401 152.75049,421.20001 154.40625,412.8125 C 149.95488,409.5076 157.61768,402.67338 152.40625,400.9375 C 150.59337,401.46895 146.86732,399.46157 147.9375,402.9375 z M 241.09375,402.9375 C 234.90115,407.17587 233.34159,404.38419 228.75,403.1875 C 227.46655,409.89464 221.91006,398.22722 219.9375,405.78125 C 217.26902,400.09775 212.45743,407.25386 211.0625,404.1875 C 205.94048,401.48176 205.43981,408.34415 200.875,403.1875 C 198.34181,409.76383 193.73904,398.4686 191.65625,405.78125 C 188.04106,402.26021 185.12478,404.27286 182.1875,405.1875 C 179.2802,399.07323 175.67188,409.74552 172.96875,403.1875 C 170.17522,407.49903 163.89274,403.03788 160.1875,403.40625 C 159.86153,406.30424 148.21168,409.82274 158.53125,411.25 C 160.02766,416.34567 166.09945,410.20352 170,411.40625 C 172.94058,417.53455 176.51843,406.79345 179.21875,413.40625 C 183.35902,407.69794 185.79348,416.68761 189.40625,411.40625 C 192.33291,411.66057 195.34932,414.95177 198.875,410.78125 C 200.18217,418.89917 206.0894,406.10066 207.09375,413.40625 C 213.01475,409.34796 212.6079,414.20805 218.28125,412.40625 C 219.71187,408.79433 224.52574,416.99139 227.125,410.78125 C 229.84236,418.08622 232.99015,407.28473 238.6213,412.61257 C 242.032,415.66356 246.22474,417.33263 249.53125,413.09375 C 253.42866,408.48337 262.56947,414.71928 262.625,408.28125 C 261.21143,404.74992 252.5441,406.84851 248.63104,403.13615 C 248.06662,400.82089 240.8921,399.02956 241.09375,402.9375 z M 422.25,402.9375 C 423.09473,408.14485 419.15922,418.13245 427.71875,415.625 C 430.00145,412.01905 425.54014,407.13984 428.71875,402.9375 C 430.61073,399.86929 420.43182,399.968 422.25,402.9375 z M 479.3125,402.9375 C 483.96664,410.87345 472.82226,400.98249 470.5625,403.40625 C 468.7598,406.08907 460.87604,401.03155 457.26659,403.14539 C 451.01832,403.90488 449.68654,409.31394 444.0625,408.28125 C 446.37347,405.34048 443.44933,400.20075 437.2935,405.35291 C 432.19045,404.91387 423.88409,409.2789 431.84375,411.25 C 436.44919,410.25725 440.22273,412.42955 444.6875,414.15625 C 451.06594,414.76281 448.93357,407.73309 456.40625,413.09375 C 460.76237,415.24611 466.9848,411.95384 470.5625,412.34375 C 470.64984,417.29919 484.17451,405.64545 479.3125,412.8125 C 481.91807,421.72189 485.90371,409.9886 488.14332,411.38611 C 493.15519,412.25848 498.23278,419.43435 500.90625,413.625 C 497.59963,405.02726 505.36343,418.77697 507.03125,411.40625 C 512.69238,409.89341 507.9276,402.22235 503.0625,403.1875 C 501.16174,410.06578 500.30267,395.61902 494.4375,401.9375 C 490.38711,405.85336 484.29418,407.13493 484.78125,400.9375 C 482.93945,401.58028 478.08767,399.31857 479.3125,402.9375 z M 405.625,405.34375 C 400.73492,404.4099 396.15582,412.64174 405,411.25 C 405.73149,417.33368 413.77735,408.51429 418.40625,411.25 C 425.99623,409.75601 418.82312,404.84511 413.6337,405.59817 C 411.03663,405.50778 403.94674,399.32713 405.625,405.34375 z M 270.03125,408.28125 C 269.51182,416.75102 283.94134,407.02482 274.0625,406.28125 C 272.28722,406.75552 269.01096,404.9059 270.03125,408.28125 z M 277.25,408.28125 C 276.73057,416.75102 291.16009,407.02482 281.28125,406.28125 C 279.50597,406.75552 276.22971,404.9059 277.25,408.28125 z M 284.46875,408.28125 C 283.94932,416.75102 298.37884,407.02482 288.5,406.28125 C 286.72472,406.75552 283.44846,404.9059 284.46875,408.28125 z M 291.6875,408.28125 C 291.16807,416.75102 305.59759,407.02482 295.71875,406.28125 C 293.94347,406.75552 290.66721,404.9059 291.6875,408.28125 z M 298.90625,408.28125 C 298.38682,416.75102 312.81634,407.02482 302.9375,406.28125 C 301.16222,406.75552 297.88596,404.9059 298.90625,408.28125 z M 306.125,408.28125 C 305.60557,416.75102 320.03509,407.02482 310.15625,406.28125 C 308.38097,406.75552 305.10471,404.9059 306.125,408.28125 z M 313.34375,408.28125 C 312.82432,416.75102 327.25384,407.02482 317.375,406.28125 C 315.59972,406.75552 312.32346,404.9059 313.34375,408.28125 z M 320.5625,408.28125 C 320.04307,416.75102 334.47259,407.02482 324.59375,406.28125 C 322.81847,406.75552 319.54221,404.9059 320.5625,408.28125 z M 327.78125,408.28125 C 327.26182,416.75102 341.69134,407.02482 331.8125,406.28125 C 330.03722,406.75552 326.76096,404.9059 327.78125,408.28125 z M 335,408.28125 C 334.48057,416.75102 348.91009,407.02482 339.03125,406.28125 C 337.25597,406.75552 333.97971,404.9059 335,408.28125 z M 342.21875,408.28125 C 341.69932,416.75102 356.12884,407.02482 346.25,406.28125 C 344.47472,406.75552 341.19846,404.9059 342.21875,408.28125 z M 349.4375,408.28125 C 348.91807,416.75102 363.34759,407.02482 353.46875,406.28125 C 351.69347,406.75552 348.41721,404.9059 349.4375,408.28125 z M 356.65625,408.28125 C 356.13682,416.75102 370.56634,407.02482 360.6875,406.28125 C 358.91222,406.75552 355.63596,404.9059 356.65625,408.28125 z M 363.875,408.28125 C 363.35557,416.75102 377.78509,407.02482 367.90625,406.28125 C 366.13097,406.75552 362.85471,404.9059 363.875,408.28125 z M 371.09375,408.28125 C 370.57432,416.75102 385.00384,407.02482 375.125,406.28125 C 373.34972,406.75552 370.07346,404.9059 371.09375,408.28125 z M 378.3125,408.28125 C 377.79307,416.75102 392.22259,407.02482 382.34375,406.28125 C 380.56847,406.75552 377.29221,404.9059 378.3125,408.28125 z M 385.53125,408.28125 C 385.01182,416.75102 399.44134,407.02482 389.5625,406.28125 C 387.78722,406.75552 384.51096,404.9059 385.53125,408.28125 z M 392.75,408.28125 C 392.23057,416.75102 406.66009,407.02482 396.78125,406.28125 C 395.00597,406.75552 391.72971,404.9059 392.75,408.28125 z M 242.5,408.71875 C 239.62193,408.82153 243.35889,406.77741 242.5,408.71875 z M 248.0625,408.3125 C 247.32452,409.28596 247.37106,407.2229 248.0625,408.3125 z M 494.4375,408.46875 C 493.0104,408.5646 494.90124,407.61744 494.4375,408.46875 z M 263.59375,410.28125 C 262.56413,420.41691 275.45019,408.59275 266.0625,408.28125 C 264.12587,408.24858 263.056,407.74817 263.59375,410.28125 z M 140.03125,417.9375 C 143.38521,422.187 138.66839,426.99241 141.03125,430.625 C 149.27731,433.13269 143.90223,421.12948 152.6137,427.8554 C 157.69604,429.37833 161.721,428.9957 167.375,426.34375 C 168.03683,430.8369 175.3738,425.51618 177.34375,428.09375 C 186.82939,423.26637 181.50108,426.80258 185.34375,430.625 C 192.37873,431.75237 187.77883,421.39591 196.53125,428.09375 C 199.19656,427.17824 202.87004,427.70837 206.46875,428.15625 C 209.30257,423.85833 213.89608,433.43109 219.375,430.625 C 218.45898,424.94137 217.62991,422.24147 219.375,416.9375 C 215.25516,412.19274 210.23894,421.4825 206.46875,419.28125 C 205.14939,416.38293 198.37489,421.5391 197.39159,418.14539 C 188.69763,424.55329 192.01128,416.05984 185.8125,415.9375 C 180.48247,418.25667 187.77516,424.19005 177.9897,418.74526 C 174.45442,418.62294 171.532,419.43852 167.375,418.40625 C 165.5723,421.08907 157.68854,416.03155 154.07909,418.14539 C 145.38513,424.55329 148.69878,416.05984 142.5,415.9375 C 140.56337,415.90483 139.4935,415.40442 140.03125,417.9375 z M 227.34375,417.9375 C 228.18848,423.14485 224.25297,433.13245 232.8125,430.625 C 235.0952,427.01905 230.63389,422.13984 233.8125,417.9375 C 235.70448,414.86929 225.52557,414.968 227.34375,417.9375 z M 241.78125,417.9375 C 242.62598,423.14485 238.69047,433.13245 247.25,430.625 C 249.5327,427.01905 245.07139,422.13984 248.25,417.9375 C 250.14198,414.86929 239.96307,414.968 241.78125,417.9375 z M 256.21875,417.9375 C 257.06348,423.14485 253.12797,433.13245 261.6875,430.625 C 264.96572,424.47057 268.41248,429.84687 273.01859,427.36458 C 278.33765,422.53753 281.23917,433.12154 283.875,425.78125 C 288.7396,427.09457 295.85327,431.50991 297.6875,426.40625 C 300.49291,427.0815 303.69092,429.64744 307.15625,425.78125 C 309.23412,433.17139 313.84444,421.76615 316.375,428.40625 C 321.09409,423.24304 321.379,430.01649 326.5625,427.40625 C 327.95624,424.30724 332.84028,431.53827 335.625,425.78125 C 332.29079,434.46063 347.56581,430.06827 340.6875,425.8125 C 340.14228,420.87448 345.6563,414.45343 336.625,415.9375 C 336.1829,425.41079 331.91807,414.3927 328.8125,420.1875 C 325.95457,419.4205 322.83638,417.03155 319.34375,420.78125 C 317.26096,413.4686 312.65819,424.76383 310.125,418.1875 C 305.44139,423.31335 305.08093,416.56297 299.9375,419.1875 C 298.42804,422.90844 293.69108,414.02701 288.48471,419.23755 C 283.22999,424.03609 280.27929,413.474 277.6875,420.78125 C 270.32058,416.59053 269.37897,420.38374 264,418.5 C 262.86716,416.40745 256.74339,413.42209 256.21875,417.9375 z M 399.90625,417.9375 C 393.71365,422.17587 392.15409,419.38419 387.5625,418.1875 C 386.27905,424.89464 380.72256,413.22722 378.75,420.78125 C 376.08152,415.09775 371.26993,422.25386 369.875,419.1875 C 364.75298,416.48176 364.25231,423.34415 359.6875,418.1875 C 358.42382,424.25573 349.0877,415.35133 347.875,419.40625 C 344.92777,420.33564 337.13962,426.65711 347.21875,426.25 C 346.49475,433.36824 356.87383,422.22197 357.6875,427.40625 C 362.84543,430.11666 363.30106,423.20422 367.875,428.40625 C 370.40556,421.76615 375.01588,433.17139 377.09375,425.78125 C 380.7086,429.36965 383.66036,427.26082 386.5625,426.40625 C 389.50255,432.45972 392.66488,421.81167 398.65625,428.09375 C 401.307,433.00078 409.14358,430.98225 406.375,423.625 C 408.94629,417.30757 402.47254,412.20027 399.90625,417.9375 z M 407.125,417.9375 C 410.47896,422.187 405.76214,426.99241 408.125,430.625 C 414.09065,431.88485 415.57451,426.17907 422.0625,425.78125 C 424.02912,433.41645 429.6043,421.63058 430.875,428.40625 C 437.4207,425.40716 434.85659,427.00559 442.0625,428.40625 C 442.36235,422.39451 448.41024,432.60927 450.90625,425.78125 C 452.11657,433.79539 459.00798,421.41321 458.75,428.40625 C 465.9963,427.13775 463.50228,425.29483 469.9375,428.40625 C 471.22285,421.65424 476.77827,433.39066 478.78125,425.78125 C 481.40555,431.581 486.2753,424.24469 487.625,427.40625 C 492.78293,430.11666 493.23856,423.20422 497.8125,428.40625 C 500.34306,421.76615 504.95338,433.17139 507.03125,425.78125 C 513.2828,424.67977 507.05412,416.41269 502.0625,418.1875 C 501.75254,424.15027 495.72127,414.0171 493.25,420.78125 C 491.99261,412.88386 485.15495,425.08009 485.375,418.1875 C 478.16715,419.45112 480.60324,421.26029 474.1875,418.1875 C 472.90405,424.89464 467.34756,413.22722 465.375,420.78125 C 462.70652,415.09775 457.89493,422.25386 456.5,419.1875 C 451.37798,416.48176 450.87731,423.34415 446.3125,418.1875 C 443.77931,424.76383 439.17654,413.4686 437.09375,420.78125 C 433.47856,417.26021 430.56228,419.27286 427.625,420.1875 C 424.72455,414.12574 421.49495,424.74918 415.5625,418.5 C 413.93152,416.75033 407.70957,413.21941 407.125,417.9375 z M 219.5,423.28125 C 218.98057,431.75102 233.41009,422.02482 223.53125,421.28125 C 221.75597,421.75552 218.47971,419.9059 219.5,423.28125 z M 233.9375,423.28125 C 233.41807,431.75102 247.84759,422.02482 237.96875,421.28125 C 236.19347,421.75552 232.91721,419.9059 233.9375,423.28125 z M 248.375,423.28125 C 247.85557,431.75102 262.28509,422.02482 252.40625,421.28125 C 250.63097,421.75552 247.35471,419.9059 248.375,423.28125 z M 262.5,423.3125 C 260.89196,425.00217 260.48441,421.39819 262.5,423.3125 z M 401.3125,423.71875 C 398.43443,423.82153 402.17139,421.77741 401.3125,423.71875 z M 212.90625,423.46875 C 211.47915,423.5646 213.36999,422.61744 212.90625,423.46875 z M 414.09375,423.28125 C 413.39538,424.30362 413.37351,422.31577 414.09375,423.28125 z "
       id="flowRoot15635" />
    <path
       style="font-size:200px;fill:#ffffff;filter:url(#filter16683)"
       d="M 203.68593,234.18855 C 203.68593,288.86469 203.68593,343.54082 203.68593,398.21696 C 228.15441,397.69466 252.75614,399.25942 277.15013,397.45388 C 295.78228,395.80174 315.40254,385.18544 320.78467,366.16743 C 326.6459,346.92755 320.99293,323.08516 302.92156,312.68216 C 300.60161,311.09178 297.21738,309.86224 295.25603,308.79737 C 310.57535,303.81519 317.4959,286.80086 316.13679,271.68373 C 316.23667,254.54646 303.31174,239.64802 287.03554,235.36786 C 265.94882,229.18435 243.54624,233.07287 221.8959,231.96867 C 216.73142,233.30205 205.04984,229.20472 203.68593,234.18855 z M 355.88654,234.18855 C 355.88654,288.86469 355.88654,343.54082 355.88654,398.21696 C 364.66201,398.21696 373.43747,398.21696 382.21294,398.21696 C 382.21294,372.45709 382.21294,346.69721 382.21294,320.93735 C 403.60242,320.93735 424.99191,320.93735 446.38138,320.93735 C 446.38138,313.31807 446.38138,305.69878 446.38138,298.07951 C 424.99191,298.07951 403.60242,298.07951 382.21294,298.07951 C 382.21294,283.66184 382.21294,269.24417 382.21294,254.82651 C 405.9148,254.82651 429.61665,254.82651 453.31851,254.82651 C 453.31851,247.20723 453.31851,239.58795 453.31851,231.96867 C 420.84118,231.96867 388.36387,231.96867 355.88654,231.96867 L 355.88654,233.07861 L 355.88654,234.18855 z M 260.18885,254.3756 C 271.35804,253.95864 286.47371,257.26257 289.0473,270.08819 C 291.83353,280.48072 287.61032,293.71408 276.2483,296.55334 C 261.43019,300.71099 245.35632,297.91288 230.01234,298.73853 C 230.01234,283.95088 230.01234,269.16325 230.01234,254.3756 C 240.07117,254.3756 250.13001,254.3756 260.18885,254.3756 z M 262.89433,320.93735 C 275.07104,320.4261 290.73808,324.42563 294.04204,337.93331 C 297.63722,350.39039 294.98263,367.96171 281.27772,372.82707 C 265.13822,378.42613 247.49697,374.72275 230.70605,375.81003 C 229.0836,369.80165 230.47764,360.77677 230.01234,353.61122 C 230.01234,342.71993 230.01234,331.82864 230.01234,320.93735 C 240.973,320.93735 251.93366,320.93735 262.89433,320.93735 z "
       id="flowRoot15668" />
    <flowRoot
       xml:space="preserve"
       id="flowRoot14642"
       style="font-size:12px;font-style:normal;font-variant:normal;font-weight:normal;font-stretch:normal;text-align:start;line-height:125%;writing-mode:lr-tb;text-anchor:start;fill:#000000;fill-opacity:1;stroke:none;stroke-linejoin:miter;stroke-opacity:1;font-family:Bitstream Vera Sans Mono"><flowRegion
         id="flowRegion14644"><rect
           id="rect14646"
           width="368.94781"
           height="232.0921"
           x="140"
           y="206.6479"
           style="font-size:12px;font-style:normal;font-variant:normal;font-weight:normal;font-stretch:normal;text-align:start;line-height:125%;writing-mode:lr-tb;text-anchor:start;fill:#000000;fill-opacity:1;stroke:none;stroke-linejoin:miter;stroke-opacity:1;font-family:Bitstream Vera Sans Mono" /></flowRegion><flowPara
         id="flowPara14648">-&gt;+&gt;+++&gt;&gt;+&gt;++&gt;+&gt;+++&gt;&gt;+&gt;++&gt;&gt;&gt;+&gt;+&gt;+&gt;++&gt;+&gt;&gt;&gt;&gt;+++&gt;+&gt;&gt;++</flowPara><flowPara
         id="flowPara14650">&gt;+&gt;+++&gt;&gt;++&gt;++&gt;&gt;+&gt;&gt;+&gt;++&gt;++&gt;+&gt;&gt;&gt;&gt;+++&gt;+&gt;&gt;&gt;&gt;++&gt;++&gt;&gt;&gt;&gt;+&gt;</flowPara><flowPara
         id="flowPara14652">&gt;++&gt;+&gt;+++&gt;&gt;&gt;++&gt;&gt;++++++&gt;&gt;+&gt;&gt;++&gt;+&gt;&gt;&gt;&gt;+++&gt;&gt;+++++&gt;&gt;+&gt;+++&gt;&gt;&gt;++&gt;&gt;++&gt;&gt;+&gt;&gt;++&gt;+&gt;+++&gt;&gt;&gt;++&gt;&gt;+++++++++++++&gt;&gt;+&gt;&gt;++&gt;+&gt;+++&gt;+&gt;+++&gt;&gt;&gt;++&gt;&gt;++++&gt;&gt;+&gt;&gt;++&gt;+&gt;&gt;&gt;&gt;+++&gt;&gt;+++++&gt;&gt;&gt;&gt;++</flowPara><flowPara
         id="flowPara14654">&gt;&gt;&gt;&gt;+&gt;+&gt;++&gt;&gt;+++&gt;+&gt;&gt;&gt;&gt;+++&gt;+&gt;&gt;&gt;&gt;+++&gt;+&gt;&gt;&gt;&gt;+++&gt;&gt;++&gt;++&gt;+</flowPara><flowPara
         id="flowPara14656">&gt;+++&gt;+&gt;++&gt;++&gt;&gt;&gt;&gt;&gt;&gt;++&gt;+&gt;+++&gt;&gt;&gt;&gt;&gt;+++&gt;&gt;&gt;++&gt;+&gt;+++&gt;+&gt;+&gt;++&gt;&gt;&gt;&gt;&gt;&gt;++&gt;&gt;&gt;+&gt;&gt;&gt;++&gt;+&gt;&gt;&gt;&gt;+++&gt;+&gt;&gt;&gt;+&gt;&gt;++&gt;+&gt;++++++++++++++++++&gt;&gt;&gt;&gt;+&gt;+&gt;&gt;&gt;+&gt;&gt;++&gt;+&gt;+++&gt;&gt;&gt;++&gt;&gt;++++++++&gt;&gt;+&gt;&gt;++&gt;+&gt;&gt;&gt;&gt;+++&gt;&gt;++++++&gt;&gt;&gt;+&gt;++&gt;&gt;+++&gt;+&gt;+&gt;++&gt;+&gt;+++&gt;&gt;&gt;&gt;&gt;+++&gt;&gt;</flowPara><flowPara
         id="flowPara14658">&gt;+&gt;+&gt;&gt;++&gt;+&gt;+++&gt;&gt;&gt;++&gt;&gt;++++++++&gt;&gt;+&gt;&gt;++&gt;+&gt;&gt;&gt;&gt;+++&gt;&gt;++++</flowPara><flowPara
         id="flowPara14660">&gt;&gt;+&gt;+++&gt;&gt;&gt;&gt;&gt;&gt;++&gt;+&gt;+++&gt;&gt;+&gt;++&gt;&gt;&gt;&gt;+&gt;+&gt;++&gt;+&gt;&gt;&gt;&gt;+++&gt;&gt;+++</flowPara><flowPara
         id="flowPara14662">&gt;&gt;&gt;+[[-&gt;&gt;+&lt;&lt;]&lt;+]+++++[-&gt;+++++++++&lt;]&gt;.[+]&gt;&gt;[&lt;&lt;+++++++[-&gt;+++++++++&lt;]&gt;-.-------------------&gt;-[-&lt;.&lt;+&gt;&gt;]&lt;[+</flowPara><flowPara
         id="flowPara14664">]&lt;+&gt;&gt;&gt;]&lt;&lt;&lt;[-[-[-[&gt;&gt;+&lt;++++++[-&gt;+++++&lt;]]&gt;++++++++++++++&lt;]&gt;+++&lt;]++++++[-&gt;+++++++&lt;]&gt;+&lt;&lt;&lt;-[-&gt;&gt;&gt;++&lt;&lt;&lt;]&gt;[-&gt;&gt;.&lt;&lt;]&lt;&lt;]</flowPara></flowRoot>  </g>
</svg>
