<?xml version="1.0" encoding="UTF-8" standalone="no"?>
<!-- Created with Inkscape (http://www.inkscape.org/) -->
<svg
   xmlns:dc="http://purl.org/dc/elements/1.1/"
   xmlns:cc="http://web.resource.org/cc/"
   xmlns:rdf="http://www.w3.org/1999/02/22-rdf-syntax-ns#"
   xmlns:svg="http://www.w3.org/2000/svg"
   xmlns="http://www.w3.org/2000/svg"
   xmlns:sodipodi="http://sodipodi.sourceforge.net/DTD/sodipodi-0.dtd"
   xmlns:inkscape="http://www.inkscape.org/namespaces/inkscape"
   width="744.09448819"
   height="1052.3622047"
   id="svg16687"
   sodipodi:version="0.32"
   inkscape:version="0.45.1"
   sodipodi:docbase="/Users/paul/Desktop/16languages"
   sodipodi:docname="fp_stamp.svg"
   inkscape:output_extension="org.inkscape.output.svg.inkscape">
  <defs
     id="defs16689" />
  <sodipodi:namedview
     id="base"
     pagecolor="#ffffff"
     bordercolor="#666666"
     borderopacity="1.0"
     gridtolerance="10000"
     guidetolerance="10"
     objecttolerance="10"
     inkscape:pageopacity="0.0"
     inkscape:pageshadow="2"
     inkscape:zoom="1.979899"
     inkscape:cx="285.29439"
     inkscape:cy="960.12037"
     inkscape:document-units="px"
     inkscape:current-layer="layer1"
     inkscape:window-width="886"
     inkscape:window-height="691"
     inkscape:window-x="18"
     inkscape:window-y="45" />
  <metadata
     id="metadata16692">
    <rdf:RDF>
      <cc:Work
         rdf:about="">
        <dc:format>image/svg+xml</dc:format>
        <dc:type
           rdf:resource="http://purl.org/dc/dcmitype/StillImage" />
      </cc:Work>
    </rdf:RDF>
  </metadata>
  <g
     inkscape:label="Layer 1"
     inkscape:groupmode="layer"
     id="layer1">
    <path
       sodipodi:type="arc"
       style="fill:#e6e6e6;fill-opacity:1;stroke:none;stroke-opacity:1"
       id="path16695"
       sodipodi:cx="302.54068"
       sodipodi:cy="564.4585"
       sodipodi:rx="178.29193"
       sodipodi:ry="128.28937"
       d="M 480.83261 564.4585 A 178.29193 128.28937 0 1 1  124.24875,564.4585 A 178.29193 128.28937 0 1 1  480.83261 564.4585 z" />
    <path
       style="font-size:231.0254364px;font-style:normal;font-variant:normal;font-weight:bold;font-stretch:normal;text-align:center;line-height:125%;writing-mode:lr-tb;text-anchor:middle;fill:#000000;fill-opacity:1;stroke:none;stroke-width:1px;stroke-linecap:butt;stroke-linejoin:miter;stroke-opacity:1;font-family:Bradley Hand ITC TT"
       d="M 304.49756,506.58663 C 304.49743,509.51306 302.26419,511.05323 297.79783,511.20714 L 293.63937,513.05534 L 289.48091,512.13124 L 283.47425,515.36559 C 280.08577,513.67151 277.6215,512.82442 276.08144,512.82431 C 275.92731,512.82442 275.23424,512.97844 274.00221,513.28637 C 272.92399,513.44049 271.92288,513.5175 270.99888,513.51739 C 269.76664,513.5175 268.84254,513.44049 268.22657,513.28637 L 263.14401,514.90354 L 261.98888,514.67252 L 261.52683,514.90354 L 248.82043,515.13457 L 247.43428,517.44482 L 241.65865,515.59662 L 239.34839,516.75175 L 233.80378,517.2138 L 230.3384,516.52072 C 228.95219,516.67484 227.56604,516.90587 226.17994,517.2138 C 224.94775,517.36792 224.25468,517.44493 224.10071,517.44482 L 221.09738,517.90687 L 219.71123,518.83098 L 221.09738,522.98943 L 222.94558,527.84097 L 222.02148,531.53738 L 224.33174,533.38558 L 222.48353,536.15788 C 222.79152,537.3901 222.94553,538.39121 222.94558,539.16121 C 222.94553,540.54745 222.56049,542.24163 221.79046,544.24377 L 221.09738,551.86761 L 224.79379,552.09864 L 232.1866,550.25044 L 235.42096,552.09864 C 235.88295,552.09871 236.49901,552.09871 237.26916,552.09864 C 237.88516,552.25272 238.27021,552.32973 238.42429,552.32966 L 239.11737,552.32966 L 240.50352,550.94351 L 247.66531,549.78838 L 252.74787,551.63659 C 255.21205,551.02059 256.98325,550.63555 258.06145,550.48146 L 265.68529,550.48146 L 270.07477,549.55736 L 272.61605,550.94351 L 276.08144,550.48146 C 277.31347,550.32751 278.23757,550.2505 278.85374,550.25044 L 292.25322,548.63326 L 293.87039,549.32633 C 294.33232,549.17239 294.87138,549.09538 295.48757,549.09531 C 296.56557,549.09538 297.87471,549.40341 299.415,550.01941 C 301.4171,552.79178 302.41821,555.25605 302.41834,557.41222 C 302.41821,558.18237 302.3412,558.79844 302.18731,559.26043 L 297.79783,559.9535 L 293.87039,562.03273 L 290.40501,562.03273 L 288.55681,563.64991 L 282.0881,563.18786 L 276.31246,564.80504 L 269.61272,565.96017 L 268.22657,565.72914 L 267.76452,566.19119 L 258.98555,565.26709 L 255.98222,566.42222 L 251.82376,565.96017 C 249.51343,567.03834 246.66412,567.57739 243.27582,567.57734 L 241.19659,567.57734 C 240.42644,567.73141 238.80927,568.19346 236.34506,568.9635 C 233.11064,567.11534 231.49347,566.19124 231.49353,566.19119 C 231.49347,566.19124 231.03142,566.57629 230.10737,567.34632 C 229.18321,568.11645 228.1051,568.65551 226.87302,568.9635 L 222.48353,568.50145 L 219.71123,568.50145 C 219.40315,570.04166 218.9411,574.66217 218.32508,582.36297 C 218.9411,584.21121 219.24913,585.82839 219.24918,587.21451 L 216.93892,592.99014 L 218.32508,595.76245 L 216.47687,599.45885 L 217.16995,602.92424 L 216.01482,605.00346 C 214.01256,615.47662 212.62641,622.17635 211.85636,625.10268 C 210.62419,629.72317 209.23804,632.41847 207.69791,633.18857 L 202.61535,630.64729 L 196.37766,630.64729 L 197.99484,623.4855 L 197.99484,620.25114 L 199.38099,618.86499 L 199.84304,615.86166 L 200.07407,614.70653 L 199.61202,614.47551 L 199.61202,611.7032 L 197.53279,609.39295 L 197.99484,608.00679 C 197.99481,604.77245 198.61088,601.92314 199.84304,599.45885 L 198.91894,598.53475 L 199.38099,595.76245 L 198.68791,592.52809 L 200.07407,588.83168 L 199.61202,580.51477 L 201.22919,572.42888 L 200.07407,569.65657 L 200.07407,568.50145 L 196.37766,569.8876 L 191.06407,567.11529 L 188.75382,567.57734 C 187.21364,567.88543 186.28954,568.03945 185.98152,568.03939 C 181.66903,568.03945 179.5128,565.49817 179.5128,560.41555 C 179.5128,553.94691 182.74715,550.71255 189.21587,550.71249 C 192.45021,550.71255 194.76046,550.78956 196.14663,550.94351 L 202.61535,551.63659 L 202.1533,549.78838 L 202.38432,542.39557 L 200.99817,541.93352 L 201.92227,527.84097 L 199.61202,521.60328 L 199.38099,519.52405 L 197.76381,518.59995 L 190.371,522.75841 L 186.67459,517.67585 C 183.90227,516.44382 182.51612,514.05656 182.51613,510.51406 C 183.44022,509.12802 183.90227,508.0499 183.90229,507.2797 L 183.90229,501.96612 L 190.371,502.42817 C 193.60533,500.11803 196.53165,498.96291 199.14997,498.96279 C 198.99592,498.96291 201.22917,499.27094 205.8497,499.88689 C 208.62197,499.57898 213.70453,499.19393 221.09738,498.73176 L 229.4143,499.88689 L 235.65198,499.65587 L 236.57609,498.96279 C 237.65414,498.34684 238.80927,498.03881 240.04147,498.03869 C 241.11952,498.03881 241.96661,498.19282 242.58275,498.50074 L 243.50685,498.73176 C 244.89293,498.57787 246.97216,498.34684 249.74454,498.03869 C 252.51676,497.57676 254.59599,497.26872 255.98222,497.11459 L 256.21325,497.80766 L 257.5994,498.96279 L 258.5235,498.96279 C 259.2935,498.96291 260.37162,498.8859 261.75786,498.73176 C 263.14392,498.42385 264.14503,498.26983 264.76119,498.26971 L 265.45427,498.26971 L 271.69195,499.19381 L 278.39169,499.88689 C 280.70184,499.42496 282.85807,499.19393 284.8604,499.19381 C 286.40046,499.19393 287.86362,499.42496 289.24989,499.88689 L 293.17732,499.88689 C 294.56335,499.42496 296.10352,499.19393 297.79783,499.19381 C 302.26419,499.19393 304.49743,501.6582 304.49756,506.58663 M 433.56859,538.23711 L 431.25834,545.3989 L 427.09988,549.09531 L 427.09988,552.09864 C 425.86762,552.40674 424.32745,552.9458 422.47937,553.71582 L 421.7863,553.94684 C 421.01609,555.94913 419.78396,557.02724 418.08989,557.1812 C 416.24157,559.18348 412.93021,560.72365 408.15579,561.80171 C 405.84543,564.42005 403.38117,565.8062 400.76298,565.96017 L 397.52862,567.57734 L 392.90812,567.57734 L 390.36684,569.19452 L 389.21171,569.42555 C 388.59555,570.04166 387.67145,570.58072 386.4394,571.04272 L 383.89812,572.89093 L 378.58454,572.89093 L 375.81223,575.20118 L 365.87814,577.28041 C 364.79996,577.28045 362.95176,577.43447 360.33353,577.74246 L 355.482,581.43887 C 354.09579,580.82284 352.70964,580.51481 351.32354,580.51477 L 349.93738,580.51477 L 348.32021,581.43887 L 345.31688,582.13195 L 343.23765,583.5181 L 341.62047,583.98015 L 343.93072,587.90758 L 342.54457,593.68322 L 344.6238,601.30706 L 344.39277,606.62064 L 345.31688,608.69987 C 348.55118,609.16193 350.16836,611.24116 350.16841,614.93756 C 350.16836,618.47995 347.31905,621.17524 341.62047,623.02345 L 335.15176,625.10268 L 327.98997,616.55474 L 324.98664,607.08269 L 324.98664,598.30373 L 321.75228,592.52809 L 324.06254,589.98681 L 323.36946,587.21451 L 323.60048,585.3663 C 319.44201,585.0583 316.36167,584.67326 314.35947,584.21117 L 306.5046,573.12195 L 323.83151,571.96683 L 323.83151,569.65657 L 324.98664,566.88427 L 325.91074,557.1812 L 327.06587,555.79505 L 326.83484,547.01608 L 327.52792,543.31967 L 327.98997,530.8443 L 330.53125,525.53071 L 330.9933,525.06866 L 330.76227,524.37559 C 331.37831,522.37346 332.61044,520.83329 334.45868,519.75508 L 339.54124,519.52405 L 341.15842,519.52405 C 347.7811,519.52415 351.09246,521.98842 351.09251,526.91687 C 351.09246,528.91918 350.01434,531.69148 347.85816,535.23378 L 347.85816,536.38891 C 347.85811,538.69924 348.93623,541.0865 351.09251,543.5507 L 347.62713,544.4748 L 347.3961,550.25044 L 344.6238,552.56069 L 345.5479,555.79505 L 343.6997,559.26043 L 344.6238,563.64991 L 343.6997,565.72914 L 343.93072,567.80837 L 345.5479,566.88427 L 350.16841,566.88427 C 352.3246,565.19013 354.86587,564.26603 357.79225,564.11196 L 361.02661,561.33966 C 362.10466,562.41783 363.10577,563.11091 364.02994,563.41889 C 365.72406,562.64886 368.65038,561.41672 372.8089,559.72248 L 375.81223,559.26043 L 379.50864,556.95017 L 381.35684,556.95017 L 381.58787,556.48812 L 383.20505,556.48812 C 386.2853,556.48818 389.0576,555.41007 391.52196,553.25377 L 396.60452,553.71582 L 396.83555,552.56069 L 400.0699,551.17454 L 401.68708,549.09531 C 402.30305,549.2494 403.07313,549.3264 403.99734,549.32633 L 406.07657,545.3989 C 406.84654,544.78291 407.46261,544.47487 407.92477,544.4748 C 408.38671,544.47487 408.69475,544.78291 408.84887,545.3989 C 409.31081,544.62889 410.38893,543.93582 412.08323,543.31967 L 412.31425,542.16455 L 413.93143,541.00942 L 414.16246,539.16121 L 413.00733,536.15788 L 411.15913,534.07866 L 409.31092,533.6166 L 404.92144,529.9202 L 396.3735,526.68584 C 392.52298,524.37568 388.98059,522.60449 385.74633,521.37226 L 382.04992,523.45149 L 375.58121,519.52405 L 370.26762,519.9861 L 366.80224,517.90687 L 363.10583,517.90687 L 359.87148,516.05867 C 359.7174,516.05877 359.40937,516.05877 358.94738,516.05867 C 358.48527,516.21279 358.10023,516.2898 357.79225,516.2897 C 355.94399,516.2898 354.01878,515.67373 352.01661,514.44149 L 346.472,513.74842 L 342.31355,514.21047 L 337.92406,512.82431 L 333.07253,513.97944 L 332.37945,513.51739 L 328.91407,515.36559 L 326.14176,513.74842 L 326.14176,514.90354 L 320.59715,514.90354 L 316.4387,517.2138 L 311.58716,517.90687 L 305.34948,520.91021 L 301.19102,515.13457 C 299.34282,512.51639 298.41871,509.43605 298.41871,505.89355 L 300.95999,503.12125 C 301.57606,500.50308 303.27024,498.8859 306.04255,498.26971 C 308.81485,497.49975 311.66416,496.72966 314.59049,495.95946 C 315.20655,495.95958 315.82261,495.95958 316.4387,495.95946 C 317.05475,496.1136 317.36278,496.19061 317.3628,496.19048 L 318.97998,496.42151 L 318.2869,497.11459 L 323.13843,495.72843 L 323.83151,496.19048 C 324.29354,496.03659 324.98661,495.95958 325.91074,495.95946 C 327.29687,495.95958 328.76002,496.34462 330.30022,497.11459 L 339.54124,497.11459 L 346.472,497.57664 L 359.1784,499.42484 L 362.64378,501.96612 L 365.87814,501.04202 L 371.8848,502.6592 L 378.81556,502.89022 L 379.73967,504.04535 L 384.5912,504.04535 L 389.90479,507.2797 L 394.98734,507.74176 L 396.14247,509.35893 C 398.91468,509.35904 401.68698,510.36015 404.45939,512.36226 L 409.0799,511.43816 L 410.9281,516.05867 L 413.46938,517.90687 L 417.39681,517.90687 L 420.40014,522.29636 L 429.17911,527.37892 L 429.17911,530.8443 L 433.56859,538.23711"
       id="text18671" />
    <text
       xml:space="preserve"
       style="font-size:8px;font-style:normal;font-weight:normal;text-align:center;text-anchor:middle;fill:#000000;fill-opacity:1;stroke:none;stroke-width:1px;stroke-linecap:butt;stroke-linejoin:miter;stroke-opacity:1;font-family:Bitstream Vera Sans"
       x="169.28571"
       y="431.64789"
       id="text18767"><tspan
         sodipodi:role="line"
         id="tspan18769"
         x="170.55914"
         y="431.64789">function-level programming  function-level programming  function-level programming  function-level programming  function-level programming  function-level programming  function-level programming  function-level programming  function-level programming  function-level programming  function-level programming  function-level programming  </tspan></text>
    <path
       sodipodi:type="star"
       style="fill:#ececec;fill-opacity:1;stroke:none;stroke-opacity:1"
       id="path29904"
       sodipodi:sides="3"
       sodipodi:cx="267.14285"
       sodipodi:cy="122.36218"
       sodipodi:r1="150.50426"
       sodipodi:r2="75.252129"
       sodipodi:arg1="0.52359878"
       sodipodi:arg2="1.5707963"
       inkscape:flatsided="true"
       inkscape:rounded="0"
       inkscape:randomized="0"
       d="M 397.48336,197.61431 L 136.80234,197.61431 L 267.14285,-28.142075 L 397.48336,197.61431 z "
       transform="matrix(1.3733481,0,0,1.3733481,-99.594415,-32.350354)" />
    <path
       style="fill:#800000;fill-opacity:1;stroke:none;stroke-opacity:1"
       d="M 99.90625,232.3125 C 211.5,232.3125 323.09375,232.3125 434.6875,232.3125 C 378.89583,135.66667 323.10417,39.020833 267.3125,-57.625 C 211.51042,39.020833 155.70833,135.66667 99.90625,232.3125 z "
       id="path32833" />
    <text
       xml:space="preserve"
       style="font-size:144px;font-style:normal;font-variant:normal;font-weight:normal;font-stretch:normal;text-align:center;line-height:125%;writing-mode:lr-tb;text-anchor:middle;fill:#000000;fill-opacity:1;stroke:none;stroke-width:1px;stroke-linecap:butt;stroke-linejoin:miter;stroke-opacity:1;font-family:Academy Engraved LET"
       x="265.21149"
       y="227.6479"
       id="text30875"
       sodipodi:linespacing="125%"><tspan
         sodipodi:role="line"
         id="tspan30877"
         x="265.21149"
         y="227.6479">FP</tspan></text>
    <rect
       style="fill:#800000;fill-opacity:1;stroke:#000000;stroke-width:2.0999999;stroke-miterlimit:4;stroke-dasharray:none;stroke-opacity:1"
       id="rect32847"
       width="22.583616"
       height="16.893408"
       x="240.47107"
       y="45.076466"
       rx="12.142857"
       ry="12.142859" />
    <rect
       ry="12.142859"
       rx="12.142857"
       y="45.076466"
       x="274.08817"
       height="16.893408"
       width="22.583616"
       id="rect32851"
       style="fill:#800000;fill-opacity:1;stroke:#000000;stroke-width:2.0999999;stroke-miterlimit:4;stroke-dasharray:none;stroke-opacity:1" />
    <path
       style="fill:#000000;fill-opacity:1;fill-rule:nonzero;stroke:none;stroke-width:1px;stroke-linecap:butt;stroke-linejoin:miter;stroke-opacity:1"
       id="path32859"
       d="M 256.7279,83.321574 C 258.70551,84.090224 260.82325,84.119272 262.91214,84.194926 C 265.09399,83.98897 267.18257,84.59916 269.29996,85.015622 C 270.98344,85.259339 272.68657,85.189233 274.38108,85.166707 C 276.38156,85.14072 278.38224,85.143443 280.38284,85.143221 C 281.24047,85.119907 282.24579,85.202463 283.03536,85.260149 C 283.72719,85.310697 284.0273,87.255407 283.33636,87.193901 L 283.33636,87.193901 C 282.36262,87.107217 281.36809,87.102652 280.38298,87.004974 C 278.39322,87.007948 276.40326,87.00802 274.41396,87.057536 C 272.60183,87.089106 270.7769,87.154569 268.98165,86.851266 C 266.95135,86.447246 264.96382,85.850394 262.87095,86.040166 C 260.55608,85.942546 258.22739,85.852916 256.00099,85.134098 C 255.34262,84.921542 256.08313,83.070969 256.7279,83.321574 z " />
    <path
       style="fill:#000000;fill-opacity:1;fill-rule:nonzero;stroke:none;stroke-width:1px;stroke-linecap:butt;stroke-linejoin:miter;stroke-opacity:1"
       id="path32861"
       d="M 265.96898,63.676158 C 264.90105,65.218653 264.11468,66.709517 263.74617,68.49516 C 264.83931,69.864675 266.63281,69.530994 268.29803,69.53201 C 269.85509,69.556276 271.01538,68.655239 272.29971,67.933251 C 272.76159,67.499341 273.16811,67.010311 273.60231,66.548841 C 273.10169,66.120691 272.63941,65.678764 272.14995,65.236477 C 271.64354,64.778888 273.03295,63.451482 273.5452,63.902543 L 273.5452,63.902543 C 274.03791,64.336387 274.52506,64.779389 275.02923,65.209275 C 275.5229,67.36979 275.27943,68.075714 273.33847,69.547971 C 271.79157,70.53576 270.23953,71.36284 268.34777,71.361724 C 265.45349,71.349068 262.88243,71.559907 261.88531,68.383984 C 262.32142,66.501024 262.78398,64.767215 264.04838,63.197263 C 264.4867,62.653001 266.3667,63.101706 265.96898,63.676158 z " />
    <path
       style="fill:#000000;fill-opacity:1;fill-rule:nonzero;stroke:none;stroke-width:1px;stroke-linecap:butt;stroke-linejoin:miter;stroke-opacity:1"
       id="path33844"
       d="M 277.83232,104.39312 C 280.17184,104.43957 281.2147,103.15362 282.73382,101.84553 C 284.0837,100.22221 284.73435,98.266864 285.44869,96.333768 C 286.31802,94.324603 286.91735,92.207492 287.59143,90.117909 C 287.78256,87.749657 288.2928,85.562152 288.97359,83.297514 C 289.53322,81.375787 289.97551,79.428923 290.40595,77.486616 C 291.4935,75.161791 291.50562,72.647597 291.58949,70.140062 C 292.26199,67.912605 292.73217,65.705983 292.9646,63.393091 C 293.10798,61.020186 292.98128,62.642894 292.66568,60.329258 C 292.60206,59.862809 293.88649,59.504833 293.94827,59.971532 L 293.94827,59.971532 C 294.27631,62.449923 294.44314,60.956074 294.2858,63.485867 C 294.04796,65.770692 293.6808,67.988744 292.89154,70.161248 C 292.7974,72.803051 292.79663,75.46539 291.66766,77.921316 C 291.26568,79.853523 290.81073,81.802985 290.24691,83.714222 C 289.52042,85.953165 289.09054,88.110991 288.85667,90.46125 C 288.17059,92.642283 287.55265,94.842044 286.64858,96.93591 C 285.91361,98.896612 285.24617,100.9058 283.85996,102.55185 C 282.15633,104.42211 280.54717,105.65096 277.83232,105.75981 C 277.34951,105.77917 277.34922,104.38353 277.83232,104.39312 z "
       sodipodi:nodetypes="ccccccccscccccccccsc" />
    <path
       style="fill:none;fill-rule:evenodd;stroke:#000000;stroke-width:1px;stroke-linecap:butt;stroke-linejoin:miter;stroke-opacity:1"
       d="M 237,28.076467 C 238.9418,25.850649 243.52032,17.362182 252.71429,17.362182 C 260.49232,17.362182 270.16673,14.302691 276.28571,17.362182 C 278.73903,18.588841 263.66842,14.505039 256.28571,14.505039 C 230.288,14.505039 233.89517,32.216243 241.28571,22.362182 C 248.01216,13.393585 262.60634,11.647896 272.71429,11.647896 C 280.1329,11.647896 286.2227,19.426271 286.28571,19.505039 C 289.38073,23.373807 278.57424,13.149303 274.14286,10.93361 C 263.99867,5.861518 250.35804,9.447536 241.28571,13.076467 C 214.06761,23.963708 253.97037,13.076467 257,13.076467 C 267.23078,13.076467 280.45056,5.691868 285.57143,15.93361 C 291.67421,28.13917 290.58444,23.08948 284.14286,16.647896 C 277.66695,10.171993 263.77691,11.446329 255.57143,13.790753 C 248.72428,15.747081 234.83675,21.586714 237,28.076467 C 237.62088,29.939097 230.80952,27.600277 231.28571,29.505039 C 231.49119,30.326928 243.27812,20.745665 257.71429,15.93361 C 270.12753,11.795861 279.88626,11.088114 288.42857,14.505039 C 295.91133,17.498142 299.14286,25.666605 299.14286,28.790753 C 299.14286,34.012589 292.38484,20.411743 287.71429,18.076467 C 279.70393,14.071291 272.16613,14.142918 264.14286,10.93361 C 254.57842,7.107836 241.73684,16.262566 236.28571,23.076467 C 233.56457,26.477899 236.39445,28.303549 231.28571,30.219324 C 229.66272,30.827948 230.33333,33.552658 229.85714,35.219324"
       id="path33846" />
  </g>
</svg>
