<?xml version="1.0" encoding="UTF-8" standalone="no"?>
<!-- Created with Inkscape (http://www.inkscape.org/) -->
<svg
   xmlns:dc="http://purl.org/dc/elements/1.1/"
   xmlns:cc="http://web.resource.org/cc/"
   xmlns:rdf="http://www.w3.org/1999/02/22-rdf-syntax-ns#"
   xmlns:svg="http://www.w3.org/2000/svg"
   xmlns="http://www.w3.org/2000/svg"
   xmlns:sodipodi="http://sodipodi.sourceforge.net/DTD/sodipodi-0.dtd"
   xmlns:inkscape="http://www.inkscape.org/namespaces/inkscape"
   width="744.09448819"
   height="1052.3622047"
   id="svg16687"
   sodipodi:version="0.32"
   inkscape:version="0.45.1"
   sodipodi:docbase="/Users/paul/Desktop/16languages"
   sodipodi:docname="fp_stamp.svg"
   inkscape:output_extension="org.inkscape.output.svg.inkscape">
  <defs
     id="defs16689" />
  <sodipodi:namedview
     id="base"
     pagecolor="#ffffff"
     bordercolor="#666666"
     borderopacity="1.0"
     gridtolerance="10000"
     guidetolerance="10"
     objecttolerance="10"
     inkscape:pageopacity="0.0"
     inkscape:pageshadow="2"
     inkscape:zoom="0.9899495"
     inkscape:cx="285.29439"
     inkscape:cy="953.03579"
     inkscape:document-units="px"
     inkscape:current-layer="layer1"
     inkscape:window-width="886"
     inkscape:window-height="691"
     inkscape:window-x="18"
     inkscape:window-y="45" />
  <metadata
     id="metadata16692">
    <rdf:RDF>
      <cc:Work
         rdf:about="">
        <dc:format>image/svg+xml</dc:format>
        <dc:type
           rdf:resource="http://purl.org/dc/dcmitype/StillImage" />
      </cc:Work>
    </rdf:RDF>
  </metadata>
  <g
     inkscape:label="Layer 1"
     inkscape:groupmode="layer"
     id="layer1">
    <path
       sodipodi:type="star"
       style="fill:#ececec;fill-opacity:1;stroke:none;stroke-opacity:1"
       id="path29904"
       sodipodi:sides="3"
       sodipodi:cx="267.14285"
       sodipodi:cy="122.36218"
       sodipodi:r1="150.50426"
       sodipodi:r2="75.252129"
       sodipodi:arg1="0.52359878"
       sodipodi:arg2="1.5707963"
       inkscape:flatsided="true"
       inkscape:rounded="0"
       inkscape:randomized="0"
       d="M 397.48336,197.61431 L 136.80234,197.61431 L 267.14285,-28.142075 L 397.48336,197.61431 z "
       transform="matrix(1.3733481,0,0,1.3733481,-151.11219,54.522764)" />
    <path
       style="fill:#800000;fill-opacity:1;stroke:none;stroke-opacity:1"
       d="M 48.388471,319.18562 C 159.98222,319.18562 271.57597,319.18562 383.16972,319.18562 C 327.37805,222.53979 271.58639,125.89395 215.79472,29.248118 C 159.99264,125.89395 104.19055,222.53979 48.388471,319.18562 z "
       id="path32833" />
    <text
       xml:space="preserve"
       style="font-size:144px;font-style:normal;font-variant:normal;font-weight:normal;font-stretch:normal;text-align:center;line-height:125%;writing-mode:lr-tb;text-anchor:middle;fill:#000000;fill-opacity:1;stroke:none;stroke-width:1px;stroke-linecap:butt;stroke-linejoin:miter;stroke-opacity:1;font-family:Academy Engraved LET"
       x="213.69371"
       y="314.52103"
       id="text30875"
       sodipodi:linespacing="125%"><tspan
         sodipodi:role="line"
         id="tspan30877"
         x="213.69371"
         y="314.52103">FP</tspan></text>
    <rect
       style="fill:#800000;fill-opacity:1;stroke:#000000;stroke-width:2.0999999;stroke-miterlimit:4;stroke-dasharray:none;stroke-opacity:1"
       id="rect32847"
       width="22.583616"
       height="16.893408"
       x="188.95329"
       y="131.94958"
       rx="12.142857"
       ry="12.142859" />
    <rect
       ry="12.142859"
       rx="12.142857"
       y="131.94958"
       x="222.57039"
       height="16.893408"
       width="22.583616"
       id="rect32851"
       style="fill:#800000;fill-opacity:1;stroke:#000000;stroke-width:2.0999999;stroke-miterlimit:4;stroke-dasharray:none;stroke-opacity:1" />
    <path
       style="fill:#000000;fill-opacity:1;fill-rule:nonzero;stroke:none;stroke-width:1px;stroke-linecap:butt;stroke-linejoin:miter;stroke-opacity:1"
       id="path32859"
       d="M 205.21012,170.19469 C 207.18773,170.96334 209.30547,170.99239 211.39436,171.06804 C 213.57621,170.86209 215.66479,171.47228 217.78218,171.88874 C 219.46566,172.13246 221.16879,172.06235 222.8633,172.03983 C 224.86378,172.01384 226.86446,172.01656 228.86506,172.01634 C 229.72269,171.99303 230.72801,172.07558 231.51758,172.13327 C 232.20941,172.18382 232.50952,174.12853 231.81858,174.06702 L 231.81858,174.06702 C 230.84484,173.98034 229.85031,173.97577 228.8652,173.87809 C 226.87544,173.88107 224.88548,173.88114 222.89618,173.93065 C 221.08405,173.96222 219.25912,174.02769 217.46387,173.72438 C 215.43357,173.32036 213.44604,172.72351 211.35317,172.91328 C 209.0383,172.81566 206.70961,172.72603 204.48321,172.00722 C 203.82484,171.79466 204.56535,169.94409 205.21012,170.19469 z " />
    <path
       style="fill:#000000;fill-opacity:1;fill-rule:nonzero;stroke:none;stroke-width:1px;stroke-linecap:butt;stroke-linejoin:miter;stroke-opacity:1"
       id="path32861"
       d="M 214.4512,150.54928 C 213.38327,152.09177 212.5969,153.58264 212.22839,155.36828 C 213.32153,156.73779 215.11503,156.40411 216.78025,156.40513 C 218.33731,156.42939 219.4976,155.52836 220.78193,154.80637 C 221.24381,154.37246 221.65033,153.88343 222.08453,153.42196 C 221.58391,152.99381 221.12163,152.55188 220.63217,152.1096 C 220.12576,151.65201 221.51517,150.3246 222.02742,150.77566 L 222.02742,150.77566 C 222.52013,151.20951 223.00728,151.65251 223.51145,152.08239 C 224.00512,154.24291 223.76165,154.94883 221.82069,156.42109 C 220.27379,157.40888 218.72175,158.23596 216.82999,158.23484 C 213.93571,158.22219 211.36465,158.43303 210.36753,155.2571 C 210.80364,153.37414 211.2662,151.64033 212.5306,150.07038 C 212.96892,149.52612 214.84892,149.97482 214.4512,150.54928 z " />
    <path
       style="fill:#000000;fill-opacity:1;fill-rule:nonzero;stroke:none;stroke-width:1px;stroke-linecap:butt;stroke-linejoin:miter;stroke-opacity:1"
       id="path33844"
       d="M 226.31454,191.26624 C 228.65406,191.31269 229.69692,190.02674 231.21604,188.71865 C 232.56592,187.09533 233.21657,185.13998 233.93091,183.20689 C 234.80024,181.19772 235.39957,179.08061 236.07365,176.99103 C 236.26478,174.62278 236.77502,172.43527 237.45581,170.17063 C 238.01544,168.24891 238.45773,166.30204 238.88817,164.35973 C 239.97572,162.03491 239.98784,159.52072 240.07171,157.01318 C 240.74421,154.78572 241.21439,152.5791 241.44682,150.26621 C 241.5902,147.8933 241.4635,149.51601 241.1479,147.20238 C 241.08428,146.73593 242.36871,146.37795 242.43049,146.84465 L 242.43049,146.84465 C 242.75853,149.32304 242.92536,147.82919 242.76802,150.35899 C 242.53018,152.64381 242.16302,154.86186 241.37376,157.03437 C 241.27962,159.67617 241.27885,162.33851 240.14988,164.79443 C 239.7479,166.72664 239.29295,168.6761 238.72913,170.58734 C 238.00264,172.82628 237.57276,174.98411 237.33889,177.33437 C 236.65281,179.5154 236.03487,181.71516 235.1308,183.80903 C 234.39583,185.76973 233.72839,187.77892 232.34218,189.42497 C 230.63855,191.29523 229.02939,192.52408 226.31454,192.63293 C 225.83173,192.65229 225.83144,191.25665 226.31454,191.26624 z "
       sodipodi:nodetypes="ccccccccscccccccccsc" />
    <path
       style="fill:none;fill-rule:evenodd;stroke:#000000;stroke-width:1px;stroke-linecap:butt;stroke-linejoin:miter;stroke-opacity:1"
       d="M 185.48222,114.94959 C 187.42402,112.72377 192.00254,104.2353 201.19651,104.2353 C 208.97454,104.2353 218.64895,101.17581 224.76793,104.2353 C 227.22125,105.46196 212.15064,101.37816 204.76793,101.37816 C 178.77022,101.37816 182.37739,119.08936 189.76793,109.2353 C 196.49438,100.2667 211.08856,98.521014 221.19651,98.521014 C 228.61512,98.521014 234.70492,106.29939 234.76793,106.37816 C 237.86295,110.24693 227.05646,100.02242 222.62508,97.806728 C 212.48089,92.734636 198.84026,96.320654 189.76793,99.949585 C 162.54983,110.83683 202.45259,99.949585 205.48222,99.949585 C 215.713,99.949585 228.93278,92.564986 234.05365,102.80673 C 240.15643,115.01229 239.06666,109.9626 232.62508,103.52101 C 226.14917,97.045111 212.25913,98.319447 204.05365,100.66387 C 197.2065,102.6202 183.31897,108.45983 185.48222,114.94959 C 186.1031,116.81222 179.29174,114.4734 179.76793,116.37816 C 179.97341,117.20005 191.76034,107.61878 206.19651,102.80673 C 218.60975,98.668979 228.36848,97.961232 236.91079,101.37816 C 244.39355,104.37126 247.62508,112.53972 247.62508,115.66387 C 247.62508,120.88571 240.86706,107.28486 236.19651,104.94959 C 228.18615,100.94441 220.64835,101.01604 212.62508,97.806728 C 203.06064,93.980954 190.21906,103.13568 184.76793,109.94959 C 182.04679,113.35102 184.87667,115.17667 179.76793,117.09244 C 178.14494,117.70107 178.81555,120.42578 178.33936,122.09244"
       id="path33846" />
  </g>
</svg>
