<?xml version="1.0" encoding="UTF-8" standalone="no"?>
<!-- Created with Inkscape (http://www.inkscape.org/) -->
<svg
   xmlns:dc="http://purl.org/dc/elements/1.1/"
   xmlns:cc="http://web.resource.org/cc/"
   xmlns:rdf="http://www.w3.org/1999/02/22-rdf-syntax-ns#"
   xmlns:svg="http://www.w3.org/2000/svg"
   xmlns="http://www.w3.org/2000/svg"
   xmlns:sodipodi="http://sodipodi.sourceforge.net/DTD/sodipodi-0.dtd"
   xmlns:inkscape="http://www.inkscape.org/namespaces/inkscape"
   width="140.04018"
   height="223.81799"
   id="svg30905"
   sodipodi:version="0.32"
   inkscape:version="0.45.1"
   sodipodi:docbase="/Users/paul/Desktop/16languages"
   sodipodi:docname="lazy_k_stamp.svg"
   inkscape:output_extension="org.inkscape.output.svg.inkscape"
   version="1.0"
   inkscape:export-filename="/Users/paul/Desktop/16languages/lazy_k_stamp.png"
   inkscape:export-xdpi="55"
   inkscape:export-ydpi="55">
  <sodipodi:namedview
     id="base"
     pagecolor="#ffffff"
     bordercolor="#666666"
     borderopacity="1.0"
     gridtolerance="10000"
     guidetolerance="10"
     objecttolerance="10"
     inkscape:pageopacity="0.0"
     inkscape:pageshadow="2"
     inkscape:zoom="0.98994949"
     inkscape:cx="123.17676"
     inkscape:cy="45.237502"
     inkscape:document-units="px"
     inkscape:current-layer="layer1"
     inkscape:window-width="697"
     inkscape:window-height="581"
     inkscape:window-x="420"
     inkscape:window-y="121" />
  <defs
     id="defs30907">
    <clipPath
       clipPathUnits="userSpaceOnUse"
       id="clipPath37942">
      <rect
         y="152.71933"
         x="204.28572"
         id="rect37944"
         width="73.928574"
         height="90.714287"
         style="fill:none;fill-opacity:1;stroke:#281801;stroke-width:2;stroke-miterlimit:4;stroke-dasharray:none;stroke-opacity:1" />
    </clipPath>
    <clipPath
       clipPathUnits="userSpaceOnUse"
       id="clipPath37946">
      <rect
         y="131.64789"
         x="277.85715"
         height="66.785713"
         width="55.357143"
         id="rect37948"
         style="fill:#403025;fill-opacity:1;stroke:#281c12;stroke-width:2;stroke-miterlimit:4;stroke-dasharray:none;stroke-opacity:1" />
    </clipPath>
  </defs>
  <metadata
     id="metadata30910">
    <rdf:RDF>
      <cc:Work
         rdf:about="">
        <dc:format>image/svg+xml</dc:format>
        <dc:type
           rdf:resource="http://purl.org/dc/dcmitype/StillImage" />
      </cc:Work>
    </rdf:RDF>
  </metadata>
  <g
     id="layer1"
     inkscape:label="Layer 1"
     inkscape:groupmode="layer"
     transform="translate(-199.24107,-89.447332)">
    <path
       style="fill:#cccccc;fill-opacity:1;stroke:#cccccc;stroke-width:2;stroke-miterlimit:4;stroke-dasharray:none;stroke-opacity:1"
       d="M 234.8125,90.46875 C 223.56862,91.100295 211.53361,93.625336 200.24107,93.816964 C 200.24107,105.53306 200.28125,116.95618 200.28125,130.28125 C 200.28125,186.11458 200.28125,241.94792 200.28125,297.78125 C 223.28125,297.78125 242.70982,297.78125 265.70982,297.78125 C 268.99553,318.49553 279.4241,315.63839 283.06696,297.78125 C 294.56696,297.78125 326.78125,297.78125 338.28125,297.78125 C 338.28125,230.27083 338.28125,162.76042 338.28125,95.25 C 323.30135,94.230845 310.65544,103.17563 298.625,110.71875 C 289.97132,116.23266 281.34209,108.19899 273.53125,105.03125 C 266.35046,103.41731 259.87261,100.47069 253.71875,96.40625 C 247.96802,93.090157 241.61874,90.167436 234.8125,90.46875 z "
       id="path35993"
       sodipodi:nodetypes="cccccccccccc" />
    <path
       d="M 235.71875,94.5 C 225.25845,94.5 216.48775,98.062498 206.4375,98.0625 C 205.74867,98.0625 205.01281,98.161511 204.28125,98.28125 L 204.28125,293.78125 L 334.28125,293.78125 L 334.28125,99.4375 C 328.84937,99.879898 323.6522,100.87703 319.28125,103.0625 C 315.46241,104.97192 297.96162,116.65625 294.28125,116.65625 C 280.84492,116.65625 278.34215,109.57265 269.28125,108.0625 C 257.92923,106.17049 248.31119,94.500004 235.71875,94.5 z "
       id="rect30921"
       style="fill:#d38d5f;fill-opacity:1;stroke:#000000;stroke-width:2;stroke-miterlimit:4;stroke-dasharray:none;stroke-opacity:1" />
    <path
       d="M 319.28125,122.71875 C 312.77723,123.29667 307.24203,127.58212 301.71875,130.75 C 296.78266,135.25564 290.27085,137.1273 283.71875,137.53125 C 275.45917,140.41315 274.67108,127.81893 266.53125,131.375 C 258.82407,134.01242 249.86735,133.64482 242.875,129.21875 C 236.60147,125.60608 229.16526,128.68473 224.40625,133.375 C 218.66408,136.85948 212.30302,139.36802 207.96875,144.8125 C 206.72758,145.63264 205.50435,146.47246 204.28125,147.3125 L 204.28125,293.78125 L 334.28125,293.78125 L 334.28125,127.09375 C 328.92212,127.12206 324.75916,123.01459 319.28125,122.71875 z "
       id="path34892"
       style="fill:#d38d5f;fill-opacity:1;stroke:#000000;stroke-width:2;stroke-miterlimit:4;stroke-dasharray:none;stroke-opacity:1" />
    <path
       id="path34915"
       d="M 317.08561,185 L 317.08561,171.06562 L 322.27102,163.06083 L 328.85891,159.58742 L 334.22967,159.85901 L 337.65658,161.21895 L 338.78813,163.1336 L 338.9319,164.36672 L 338.352,165.18289 L 338.9319,164.36672 L 339.41709,164.99326 L 338.9319,164.36672 L 338.78813,163.1336 L 340.27148,163.80765 L 341.20199,164.74114 L 341.48954,165.61967 L 341.38728,166.43247 L 340.95525,167.03857 L 341.38728,166.43247 L 341.48954,165.61967 L 342.04805,166.0951 L 341.48954,165.61967 L 341.20199,164.74114 L 342.01743,164.8924 L 341.20199,164.74114 L 340.27148,163.80765 L 341.14665,163.84042 L 340.27148,163.80765 L 338.78813,163.1336 L 337.65658,161.21895 L 340.49977,160.50392 L 342.78281,161.19169 L 343.92205,162.11078 L 344.11054,162.94436 L 343.98764,163.62414 L 344.11054,162.94436 L 343.92205,162.11078 L 345.05523,162.1853 L 345.83535,162.62205 L 346.64474,162.62132 L 345.83535,162.62205 L 345.05523,162.1853 L 345.76249,161.79046 L 345.05523,162.1853 L 343.92205,162.11078 L 342.78281,161.19169 L 344.74101,161.09087 L 345.88582,161.56759 L 344.74101,161.09087 L 346.17646,160.3187 L 347.06865,160.35094 L 346.17646,160.3187 L 346.66282,159.64889 L 346.17646,160.3187 L 344.74101,161.09087 L 342.78281,161.19169 L 340.49977,160.50392 L 341.47636,159.24457 L 342.44103,158.66357 L 342.72283,157.98397 L 342.44103,158.66357 L 341.47636,159.24457 L 341.65262,158.38173 L 342.07721,157.81323 L 341.65262,158.38173 L 341.47636,159.24457 L 340.49977,160.50392 L 337.65658,161.21895 L 334.22967,159.85901 L 338.09645,158.62633 L 341.41492,159.29691 L 343.12216,160.59195 L 343.46286,161.9928 L 342.95467,163.03985 L 342.03901,163.55776 L 341.69328,164.35015 L 342.03901,163.55776 L 342.95467,163.03985 L 343.46286,161.9928 L 344.06506,162.63533 L 343.46286,161.9928 L 343.12216,160.59195 L 344.44922,160.82243 L 345.14625,161.20947 L 344.44922,160.82243 L 345.59023,160.50388 L 346.30763,159.81786 L 345.59023,160.50388 L 344.44922,160.82243 L 343.12216,160.59195 L 341.41492,159.29691 L 344.22744,158.40586 L 346.13335,158.84452 L 347.17074,159.57351 L 347.40431,160.41843 L 347.87529,161.03277 L 347.40431,160.41843 L 347.17074,159.57351 L 346.13335,158.84452 L 347.49797,158.32502 L 348.7133,158.33075 L 349.54145,158.61444 L 350.3067,158.51893 L 349.54145,158.61444 L 348.7133,158.33075 L 349.62563,157.9343 L 350.39201,157.94981 L 349.62563,157.9343 L 348.7133,158.33075 L 347.49797,158.32502 L 348.16544,157.62402 L 348.9503,157.36377 L 348.16544,157.62402 L 347.49797,158.32502 L 346.13335,158.84452 L 344.22744,158.40586 L 345.56817,157.39092 L 347.05075,157.30245 L 348.12873,157.59761 L 347.05075,157.30245 L 347.76453,156.71947 L 347.05075,157.30245 L 345.56817,157.39092 L 346.0052,156.56607 L 345.56817,157.39092 L 344.22744,158.40586 L 341.41492,159.29691 L 338.09645,158.62633 L 340.32412,156.44962 L 342.29811,155.79961 L 343.84167,156.2414 L 344.72456,156.93108 L 345.64995,157.2051 L 346.48138,157.10043 L 345.64995,157.2051 L 344.72456,156.93108 L 343.84167,156.2414 L 344.73155,155.95035 L 345.3305,155.48927 L 344.73155,155.95035 L 343.84167,156.2414 L 342.29811,155.79961 L 343.48128,154.54041 L 344.63841,154.21846 L 345.47177,154.41122 L 346.08132,154.83171 L 345.47177,154.41122 L 344.63841,154.21846 L 345.10108,153.61922 L 344.63841,154.21846 L 343.48128,154.54041 L 343.59588,153.61093 L 343.48128,154.54041 L 342.29811,155.79961 L 340.32412,156.44962 L 340.63509,153.98247 L 342.34169,152.35759 L 344.13381,151.85994 L 345.23471,152.26757 L 346.29757,152.24977 L 345.23471,152.26757 L 344.13381,151.85994 L 345.29016,150.90368 L 346.33257,150.8031 L 345.29016,150.90368 L 345.75294,149.73738 L 346.76585,149.19793 L 347.63416,149.25802 L 346.76585,149.19793 L 345.75294,149.73738 L 345.29016,150.90368 L 344.13381,151.85994 L 342.34169,152.35759 L 342.72977,150.73605 L 343.52066,149.63356 L 344.37659,149.29183 L 343.52066,149.63356 L 343.64856,148.57964 L 344.22953,147.92869 L 343.64856,148.57964 L 343.14687,147.85004 L 343.64856,148.57964 L 343.52066,149.63356 L 342.72977,150.73605 L 342.35549,149.76333 L 342.72977,150.73605 L 342.34169,152.35759 L 340.63509,153.98247 L 340.05918,152.50874 L 340.33032,151.12763 L 340.88688,150.52601 L 340.33032,151.12763 L 340.0825,149.95167 L 340.42975,149.17017 L 340.0825,149.95167 L 339.45818,149.18601 L 339.43876,148.37269 L 339.45818,149.18601 L 338.66978,148.876 L 339.45818,149.18601 L 340.0825,149.95167 L 340.33032,151.12763 L 340.05918,152.50874 L 339.09568,151.47079 L 339.08337,150.6777 L 339.09568,151.47079 L 337.90332,151.15485 L 337.12164,150.5425 L 337.90332,151.15485 L 339.09568,151.47079 L 340.05918,152.50874 L 340.63509,153.98247 L 340.32412,156.44962 L 338.09645,158.62633 L 334.22967,159.85901 L 328.85891,159.58742 L 331.6629,154.59186 L 335.11064,151.92405 L 337.56262,151.65121 L 339.39508,152.14063 L 340.37653,152.88556 L 340.59284,153.75305 L 341.05915,154.3059 L 340.59284,153.75305 L 340.37653,152.88556 L 341.47421,153.02764 L 342.32815,153.44128 L 341.47421,153.02764 L 340.37653,152.88556 L 339.39508,152.14063 L 340.91267,152.00165 L 341.97558,152.36097 L 342.50592,152.86286 L 341.97558,152.36097 L 342.72531,152.14443 L 341.97558,152.36097 L 340.91267,152.00165 L 341.88926,151.38635 L 342.17147,150.72813 L 341.88926,151.38635 L 340.91267,152.00165 L 339.39508,152.14063 L 337.56262,151.65121 L 339.42899,150.74068 L 340.50017,150.85801 L 339.42899,150.74068 L 340.40422,149.44752 L 341.28587,149.13437 L 340.40422,149.44752 L 340.31783,148.23743 L 340.80783,147.25004 L 341.56403,146.8367 L 340.80783,147.25004 L 340.82239,146.42968 L 340.53107,145.76693 L 340.82239,146.42968 L 340.80783,147.25004 L 340.31783,148.23743 L 339.73021,147.63839 L 339.70556,146.94508 L 339.73021,147.63839 L 340.31783,148.23743 L 340.40422,149.44752 L 339.42899,150.74068 L 337.56262,151.65121 L 335.11064,151.92405 L 336.21515,148.47001 L 338.51613,146.41167 L 341.28974,145.6277 L 342.7826,145.75351 L 343.80515,146.4489 L 344.24055,147.16093 L 344.15547,147.86442 L 344.24055,147.16093 L 343.80515,146.4489 L 344.75372,146.526 L 345.43126,146.95977 L 344.75372,146.526 L 343.80515,146.4489 L 342.7826,145.75351 L 343.56323,145.3951 L 342.7826,145.75351 L 341.28974,145.6277 L 342.53576,143.98645 L 344.17059,143.44449 L 345.43776,143.78681 L 346.11183,144.53524 L 346.18592,145.26634 L 346.11183,144.53524 L 345.43776,143.78681 L 346.31462,143.5557 L 345.43776,143.78681 L 344.17059,143.44449 L 344.92546,142.63621 L 345.80408,142.35566 L 344.92546,142.63621 L 345.20687,141.85636 L 345.12642,141.17024 L 345.20687,141.85636 L 344.92546,142.63621 L 344.17059,143.44449 L 342.53576,143.98645 L 342.53447,142.92748 L 342.53576,143.98645 L 341.28974,145.6277 L 338.51613,146.41167 L 339.04231,144.54283 L 340.07028,143.61242 L 340.95695,143.41849 L 341.73391,143.64225 L 340.95695,143.41849 L 340.07028,143.61242 L 340.37706,142.92482 L 340.07028,143.61242 L 339.04231,144.54283 L 338.66592,143.5327 L 337.99572,142.95309 L 338.66592,143.5327 L 339.04231,144.54283 L 338.51613,146.41167 L 336.21515,148.47001 L 335.33152,146.58821 L 335.52687,145.31497 L 336.23915,144.55965 L 337.14263,144.34729 L 336.23915,144.55965 L 335.52687,145.31497 L 335.33152,146.58821 L 334.0892,145.60259 L 333.81341,144.57567 L 334.12675,143.93872 L 333.81341,144.57567 L 333.26669,144.07159 L 333.81341,144.57567 L 334.0892,145.60259 L 332.92568,145.39124 L 331.96409,145.67424 L 331.19331,145.44356 L 331.96409,145.67424 L 332.92568,145.39124 L 334.0892,145.60259 L 335.33152,146.58821 L 336.21515,148.47001 L 335.11064,151.92405 L 331.6629,154.59186 L 331.23582,151.07137 L 331.83622,149.17211 L 332.99108,148.36879 L 333.88109,148.39736 L 332.99108,148.36879 L 333.44362,147.26954 L 334.32102,146.65734 L 335.18044,146.60908 L 334.32102,146.65734 L 333.44362,147.26954 L 333.21295,146.57309 L 333.44362,147.26954 L 332.99108,148.36879 L 331.83622,149.17211 L 331.47975,147.86332 L 331.95864,146.96686 L 332.69426,146.57738 L 331.95864,146.96686 L 331.77525,146.14662 L 331.95864,146.96686 L 331.47975,147.86332 L 330.6013,147.00899 L 330.4857,146.00067 L 330.75597,145.27128 L 330.4857,146.00067 L 329.89952,145.341 L 330.4857,146.00067 L 330.6013,147.00899 L 331.47975,147.86332 L 331.83622,149.17211 L 331.23582,151.07137 L 329.42249,149.19446 L 328.80986,147.29568 L 329.31736,145.78297 L 330.27221,145.1381 L 329.31736,145.78297 L 329.26013,144.99393 L 329.31736,145.78297 L 328.80986,147.29568 L 327.88593,146.26281 L 327.56879,145.14399 L 327.82475,144.37907 L 327.56879,145.14399 L 327.88593,146.26281 L 328.80986,147.29568 L 329.42249,149.19446 L 327.29949,148.35351 L 326.03496,147.01003 L 325.96025,146.02173 L 326.39124,145.29991 L 325.96025,146.02173 L 326.03496,147.01003 L 325.07835,146.77985 L 326.03496,147.01003 L 327.29949,148.35351 L 325.74421,148.48453 L 324.86635,147.98187 L 325.74421,148.48453 L 324.94314,148.85851 L 325.74421,148.48453 L 327.29949,148.35351 L 329.42249,149.19446 L 331.23582,151.07137 L 331.6629,154.59186 L 328.85891,159.58742 L 322.27102,163.06083 L 322.53463,157.9627 L 323.86372,155.1554 L 325.86037,153.47337 L 328.0692,152.85309 L 329.9187,153.53262 L 330.82105,154.75216 L 330.98687,155.71502 L 330.8054,156.44237 L 330.98687,155.71502 L 331.43939,156.39421 L 330.98687,155.71502 L 330.82105,154.75216 L 331.84359,155.2828 L 332.35707,156.04183 L 332.30901,156.80609 L 332.35707,156.04183 L 331.84359,155.2828 L 330.82105,154.75216 L 329.9187,153.53262 L 331.58826,153.2415 L 332.39503,153.58351 L 331.58826,153.2415 L 332.57032,152.25448 L 333.46202,152.04132 L 334.2363,152.15709 L 333.46202,152.04132 L 334.08099,151.56333 L 333.46202,152.04132 L 332.57032,152.25448 L 332.75504,151.5198 L 332.57032,152.25448 L 331.58826,153.2415 L 329.9187,153.53262 L 328.0692,152.85309 L 329.35027,151.7611 L 330.31612,151.68433 L 329.35027,151.7611 L 329.65547,150.44899 L 330.59077,149.71442 L 331.61444,149.44802 L 330.59077,149.71442 L 329.65547,150.44899 L 329.32087,149.66902 L 328.62267,149.25742 L 329.32087,149.66902 L 329.65547,150.44899 L 329.35027,151.7611 L 328.0692,152.85309 L 325.86037,153.47337 L 326.70104,151.76744 L 327.76048,151.05935 L 328.71005,150.97115 L 327.76048,151.05935 L 328.07887,150.42653 L 327.76048,151.05935 L 326.70104,151.76744 L 326.75037,150.54235 L 327.22211,149.99317 L 326.75037,150.54235 L 326.08407,149.62309 L 326.06076,148.69236 L 326.08407,149.62309 L 326.75037,150.54235 L 326.70104,151.76744 L 325.86037,153.47337 L 323.86372,155.1554 L 323.07917,152.60268 L 323.73625,150.84972 L 325.0267,149.79885 L 326.51967,149.37167 L 327.37633,149.45917 L 327.91052,149.95122 L 327.37633,149.45917 L 326.51967,149.37167 L 327.36529,148.48278 L 328.15438,148.09887 L 327.36529,148.48278 L 326.51967,149.37167 L 325.0267,149.79885 L 325.32585,148.44082 L 325.85445,147.91712 L 325.32585,148.44082 L 325.02723,147.7846 L 325.32585,148.44082 L 325.0267,149.79885 L 323.73625,150.84972 L 323.60094,149.63119 L 324.04404,149.02704 L 323.60094,149.63119 L 323.08521,149.09231 L 323.60094,149.63119 L 323.73625,150.84972 L 323.07917,152.60268 L 321.83791,151.78643 L 321.54304,150.9527 L 320.89183,150.562 L 321.54304,150.9527 L 321.83791,151.78643 L 320.9668,151.56279 L 320.40701,151.04509 L 320.9668,151.56279 L 321.83791,151.78643 L 323.07917,152.60268 L 323.86372,155.1554 L 322.53463,157.9627 L 320.60169,155.08025 L 320.85792,152.63535 L 321.99749,150.95073 L 323.14977,150.16166 L 324.19565,150.00094 L 324.80085,149.58019 L 324.19565,150.00094 L 323.14977,150.16166 L 323.42352,149.32445 L 323.14977,150.16166 L 321.99749,150.95073 L 322.25998,149.7181 L 322.97511,149.15075 L 323.77187,148.89176 L 322.97511,149.15075 L 322.25998,149.7181 L 321.92256,148.78726 L 321.31105,148.15993 L 320.61698,147.85263 L 321.31105,148.15993 L 321.92256,148.78726 L 322.25998,149.7181 L 321.99749,150.95073 L 320.85792,152.63535 L 320.13598,151.54417 L 320.2478,150.79121 L 320.13598,151.54417 L 319.07606,151.0206 L 318.62798,150.34015 L 319.07606,151.0206 L 318.22071,151.10934 L 319.07606,151.0206 L 320.13598,151.54417 L 320.85792,152.63535 L 320.60169,155.08025 L 318.14754,153.50185 L 316.96132,151.68921 L 316.75909,150.45867 L 317.10335,149.46196 L 316.96589,148.54318 L 317.10335,149.46196 L 316.75909,150.45867 L 316.0627,149.53461 L 315.89821,148.61791 L 315.4301,147.98116 L 315.89821,148.61791 L 316.0627,149.53461 L 315.21249,149.00424 L 314.44643,148.89906 L 315.21249,149.00424 L 316.0627,149.53461 L 316.75909,150.45867 L 316.96132,151.68921 L 315.17694,150.75077 L 314.42849,149.93341 L 314.23445,149.03537 L 314.40863,148.27124 L 314.23445,149.03537 L 314.42849,149.93341 L 313.54825,149.77656 L 314.42849,149.93341 L 315.17694,150.75077 L 313.88186,150.6295 L 312.99326,149.97235 L 313.88186,150.6295 L 313.13687,150.845 L 313.88186,150.6295 L 315.17694,150.75077 L 316.96132,151.68921 L 318.14754,153.50185 L 315.51566,153.54473 L 314.15698,152.66767 L 313.50625,151.74693 L 313.52269,150.80096 L 313.96764,150.13449 L 313.52269,150.80096 L 313.11992,150.09181 L 313.52269,150.80096 L 313.50625,151.74693 L 312.77781,151.30158 L 313.50625,151.74693 L 314.15698,152.66767 L 313.18449,152.52303 L 312.49989,152.17566 L 313.18449,152.52303 L 312.3451,152.77786 L 313.18449,152.52303 L 314.15698,152.66767 L 315.51566,153.54473 L 314.31119,154.33398 L 313.09097,154.41378 L 312.27665,155.04415 L 311.54458,155.27706 L 312.27665,155.04415 L 312.08826,155.77173 L 312.27665,155.04415 L 313.09097,154.41378 L 314.31119,154.33398 L 313.70451,155.18298 L 314.31119,154.33398 L 315.51566,153.54473 L 318.14754,153.50185 L 320.60169,155.08025 L 322.53463,157.9627 L 322.27102,163.06083 L 317.08561,171.06562 L 310.11972,163.37793 L 309.63119,157.48873 L 311.72821,153.65862 L 314.33571,151.71242 L 316.41339,151.44809 L 317.64333,151.76451 L 318.32787,152.5112 L 317.64333,151.76451 L 318.49921,151.6252 L 317.64333,151.76451 L 316.41339,151.44809 L 317.81509,150.3981 L 318.96703,150.3597 L 317.81509,150.3981 L 318.34626,149.52224 L 318.99575,149.14027 L 318.34626,149.52224 L 318.25909,148.6576 L 318.34626,149.52224 L 317.81509,150.3981 L 316.41339,151.44809 L 314.33571,151.71242 L 315.33633,149.6915 L 316.99418,148.91321 L 318.09557,149.074 L 318.85372,149.65888 L 319.0901,150.30854 L 318.85372,149.65888 L 319.69668,149.81982 L 318.85372,149.65888 L 318.09557,149.074 L 318.91745,148.89006 L 318.09557,149.074 L 316.99418,148.91321 L 317.95064,147.79542 L 319.08381,147.45686 L 319.78021,146.75568 L 320.03966,145.96078 L 320.66937,145.57058 L 320.03966,145.96078 L 319.78021,146.75568 L 319.08381,147.45686 L 317.95064,147.79542 L 318.0446,146.74564 L 318.51524,145.95874 L 318.0446,146.74564 L 317.70368,145.94214 L 317.86376,145.22859 L 317.70368,145.94214 L 318.0446,146.74564 L 317.95064,147.79542 L 316.99418,148.91321 L 315.33633,149.6915 L 315.31013,148.46299 L 315.69242,147.72228 L 316.34563,147.28932 L 315.69242,147.72228 L 315.31013,148.46299 L 314.6252,147.60831 L 314.5185,146.90195 L 314.6252,147.60831 L 315.31013,148.46299 L 315.33633,149.6915 L 314.33571,151.71242 L 311.72821,153.65862 L 310.75583,150.07971 L 311.76104,148.19705 L 313.00675,147.18048 L 314.31337,147.07053 L 315.16273,147.4563 L 316.01116,147.48588 L 315.16273,147.4563 L 314.31337,147.07053 L 314.88312,146.59631 L 314.31337,147.07053 L 313.00675,147.18048 L 313.26857,146.12354 L 313.79585,145.62134 L 313.26857,146.12354 L 313.10851,145.38869 L 313.26857,146.12354 L 313.00675,147.18048 L 311.76104,148.19705 L 311.57831,146.74257 L 312.0973,145.6496 L 313.08012,145.1983 L 313.51593,144.49126 L 313.08012,145.1983 L 312.0973,145.6496 L 311.94566,144.95193 L 312.0973,145.6496 L 311.57831,146.74257 L 310.81409,145.91905 L 310.05518,145.54374 L 310.81409,145.91905 L 311.57831,146.74257 L 311.76104,148.19705 L 310.75583,150.07971 L 308.76397,148.07259 L 308.29255,146.01142 L 308.8074,144.52858 L 309.71076,143.72254 L 310.50496,143.58171 L 309.71076,143.72254 L 309.96337,143.05474 L 309.71076,143.72254 L 308.8074,144.52858 L 308.47391,143.64932 L 307.80008,143.15535 L 308.47391,143.64932 L 308.8074,144.52858 L 308.29255,146.01142 L 307.16042,144.42452 L 307.08038,142.88314 L 307.64007,141.85266 L 308.37499,141.5384 L 307.64007,141.85266 L 307.08038,142.88314 L 306.44363,141.95401 L 306.3777,141.21047 L 306.44363,141.95401 L 305.69544,141.68243 L 306.44363,141.95401 L 307.08038,142.88314 L 307.16042,144.42452 L 306.09912,143.91717 L 305.6798,143.07001 L 306.09912,143.91717 L 305.10785,143.84849 L 304.36085,143.4721 L 305.10785,143.84849 L 306.09912,143.91717 L 307.16042,144.42452 L 308.29255,146.01142 L 308.76397,148.07259 L 307.11928,147.57189 L 306.46924,146.65574 L 305.60435,146.36033 L 306.46924,146.65574 L 307.11928,147.57189 L 305.63496,147.63911 L 304.44327,147.11192 L 303.41839,147.22277 L 304.44327,147.11192 L 305.63496,147.63911 L 304.90988,148.14281 L 305.63496,147.63911 L 307.11928,147.57189 L 308.76397,148.07259 L 310.75583,150.07971 L 311.72821,153.65862 L 309.63119,157.48873 L 306.70855,153.09937 L 306.74761,150.46072 L 308.10309,148.84609 L 309.53092,148.29495 L 310.66437,148.42403 L 311.20413,148.9381 L 310.66437,148.42403 L 311.59795,148.1557 L 310.66437,148.42403 L 309.53092,148.29495 L 310.37522,147.43695 L 311.17354,147.32398 L 310.37522,147.43695 L 310.5622,146.74082 L 310.37522,147.43695 L 309.53092,148.29495 L 308.10309,148.84609 L 308.41413,147.11018 L 309.48154,146.15185 L 310.35398,145.8142 L 311.15862,145.97659 L 310.35398,145.8142 L 309.48154,146.15185 L 309.76759,145.41262 L 309.48154,146.15185 L 308.41413,147.11018 L 308.0222,145.78809 L 308.41507,144.69218 L 309.13004,143.89234 L 309.96025,143.47446 L 309.13004,143.89234 L 309.26901,142.99861 L 309.13004,143.89234 L 308.41507,144.69218 L 308.10533,143.76725 L 308.38462,143.06433 L 308.10533,143.76725 L 308.41507,144.69218 L 308.0222,145.78809 L 307.5246,145.25448 L 308.0222,145.78809 L 308.41413,147.11018 L 308.10309,148.84609 L 306.74761,150.46072 L 306.10499,149.19347 L 306.05846,148.42078 L 305.73026,147.78981 L 306.05846,148.42078 L 306.10499,149.19347 L 305.05715,148.58292 L 304.6674,147.96501 L 305.05715,148.58292 L 303.97907,148.36499 L 303.3287,147.89565 L 303.97907,148.36499 L 303.17247,148.64997 L 303.97907,148.36499 L 305.05715,148.58292 L 306.10499,149.19347 L 306.74761,150.46072 L 306.70855,153.09937 L 303.98136,151.83204 L 302.41373,149.88675 L 302.1974,148.48555 L 302.57205,147.59588 L 303.2717,147.22438 L 302.57205,147.59588 L 302.47386,146.85934 L 302.57205,147.59588 L 302.1974,148.48555 L 301.53748,147.43874 L 301.60118,146.51823 L 301.53748,147.43874 L 300.56766,146.81424 L 300.22782,146.01791 L 300.36492,145.29144 L 300.22782,146.01791 L 300.56766,146.81424 L 301.53748,147.43874 L 302.1974,148.48555 L 302.41373,149.88675 L 300.56209,149.30189 L 299.58996,148.10867 L 299.54847,147.16064 L 299.96035,146.56384 L 299.54847,147.16064 L 299.10234,146.60354 L 299.54847,147.16064 L 299.58996,148.10867 L 298.81783,147.74271 L 299.58996,148.10867 L 300.56209,149.30189 L 299.00566,149.41333 L 298.32095,149.01755 L 299.00566,149.41333 L 297.91005,150.16175 L 297.00112,150.39242 L 297.91005,150.16175 L 297.45065,150.95797 L 296.7142,151.26871 L 297.45065,150.95797 L 297.5908,151.66223 L 297.45065,150.95797 L 297.91005,150.16175 L 299.00566,149.41333 L 300.56209,149.30189 L 302.41373,149.88675 L 303.98136,151.83204 L 301.89552,151.88423 L 300.92222,151.44598 L 300.33833,150.76483 L 300.1906,150.08538 L 300.33833,150.76483 L 299.62648,150.45808 L 300.33833,150.76483 L 300.92222,151.44598 L 299.97981,151.57517 L 300.92222,151.44598 L 301.89552,151.88423 L 300.62998,152.48222 L 299.55108,152.42027 L 298.79739,152.86752 L 299.55108,152.42027 L 300.62998,152.48222 L 300.13825,153.39781 L 299.23495,153.80863 L 300.13825,153.39781 L 300.34884,154.20529 L 300.13825,153.39781 L 300.62998,152.48222 L 301.89552,151.88423 L 303.98136,151.83204 L 306.70855,153.09937 L 309.63119,157.48873 L 310.11972,163.37793 L 304.15337,160.86561 L 300.42387,157.40791 L 300.06455,154.9811 L 300.81511,153.28833 L 301.66789,152.75398 L 302.5502,152.62237 L 301.66789,152.75398 L 300.81511,153.28833 L 300.52091,152.20579 L 300.78437,151.49277 L 300.52091,152.20579 L 299.93498,151.66465 L 300.52091,152.20579 L 300.81511,153.28833 L 300.06455,154.9811 L 298.73766,153.73527 L 298.19862,152.43739 L 298.36236,151.37846 L 299.07851,150.71505 L 299.857,150.57122 L 299.07851,150.71505 L 299.16397,150.01962 L 299.07851,150.71505 L 298.36236,151.37846 L 297.91658,150.67201 L 298.36236,151.37846 L 298.19862,152.43739 L 297.24542,151.67047 L 297.04632,150.85736 L 297.26376,150.17509 L 297.04632,150.85736 L 297.24542,151.67047 L 298.19862,152.43739 L 298.73766,153.73527 L 297.52838,153.41715 L 296.72531,153.63079 L 297.52838,153.41715 L 298.73766,153.73527 L 300.06455,154.9811 L 300.42387,157.40791 L 296.17819,156.0441 L 293.80982,153.69211 L 293.45505,151.02022 L 294.14221,149.77435 L 295.14282,149.18992 L 296.16091,149.09035 L 295.14282,149.18992 L 295.60589,148.38872 L 296.36967,148.01078 L 295.60589,148.38872 L 295.14282,149.18992 L 294.14221,149.77435 L 294.07481,148.54991 L 294.60434,147.59863 L 294.07481,148.54991 L 293.55012,147.6158 L 293.63315,146.76549 L 293.55012,147.6158 L 294.07481,148.54991 L 294.14221,149.77435 L 293.45505,151.02022 L 292.47015,149.50585 L 292.46723,148.57744 L 292.47015,149.50585 L 290.9627,148.89012 L 290.27362,148.23437 L 290.209,147.49896 L 290.27362,148.23437 L 290.9627,148.89012 L 289.59703,148.92846 L 288.84625,148.45192 L 289.59703,148.92846 L 290.9627,148.89012 L 292.47015,149.50585 L 293.45505,151.02022 L 293.80982,153.69211 L 291.23688,152.81871 L 290.03609,151.2127 L 289.88764,150.14276 L 290.33198,149.45205 L 289.88764,150.14276 L 289.29797,149.47468 L 289.88764,150.14276 L 290.03609,151.2127 L 288.50215,150.48952 L 287.57063,149.39065 L 287.4048,148.3797 L 286.95301,147.66803 L 286.88745,146.98637 L 286.95301,147.66803 L 287.4048,148.3797 L 287.57063,149.39065 L 286.40421,148.84387 L 285.86542,147.91424 L 286.40421,148.84387 L 285.28278,148.87831 L 284.51539,148.54681 L 285.28278,148.87831 L 286.40421,148.84387 L 287.57063,149.39065 L 288.50215,150.48952 L 287.22616,150.41111 L 286.52525,150.80063 L 287.22616,150.41111 L 288.50215,150.48952 L 290.03609,151.2127 L 291.23688,152.81871 L 288.76833,152.88898 L 287.26402,152.07509 L 286.73462,150.86985 L 287.05422,149.78244 L 286.89138,149.051 L 287.05422,149.78244 L 286.73462,150.86985 L 285.64924,150.28818 L 285.24769,149.55575 L 285.64924,150.28818 L 284.87194,150.21326 L 285.64924,150.28818 L 286.73462,150.86985 L 287.26402,152.07509 L 285.85884,152.22693 L 284.91928,152.01517 L 285.85884,152.22693 L 285.16931,152.63997 L 285.85884,152.22693 L 287.26402,152.07509 L 288.76833,152.88898 L 287.25334,153.91544 L 285.65981,153.90829 L 284.73099,153.27949 L 284.40727,152.65497 L 284.73099,153.27949 L 283.71392,153.12865 L 284.73099,153.27949 L 285.65981,153.90829 L 284.60715,154.39948 L 285.65981,153.90829 L 287.25334,153.91544 L 286.80893,155.3224 L 286.0839,156.01451 L 285.1748,156.14124 L 286.0839,156.01451 L 286.80893,155.3224 L 287.18837,156.0753 L 286.80893,155.3224 L 287.25334,153.91544 L 288.76833,152.88898 L 291.23688,152.81871 L 293.80982,153.69211 L 296.17819,156.0441 L 292.3186,156.74958 L 289.56469,155.80907 L 288.69404,154.48693 L 288.65051,153.32423 L 288.0413,152.59645 L 287.20849,152.33991 L 288.0413,152.59645 L 288.65051,153.32423 L 288.69404,154.48693 L 287.58542,153.7519 L 286.61176,153.68474 L 287.58542,153.7519 L 288.69404,154.48693 L 289.56469,155.80907 L 287.6944,156.01019 L 286.31159,155.28465 L 285.63171,154.29286 L 285.65746,153.47735 L 286.17638,152.94071 L 285.65746,153.47735 L 285.63171,154.29286 L 284.73796,153.71844 L 283.82997,153.69463 L 284.73796,153.71844 L 285.63171,154.29286 L 286.31159,155.28465 L 285.47872,155.17833 L 286.31159,155.28465 L 287.6944,156.01019 L 286.54407,156.99811 L 285.44435,157.41091 L 284.41241,157.44444 L 285.44435,157.41091 L 286.54407,156.99811 L 286.20539,157.87107 L 285.47055,158.32069 L 285.23677,158.98334 L 285.47055,158.32069 L 286.20539,157.87107 L 286.54407,156.99811 L 287.6944,156.01019 L 289.56469,155.80907 L 292.3186,156.74958 L 289.95583,158.87629 L 287.57847,159.42888 L 285.5889,158.9949 L 284.55225,157.96881 L 284.28516,157.15877 L 284.55225,157.96881 L 283.33109,157.59447 L 282.78533,157.05958 L 283.33109,157.59447 L 282.47265,157.8018 L 283.33109,157.59447 L 284.55225,157.96881 L 285.5889,158.9949 L 283.76513,159.17798 L 282.51587,158.78094 L 281.86298,157.98166 L 281.11715,157.62407 L 281.86298,157.98166 L 282.51587,158.78094 L 281.69264,159.03148 L 282.51587,158.78094 L 283.76513,159.17798 L 282.9002,159.71663 L 282.07809,159.80254 L 282.9002,159.71663 L 282.63626,160.51372 L 282.00644,160.96956 L 282.63626,160.51372 L 282.9002,159.71663 L 283.76513,159.17798 L 285.5889,158.9949 L 287.57847,159.42888 L 286.03022,160.61849 L 284.82663,160.76509 L 283.95611,160.4093 L 283.56501,159.75953 L 283.95611,160.4093 L 284.82663,160.76509 L 283.93948,161.20146 L 283.05792,161.19707 L 283.93948,161.20146 L 284.82663,160.76509 L 286.03022,160.61849 L 285.39067,162.1002 L 284.61142,162.6358 L 285.39067,162.1002 L 285.54906,162.97779 L 285.39067,162.1002 L 286.03022,160.61849 L 287.57847,159.42888 L 289.95583,158.87629 L 289.24122,160.55923 L 288.30825,161.30441 L 287.37236,161.35163 L 288.30825,161.30441 L 287.96938,161.93329 L 288.30825,161.30441 L 289.24122,160.55923 L 289.53062,161.80352 L 289.08443,162.85861 L 288.18242,163.41362 L 287.85843,164.23314 L 287.22081,164.72175 L 287.85843,164.23314 L 287.99687,164.97471 L 287.85843,164.23314 L 288.18242,163.41362 L 289.08443,162.85861 L 289.19799,163.84962 L 289.08443,162.85861 L 289.53062,161.80352 L 290.38934,162.63217 L 291.1487,162.97261 L 290.38934,162.63217 L 289.53062,161.80352 L 289.24122,160.55923 L 289.95583,158.87629 L 292.3186,156.74958 L 296.17819,156.0441 L 300.42387,157.40791 L 304.15337,160.86561 L 299.06347,160.61773 L 295.85275,159.16656 L 294.30435,157.28472 L 294.0627,155.98153 L 294.52169,155.25155 L 294.0627,155.98153 L 293.63453,155.41315 L 294.0627,155.98153 L 294.30435,157.28472 L 292.47317,156.57514 L 291.82463,155.62504 L 291.82831,154.85037 L 291.82463,155.62504 L 292.47317,156.57514 L 291.28808,156.74208 L 292.47317,156.57514 L 294.30435,157.28472 L 295.85275,159.16656 L 292.68176,159.26633 L 291.00579,158.38696 L 290.56698,157.30248 L 289.88019,156.69047 L 289.68743,155.97772 L 289.88019,156.69047 L 290.56698,157.30248 L 291.00579,158.38696 L 289.48461,158.399 L 288.63901,157.78544 L 288.43497,157.08168 L 288.63901,157.78544 L 289.48461,158.399 L 288.40872,159.00137 L 287.61944,159.12355 L 288.40872,159.00137 L 289.48461,158.399 L 291.00579,158.38696 L 292.68176,159.26633 L 290.398,160.64199 L 288.12225,160.64934 L 286.9558,159.87672 L 286.50308,159.07715 L 286.62455,158.3615 L 286.50308,159.07715 L 285.79269,158.64844 L 286.50308,159.07715 L 286.9558,159.87672 L 285.95955,159.81243 L 286.9558,159.87672 L 288.12225,160.64934 L 286.80048,161.58863 L 285.66729,161.71726 L 284.96549,162.09902 L 285.66729,161.71726 L 286.80048,161.58863 L 286.45195,162.80722 L 285.78512,163.29582 L 286.45195,162.80722 L 286.73758,163.748 L 286.45195,162.80722 L 286.80048,161.58863 L 288.12225,160.64934 L 290.398,160.64199 L 289.4854,161.87257 L 288.14414,162.2375 L 287.06949,161.98286 L 286.20968,162.18046 L 287.06949,161.98286 L 288.14414,162.2375 L 287.63208,162.77365 L 288.14414,162.2375 L 289.4854,161.87257 L 289.51978,162.84288 L 289.09961,163.50025 L 289.51978,162.84288 L 289.4854,161.87257 L 290.398,160.64199 L 292.68176,159.26633 L 295.85275,159.16656 L 299.06347,160.61773 L 296.0065,161.82621 L 293.63354,161.92846 L 292.53468,161.38163 L 291.82697,160.63916 L 291.60061,159.9839 L 291.82697,160.63916 L 292.53468,161.38163 L 293.63354,161.92846 L 292.24149,162.8331 L 290.93603,162.96305 L 290.01749,163.57122 L 289.61594,164.15698 L 290.01749,163.57122 L 290.93603,162.96305 L 292.24149,162.8331 L 291.74571,163.64956 L 290.94902,163.96472 L 290.59123,164.57593 L 290.94902,163.96472 L 291.74571,163.64956 L 292.24149,162.8331 L 293.63354,161.92846 L 296.0065,161.82621 L 294.68298,163.75192 L 293.4746,164.12075 L 292.36124,163.87583 L 291.52951,164.06284 L 292.36124,163.87583 L 293.4746,164.12075 L 292.99513,164.66868 L 293.4746,164.12075 L 294.68298,163.75192 L 294.65468,165.43983 L 293.88815,166.69251 L 292.85353,167.45098 L 292.50321,168.10275 L 292.85353,167.45098 L 293.88815,166.69251 L 294.02595,167.50664 L 293.88815,166.69251 L 294.65468,165.43983 L 295.24899,166.71854 L 295.11882,167.59944 L 294.50256,168.11318 L 295.11882,167.59944 L 295.24899,166.71854 L 296.28788,167.53116 L 296.52931,168.3795 L 296.28788,167.53116 L 297.31133,167.80532 L 298.20965,167.56048 L 297.31133,167.80532 L 296.28788,167.53116 L 295.24899,166.71854 L 294.65468,165.43983 L 294.68298,163.75192 L 296.0065,161.82621 L 299.06347,160.61773 L 304.15337,160.86561 L 310.11972,163.37793 L 317.08561,171.06562 L 317.08561,185"
       style="fill:#403025;fill-opacity:1;stroke:#281c12;stroke-width:0.99999976px;stroke-linecap:butt;stroke-linejoin:miter;stroke-opacity:1"
       clip-path="url(#clipPath37946)" />
    <flowRoot
       id="flowRoot30913"
       transform="matrix(1.3649929,0,0,1.1465256,109.91773,-16.179787)"
       xml:space="preserve"><flowRegion
         id="flowRegion30915"><rect
           id="rect30917"
           height="175.71428"
           width="425.71429"
           y="223.79076"
           x="71.428574" /></flowRegion><flowPara
         id="flowPara30919"
         style="font-size:72px;fill:#000000;font-family:Bordeaux Roman Bold LET">Lazy K</flowPara></flowRoot>    <path
       id="path32918"
       clip-path="url(#clipPath37942)"
       transform="translate(0.9285714,0)"
       d="M 228.83608,240.00001 L 228.83608,214.57559 L 236.94738,201.68826 L 246.16093,197.0656 L 253.36946,197.97111 L 256.91294,200.84346 L 258.29491,203.59555 L 258.21411,205.25956 L 257.38727,206.48127 L 257.40036,207.59994 L 257.38727,206.48127 L 258.21411,205.25956 L 258.99999,206.31405 L 259.99222,206.83644 L 258.99999,206.31405 L 258.21411,205.25956 L 258.29491,203.59555 L 260.75205,204.69988 L 262.13622,206.08998 L 262.67441,207.33073 L 262.13622,206.08998 L 263.77947,206.70382 L 264.54854,207.92552 L 263.77947,206.70382 L 262.13622,206.08998 L 260.75205,204.69988 L 262.57369,204.43532 L 263.82347,204.82969 L 264.93108,204.54328 L 263.82347,204.82969 L 262.57369,204.43532 L 260.75205,204.69988 L 258.29491,203.59555 L 256.91294,200.84346 L 260.76626,201.08343 L 263.47067,202.78166 L 264.85927,204.71302 L 265.25957,206.51978 L 266.11877,207.86628 L 265.25957,206.51978 L 264.85927,204.71302 L 266.6577,205.32297 L 264.85927,204.71302 L 263.47067,202.78166 L 265.68136,202.6827 L 267.13885,203.16394 L 268.37796,202.99346 L 267.13885,203.16394 L 265.68136,202.6827 L 267.19732,201.8378 L 267.83242,200.85258 L 267.19732,201.8378 L 265.68136,202.6827 L 263.47067,202.78166 L 260.76626,201.08343 L 263.54352,200.08554 L 265.97479,200.41484 L 267.32942,201.45256 L 268.10452,202.68196 L 268.28667,203.8416 L 268.10452,202.68196 L 267.32942,201.45256 L 268.66498,201.39968 L 269.53193,200.72125 L 268.66498,201.39968 L 267.32942,201.45256 L 265.97479,200.41484 L 267.15626,199.92941 L 265.97479,200.41484 L 263.54352,200.08554 L 265.52268,198.42334 L 267.8085,198.13644 L 269.49693,199.11701 L 270.02714,200.35311 L 269.49693,199.11701 L 267.8085,198.13644 L 269.32057,196.87129 L 270.47356,196.64005 L 269.32057,196.87129 L 269.94708,195.74118 L 269.32057,196.87129 L 267.8085,198.13644 L 265.52268,198.42334 L 266.18486,196.9773 L 265.93634,195.63966 L 265.1176,194.77494 L 265.93634,195.63966 L 266.18486,196.9773 L 265.52268,198.42334 L 263.54352,200.08554 L 260.76626,201.08343 L 256.91294,200.84346 L 253.36946,197.97111 L 258.91889,195.72247 L 262.31521,196.25623 L 264.37545,197.39683 L 265.15534,199.22976 L 265.00434,200.34788 L 265.15534,199.22976 L 266.34724,200.4746 L 266.50833,201.67873 L 266.34724,200.4746 L 267.88238,200.65537 L 268.70158,201.40867 L 267.88238,200.65537 L 266.34724,200.4746 L 265.15534,199.22976 L 264.37545,197.39683 L 266.26218,197.4353 L 267.20419,196.76707 L 266.26218,197.4353 L 264.37545,197.39683 L 262.31521,196.25623 L 264.5884,194.98416 L 266.81035,195.0593 L 268.19427,195.98972 L 269.56147,195.91854 L 270.67269,196.43666 L 269.56147,195.91854 L 268.19427,195.98972 L 266.81035,195.0593 L 267.81645,194.28283 L 266.81035,195.0593 L 264.5884,194.98416 L 265.80513,193.03986 L 267.02249,192.4866 L 268.16431,192.43997 L 267.02249,192.4866 L 265.80513,193.03986 L 265.98642,191.83138 L 265.80513,193.03986 L 264.5884,194.98416 L 262.31521,196.25623 L 258.91889,195.72247 L 261.3844,192.64412 L 263.8709,191.73005 L 265.61672,192.17871 L 266.57684,192.84049 L 265.61672,192.17871 L 267.17065,192.00336 L 268.43715,192.38797 L 267.17065,192.00336 L 265.61672,192.17871 L 263.8709,191.73005 L 265.10006,190.26826 L 266.57717,189.87541 L 267.8998,190.13247 L 266.57717,189.87541 L 265.10006,190.26826 L 265.46219,189.04502 L 265.10006,190.26826 L 263.8709,191.73005 L 261.3844,192.64412 L 261.89508,189.48704 L 262.84303,187.9718 L 261.89508,189.48704 L 261.1542,186.94609 L 261.59248,184.83168 L 262.5621,183.3625 L 262.84583,181.85961 L 262.35189,180.67673 L 261.42802,180.06569 L 262.35189,180.67673 L 262.84583,181.85961 L 262.5621,183.3625 L 261.59248,184.83168 L 260.74434,183.21737 L 260.8199,182.07605 L 260.74434,183.21737 L 261.59248,184.83168 L 261.1542,186.94609 L 259.77938,185.31877 L 259.37094,183.67515 L 259.77938,185.31877 L 258.11084,184.79622 L 257.12488,183.66336 L 258.11084,184.79622 L 257.02222,184.99349 L 258.11084,184.79622 L 259.77938,185.31877 L 261.1542,186.94609 L 261.89508,189.48704 L 261.3844,192.64412 L 258.91889,195.72247 L 253.36946,197.97111 L 246.16093,197.0656 L 250.25893,190.39593 L 254.01575,187.66318 L 257.14403,187.74931 L 259.34949,189.35027 L 260.25846,190.85685 L 261.439,191.57052 L 262.59537,191.55451 L 261.439,191.57052 L 260.25846,190.85685 L 259.34949,189.35027 L 261.65816,189.85266 L 263.13631,191.02184 L 263.73862,192.10284 L 263.13631,191.02184 L 264.57692,191.28445 L 263.13631,191.02184 L 261.65816,189.85266 L 263.68205,189.4331 L 264.93958,189.83512 L 263.68205,189.4331 L 264.62443,188.53454 L 263.68205,189.4331 L 261.65816,189.85266 L 259.34949,189.35027 L 257.14403,187.74931 L 258.78115,186.51787 L 260.26707,186.1474 L 261.44271,186.35454 L 260.26707,186.1474 L 258.78115,186.51787 L 259.66586,184.92781 L 260.8348,184.46129 L 259.66586,184.92781 L 258.78115,186.51787 L 257.14403,187.74931 L 254.01575,187.66318 L 254.84017,185.29573 L 256.45529,183.89855 L 258.14578,183.32016 L 259.65481,183.77375 L 258.14578,183.32016 L 259.02645,182.43208 L 258.14578,183.32016 L 256.45529,183.89855 L 256.8925,182.86631 L 256.45529,183.89855 L 254.84017,185.29573 L 254.48762,184.05666 L 254.93936,183.04059 L 254.48762,184.05666 L 254.84017,185.29573 L 254.01575,187.66318 L 250.25893,190.39593 L 249.65622,183.91244 L 252.28831,179.74361 L 255.90675,178.04007 L 258.08421,178.33026 L 259.05456,178.90728 L 258.08421,178.33026 L 259.1699,177.82998 L 258.08421,178.33026 L 255.90675,178.04007 L 257.41735,175.12155 L 259.59283,173.29301 L 261.8721,172.52164 L 263.07609,172.84671 L 261.8721,172.52164 L 263.1969,171.14593 L 264.43245,170.64564 L 265.18516,169.75155 L 264.43245,170.64564 L 263.1969,171.14593 L 263.4837,170.07649 L 263.1969,171.14593 L 261.8721,172.52164 L 259.59283,173.29301 L 260.02582,170.96541 L 261.01397,169.37287 L 260.99153,167.90444 L 260.23798,166.90598 L 260.99153,167.90444 L 261.01397,169.37287 L 260.02582,170.96541 L 259.61005,169.62778 L 260.02582,170.96541 L 259.59283,173.29301 L 257.41735,175.12155 L 257.33112,172.76279 L 258.29605,170.90574 L 259.46102,170.24407 L 258.29605,170.90574 L 258.23418,169.35666 L 258.85742,168.23849 L 258.23418,169.35666 L 258.29605,170.90574 L 257.33112,172.76279 L 256.3835,171.47813 L 255.4151,170.85776 L 256.3835,171.47813 L 257.33112,172.76279 L 257.41735,175.12155 L 255.90675,178.04007 L 252.28831,179.74361 L 252.85464,175.90059 L 254.66493,173.18244 L 257.0395,171.85619 L 259.12867,171.82217 L 260.01717,172.52947 L 259.12867,171.82217 L 260.23704,171.2468 L 259.12867,171.82217 L 257.0395,171.85619 L 257.70452,170.50741 L 257.82422,169.25917 L 257.70452,170.50741 L 257.0395,171.85619 L 254.66493,173.18244 L 255.29661,170.39987 L 256.39611,169.04774 L 256.63876,167.92265 L 256.39611,169.04774 L 255.29661,170.39987 L 254.91542,168.2973 L 255.76869,166.68086 L 256.64357,165.92287 L 255.76869,166.68086 L 255.81803,165.07988 L 256.37506,164.0301 L 255.81803,165.07988 L 255.32503,164.02322 L 255.81803,165.07988 L 255.76869,166.68086 L 254.91542,168.2973 L 253.92914,167.1941 L 254.91542,168.2973 L 255.29661,170.39987 L 254.66493,173.18244 L 252.85464,175.90059 L 251.75651,173.93667 L 251.56919,172.40892 L 250.68814,171.42653 L 251.56919,172.40892 L 251.75651,173.93667 L 249.98343,173.01611 L 248.65823,173.19694 L 247.61746,173.79059 L 248.65823,173.19694 L 249.98343,173.01611 L 251.75651,173.93667 L 252.85464,175.90059 L 252.28831,179.74361 L 249.65622,183.91244 L 247.20697,179.76904 L 247.13139,175.92336 L 248.50321,173.03929 L 250.52442,171.87722 L 251.6969,171.89682 L 250.52442,171.87722 L 251.55843,170.45455 L 252.96632,170.06169 L 253.7274,169.11922 L 252.96632,170.06169 L 251.55843,170.45455 L 250.52442,171.87722 L 248.50321,173.03929 L 247.9742,170.29331 L 248.3952,168.84823 L 247.9742,170.29331 L 246.87633,169.27463 L 246.49116,168.13149 L 246.87633,169.27463 L 247.9742,170.29331 L 248.50321,173.03929 L 247.13139,175.92336 L 245.33547,173.63231 L 245.08405,172.14021 L 245.33547,173.63231 L 243.13474,172.75381 L 242.30799,171.41387 L 242.08493,170.2669 L 242.30799,171.41387 L 243.13474,172.75381 L 241.54111,173.2018 L 243.13474,172.75381 L 245.33547,173.63231 L 247.13139,175.92336 L 247.20697,179.76904 L 244.53767,178.38738 L 243.35969,176.1463 L 243.72225,173.93242 L 244.87068,172.51256 L 246.11775,171.97726 L 246.75109,171.00472 L 246.11775,171.97726 L 244.87068,172.51256 L 245.23398,171.13264 L 245.09344,169.89537 L 245.42793,168.85391 L 245.09344,169.89537 L 245.23398,171.13264 L 244.87068,172.51256 L 243.72225,173.93242 L 243.32241,172.70751 L 243.72225,173.93242 L 243.35969,176.1463 L 241.59408,175.03307 L 240.95515,173.40463 L 240.9768,172.30345 L 240.95515,173.40463 L 241.59408,175.03307 L 243.35969,176.1463 L 244.53767,178.38738 L 243.02306,178.58414 L 244.53767,178.38738 L 247.20697,179.76904 L 249.65622,183.91244 L 250.25893,190.39593 L 246.16093,197.0656 L 236.94738,201.68826 L 238.39961,192.88491 L 242.1807,186.27134 L 246.85821,183.40327 L 250.5208,182.87142 L 252.25615,183.80177 L 252.77216,184.9294 L 252.25615,183.80177 L 253.47787,183.57827 L 252.25615,183.80177 L 250.5208,182.87142 L 251.86819,181.44796 L 253.4073,180.74771 L 254.55971,180.90532 L 253.4073,180.74771 L 254.1932,179.63178 L 254.26937,178.47625 L 254.1932,179.63178 L 253.4073,180.74771 L 251.86819,181.44796 L 252.07479,179.77299 L 252.72737,178.64187 L 252.07479,179.77299 L 251.86819,181.44796 L 250.5208,182.87142 L 246.85821,183.40327 L 249.04616,180.01849 L 251.69518,178.37651 L 253.4486,178.13162 L 254.91497,178.54149 L 255.57258,179.4934 L 254.91497,178.54149 L 256.10649,178.04581 L 256.79792,177.17596 L 256.10649,178.04581 L 254.91497,178.54149 L 253.4486,178.13162 L 251.69518,178.37651 L 253.05213,176.0071 L 254.40959,174.92351 L 255.92399,174.58724 L 256.97543,173.74264 L 258.11876,173.7053 L 256.97543,173.74264 L 255.92399,174.58724 L 254.40959,174.92351 L 254.69383,173.71359 L 254.40959,174.92351 L 253.05213,176.0071 L 253.08623,174.0514 L 254.16581,172.67082 L 254.31158,171.53633 L 254.16581,172.67082 L 253.08623,174.0514 L 252.45466,172.65932 L 251.53552,171.95772 L 252.45466,172.65932 L 253.08623,174.0514 L 253.05213,176.0071 L 251.69518,178.37651 L 249.04616,180.01849 L 249.65823,176.82947 L 250.61719,175.3622 L 251.69546,174.89721 L 250.61719,175.3622 L 250.59639,173.84471 L 251.27215,172.83638 L 250.59639,173.84471 L 250.61719,175.3622 L 249.65823,176.82947 L 248.7293,174.50103 L 248.72564,172.93143 L 247.98673,171.96371 L 247.70687,170.90649 L 247.98673,171.96371 L 248.72564,172.93143 L 248.7293,174.50103 L 247.43162,173.62503 L 247.06946,172.42537 L 247.43162,173.62503 L 248.7293,174.50103 L 249.65823,176.82947 L 249.04616,180.01849 L 246.85821,183.40327 L 242.1807,186.27134 L 241.90008,182.2442 L 243.76087,179.50552 L 246.44135,178.60069 L 248.42249,178.95334 L 249.57933,180.27312 L 249.61808,181.37617 L 249.57933,180.27312 L 248.42249,178.95334 L 249.59917,178.42831 L 250.14573,177.43663 L 249.59917,178.42831 L 248.42249,178.95334 L 246.44135,178.60069 L 247.46424,177.09856 L 248.78499,176.2518 L 249.4082,175.09543 L 248.78499,176.2518 L 247.46424,177.09856 L 246.44135,178.60069 L 243.76087,179.50552 L 243.87457,177.74845 L 243.34122,176.76698 L 243.87457,177.74845 L 243.76087,179.50552 L 241.90008,182.2442 L 240.51886,179.68727 L 240.83445,178.00841 L 240.51886,179.68727 L 238.34223,178.3409 L 237.47491,176.55326 L 237.68041,175.01939 L 237.47491,176.55326 L 238.34223,178.3409 L 236.74623,178.10492 L 235.75081,177.56178 L 236.74623,178.10492 L 235.52775,178.57792 L 234.8501,179.52606 L 235.52775,178.57792 L 236.74623,178.10492 L 238.34223,178.3409 L 240.51886,179.68727 L 241.90008,182.2442 L 242.1807,186.27134 L 238.39961,192.88491 L 236.17972,187.29285 L 237.21471,183.79812 L 238.80859,182.57526 L 239.24405,181.18215 L 238.80859,182.57526 L 237.21471,183.79812 L 236.75761,181.44815 L 237.69032,179.51956 L 239.20889,178.60899 L 239.80903,177.64085 L 239.20889,178.60899 L 237.69032,179.51956 L 237.40838,177.71264 L 237.99719,176.29644 L 237.40838,177.71264 L 237.69032,179.51956 L 236.75761,181.44815 L 235.94583,180.21897 L 234.90148,179.75891 L 235.94583,180.21897 L 236.75761,181.44815 L 237.21471,183.79812 L 236.17972,187.29285 L 233.39883,185.04467 L 232.29615,182.70889 L 232.60837,181.11481 L 232.31553,179.6858 L 232.60837,181.11481 L 232.29615,182.70889 L 230.77404,181.97185 L 232.29615,182.70889 L 233.39883,185.04467 L 230.25085,184.96563 L 227.75153,183.95661 L 226.82344,182.27309 L 226.97329,180.56845 L 226.55681,179.23721 L 225.60815,178.50168 L 226.55681,179.23721 L 226.97329,180.56845 L 226.82344,182.27309 L 225.35902,181.4153 L 224.79151,180.40741 L 225.35902,181.4153 L 223.98,181.29131 L 225.35902,181.4153 L 226.82344,182.27309 L 227.75153,183.95661 L 226.40066,184.3325 L 225.70615,185.2084 L 226.40066,184.3325 L 227.75153,183.95661 L 230.25085,184.96563 L 228.40407,186.25523 L 227.19603,186.52434 L 228.40407,186.25523 L 227.59963,187.5713 L 226.54415,188.35839 L 227.59963,187.5713 L 228.40407,186.25523 L 230.25085,184.96563 L 233.39883,185.04467 L 236.17972,187.29285 L 238.39961,192.88491 L 236.94738,201.68826 L 228.83608,214.57559 L 221.45145,203.122 L 219.67867,193.70671 L 222.71346,186.72529 L 227.9823,183.8261 L 231.34902,184.42587 L 233.34446,185.86666 L 233.93205,187.08865 L 234.03106,188.27708 L 233.93205,187.08865 L 233.34446,185.86666 L 234.67606,186.06048 L 235.74101,185.71585 L 234.67606,186.06048 L 233.34446,185.86666 L 231.34902,184.42587 L 233.3089,183.95475 L 234.41384,184.47908 L 233.3089,183.95475 L 234.13415,182.99734 L 233.3089,183.95475 L 231.34902,184.42587 L 227.9823,183.8261 L 230.21358,180.9116 L 232.87334,180.20916 L 234.89457,180.60403 L 235.81766,181.28686 L 234.89457,180.60403 L 236.65583,180.30186 L 237.63752,179.29633 L 236.65583,180.30186 L 234.89457,180.60403 L 232.87334,180.20916 L 234.25274,179.00265 L 234.9515,177.69614 L 234.86053,176.45196 L 234.9515,177.69614 L 234.25274,179.00265 L 232.87334,180.20916 L 230.21358,180.9116 L 230.79655,178.95248 L 231.74087,177.69945 L 231.67552,176.3459 L 231.74087,177.69945 L 230.79655,178.95248 L 230.52999,177.31206 L 229.62816,176.30488 L 230.52999,177.31206 L 230.79655,178.95248 L 230.21358,180.9116 L 227.9823,183.8261 L 222.71346,186.72529 L 221.37963,181.67988 L 222.15445,177.83646 L 223.92794,175.34823 L 225.46882,174.56066 L 226.74974,174.77445 L 225.46882,174.56066 L 223.92794,175.34823 L 224.18686,173.16707 L 225.31923,171.95058 L 224.18686,173.16707 L 223.2758,171.44701 L 223.38184,169.84126 L 223.2758,171.44701 L 221.71148,170.73043 L 220.94506,169.69072 L 221.71148,170.73043 L 223.2758,171.44701 L 224.18686,173.16707 L 223.92794,175.34823 L 222.15445,177.83646 L 221.64967,175.33883 L 221.95478,173.75713 L 221.43216,172.71637 L 221.95478,173.75713 L 221.64967,175.33883 L 220.10223,174.03223 L 219.54462,172.76113 L 218.54148,172.12976 L 219.54462,172.76113 L 220.10223,174.03223 L 218.65324,173.54037 L 217.93407,172.6519 L 218.65324,173.54037 L 217.38112,173.88139 L 218.65324,173.54037 L 220.10223,174.03223 L 221.64967,175.33883 L 222.15445,177.83646 L 221.37963,181.67988 L 219.13456,178.62172 L 219.23224,176.18077 L 220.47623,174.64857 L 221.46036,174.11975 L 220.47623,174.64857 L 220.80113,172.97946 L 221.76845,171.82223 L 223.02958,171.51064 L 221.76845,171.82223 L 220.80113,172.97946 L 220.47623,174.64857 L 219.23224,176.18077 L 217.9751,174.48318 L 217.86473,172.74146 L 217.20651,171.73295 L 217.86473,172.74146 L 217.9751,174.48318 L 216.79333,173.721 L 217.9751,174.48318 L 219.23224,176.18077 L 219.13456,178.62172 L 216.98428,177.36019 L 216.13219,176.28375 L 214.93315,176.0204 L 216.13219,176.28375 L 216.98428,177.36019 L 215.71221,177.25782 L 216.98428,177.36019 L 219.13456,178.62172 L 221.37963,181.67988 L 222.71346,186.72529 L 219.67867,193.70671 L 216.74232,189.75772 L 216.55472,187.05399 L 217.27244,185.40043 L 218.36357,184.26064 L 218.50584,183.07472 L 218.36357,184.26064 L 217.27244,185.40043 L 217.2792,184.18642 L 217.27244,185.40043 L 216.55472,187.05399 L 215.52947,185.69311 L 215.46482,184.58394 L 215.52947,185.69311 L 216.55472,187.05399 L 216.74232,189.75772 L 212.70851,188.58131 L 211.36325,186.93977 L 211.30719,185.16914 L 212.02758,183.89363 L 213.00477,183.05791 L 212.02758,183.89363 L 211.30719,185.16914 L 210.50981,184.01514 L 210.21082,182.84631 L 210.50981,184.01514 L 211.30719,185.16914 L 211.36325,186.93977 L 209.96767,186.52957 L 208.81843,186.83962 L 209.96767,186.52957 L 211.36325,186.93977 L 212.70851,188.58131 L 209.46674,189.68574 L 207.31204,189.32987 L 206.07223,187.89489 L 205.66562,186.72475 L 206.07223,187.89489 L 204.57875,187.39381 L 203.38562,187.69172 L 204.57875,187.39381 L 206.07223,187.89489 L 207.31204,189.32987 L 206.18341,189.68116 L 207.31204,189.32987 L 209.46674,189.68574 L 207.88987,191.61551 L 206.14266,192.48101 L 205.03893,192.55093 L 206.14266,192.48101 L 205.25377,193.73079 L 205.00229,195.0622 L 204.16611,195.89542 L 205.00229,195.0622 L 205.25377,193.73079 L 206.14266,192.48101 L 207.88987,191.61551 L 207.69102,193.4593 L 208.31285,194.74162 L 209.28274,195.38178 L 208.31285,194.74162 L 207.69102,193.4593 L 207.88987,191.61551 L 209.46674,189.68574 L 212.70851,188.58131 L 216.74232,189.75772 L 219.67867,193.70671 L 221.45145,203.122 L 213.04674,197.03691 L 208.61768,189.76419 L 208.93048,183.64002 L 211.24124,178.90248 L 213.87741,176.45236 L 216.00884,175.57574 L 218.01615,175.99921 L 219.11869,177.18809 L 218.01615,175.99921 L 219.11249,175.80332 L 218.01615,175.99921 L 216.00884,175.57574 L 216.74986,174.33144 L 217.64823,173.66268 L 216.74986,174.33144 L 216.00884,175.57574 L 213.87741,176.45236 L 214.32162,173.48086 L 215.84435,171.88027 L 217.04161,171.54379 L 215.84435,171.88027 L 216.41651,170.01303 L 217.2663,169.27951 L 216.41651,170.01303 L 216.24154,168.87049 L 216.41651,170.01303 L 215.84435,171.88027 L 214.32162,173.48086 L 213.54499,171.15241 L 213.927,169.70415 L 214.72797,168.66078 L 215.74687,168.10225 L 214.72797,168.66078 L 213.927,169.70415 L 213.54499,171.15241 L 211.98126,170.0159 L 211.39869,168.68363 L 211.62473,167.60152 L 211.39869,168.68363 L 211.98126,170.0159 L 210.44694,170.10526 L 209.23114,169.45665 L 210.44694,170.10526 L 209.28873,170.81165 L 210.44694,170.10526 L 211.98126,170.0159 L 213.54499,171.15241 L 214.32162,173.48086 L 213.87741,176.45236 L 211.24124,178.90248 L 211.12166,175.8597 L 212.30154,173.91228 L 214.17429,173.13138 L 215.37987,173.4425 L 214.17429,173.13138 L 215.01661,172.34154 L 214.17429,173.13138 L 212.30154,173.91228 L 212.32458,172.59377 L 212.8375,171.53079 L 212.32458,172.59377 L 211.72537,171.66403 L 212.32458,172.59377 L 212.30154,173.91228 L 211.12166,175.8597 L 209.41534,173.79036 L 209.30503,172.03145 L 209.92046,171.07297 L 209.30503,172.03145 L 208.62839,171.06016 L 209.30503,172.03145 L 209.41534,173.79036 L 207.39272,173.2255 L 206.28853,172.27562 L 205.12614,171.86914 L 206.28853,172.27562 L 207.39272,173.2255 L 205.7713,173.92448 L 204.34154,173.9514 L 203.48151,174.69513 L 204.34154,173.9514 L 205.7713,173.92448 L 207.39272,173.2255 L 209.41534,173.79036 L 211.12166,175.8597 L 211.24124,178.90248 L 208.93048,183.64002 L 207.33598,179.97467 L 207.35584,177.03076 L 208.83087,174.97088 L 210.83876,173.90515 L 212.58018,173.73848 L 213.78816,174.25771 L 212.58018,173.73848 L 213.82028,172.80978 L 215.09643,172.44751 L 215.72884,171.53769 L 215.09643,172.44751 L 213.82028,172.80978 L 214.35056,171.77871 L 213.82028,172.80978 L 212.58018,173.73848 L 210.83876,173.90515 L 211.59986,172.02508 L 211.54664,170.30582 L 212.0954,169.19636 L 211.54664,170.30582 L 210.90867,169.26441 L 211.54664,170.30582 L 211.59986,172.02508 L 210.83876,173.90515 L 208.83087,174.97088 L 209.25709,172.93597 L 210.37805,171.99325 L 210.9263,170.9188 L 210.37805,171.99325 L 209.25709,172.93597 L 208.92668,171.57322 L 209.25709,172.93597 L 208.83087,174.97088 L 207.35584,177.03076 L 206.41336,174.73062 L 206.82048,172.97459 L 207.68104,172.15038 L 206.82048,172.97459 L 206.41336,174.73062 L 205.22549,173.47371 L 204.91432,172.0621 L 204.19767,170.98333 L 204.91432,172.0621 L 205.22549,173.47371 L 206.41336,174.73062 L 207.35584,177.03076 L 207.33598,179.97467 L 204.88322,177.6326 L 204.4253,175.97245 L 204.8833,174.7948 L 204.4253,175.97245 L 203.3215,174.94531 L 202.85204,173.85249 L 203.3215,174.94531 L 202.1087,174.73662 L 203.3215,174.94531 L 204.4253,175.97245 L 204.88322,177.6326 L 203.09783,176.99922 L 201.9866,177.14409 L 203.09783,176.99922 L 204.88322,177.6326 L 207.33598,179.97467 L 208.93048,183.64002 L 208.61768,189.76419 L 202.63965,185.22454 L 201.22915,181.12488 L 201.91919,178.1608 L 202.91066,176.73763 L 203.14976,175.48457 L 203.78291,174.57888 L 203.14976,175.48457 L 202.91066,176.73763 L 201.91919,178.1608 L 201.25977,176.56641 L 201.64363,175.19004 L 201.25977,176.56641 L 200.21421,175.54475 L 200.03307,174.36217 L 200.21421,175.54475 L 201.25977,176.56641 L 201.91919,178.1608 L 201.22915,181.12488 L 199.69029,179.55199 L 199.27737,178.34759 L 199.69029,179.55199 L 198.45798,179.40066 L 199.69029,179.55199 L 201.22915,181.12488 L 202.63965,185.22454 L 195.91208,184.72158 L 191.92628,181.98237 L 190.48697,179.43278 L 190.24369,177.78341 L 189.39833,176.62227 L 189.30694,175.3426 L 188.79157,174.33224 L 189.30694,175.3426 L 189.39833,176.62227 L 190.24369,177.78341 L 190.48697,179.43278 L 189.11295,178.50079 L 188.63213,177.24814 L 189.11295,178.50079 L 187.85875,178.43115 L 189.11295,178.50079 L 190.48697,179.43278 L 191.92628,181.98237 L 188.87905,181.90745 L 186.89548,180.66532 L 185.97126,179.10479 L 185.75692,177.94206 L 185.97126,179.10479 L 184.87484,178.54099 L 185.97126,179.10479 L 186.89548,180.66532 L 185.35145,180.49651 L 184.28259,179.65715 L 185.35145,180.49651 L 184.25343,180.91133 L 185.35145,180.49651 L 186.89548,180.66532 L 188.87905,181.90745 L 186.97562,182.56398 L 185.60115,182.29446 L 184.62449,181.6045 L 185.60115,182.29446 L 184.52812,182.51111 L 185.60115,182.29446 L 186.97562,182.56398 L 185.92648,183.67052 L 186.97562,182.56398 L 188.87905,181.90745 L 191.92628,181.98237 L 195.91208,184.72158 L 192.21637,186.34976 L 190.09645,186.15171 L 188.86809,185.48017 L 190.09645,186.15171 L 189.09515,186.82944 L 190.09645,186.15171 L 192.21637,186.34976 L 191.16326,188.21057 L 189.69767,189.17832 L 189.05019,190.184 L 189.69767,189.17832 L 191.16326,188.21057 L 190.96093,189.84014 L 190.12935,190.79866 L 190.96093,189.84014 L 191.69578,191.0003 L 191.74981,192.11031 L 191.69578,191.0003 L 192.76716,191.37056 L 191.69578,191.0003 L 190.96093,189.84014 L 191.16326,188.21057 L 192.21637,186.34976 L 195.91208,184.72158 L 202.63965,185.22454 L 208.61768,189.76419 L 213.04674,197.03691 L 207.211,196.64282 L 203.83404,193.55025 L 202.05285,189.88919 L 202.08003,186.56278 L 203.17189,183.95148 L 204.34653,182.99083 L 204.69034,181.91965 L 204.34653,182.99083 L 203.17189,183.95148 L 202.88451,182.31625 L 203.11588,181.06054 L 202.88451,182.31625 L 202.08123,181.47658 L 202.88451,182.31625 L 203.17189,183.95148 L 202.08003,186.56278 L 200.84646,184.32197 L 201.02465,183.00084 L 200.84646,184.32197 L 199.14517,182.99617 L 198.75022,181.18557 L 199.07867,179.9941 L 198.75022,181.18557 L 199.14517,182.99617 L 197.71233,182.57931 L 196.53361,182.84269 L 197.71233,182.57931 L 199.14517,182.99617 L 200.84646,184.32197 L 202.08003,186.56278 L 202.05285,189.88919 L 199.69493,187.87047 L 198.828,186.09982 L 198.89175,184.86595 L 198.828,186.09982 L 197.50445,184.92214 L 196.09334,184.8703 L 194.948,185.34888 L 196.09334,184.8703 L 197.50445,184.92214 L 198.828,186.09982 L 199.69493,187.87047 L 198.12061,187.60553 L 196.99155,186.94212 L 198.12061,187.60553 L 197.0622,188.06625 L 198.12061,187.60553 L 199.69493,187.87047 L 202.05285,189.88919 L 203.83404,193.55025 L 201.5584,192.72527 L 200.61863,191.1163 L 200.57308,189.61531 L 200.61863,191.1163 L 199.11843,190.52204 L 198.43738,189.26899 L 198.39991,188.0142 L 198.43738,189.26899 L 199.11843,190.52204 L 197.76904,190.90414 L 196.55305,190.63259 L 197.76904,190.90414 L 199.11843,190.52204 L 200.61863,191.1163 L 201.5584,192.72527 L 199.5209,192.94411 L 198.08644,192.52864 L 199.5209,192.94411 L 201.5584,192.72527 L 203.83404,193.55025 L 207.211,196.64282 L 202.86817,199.2959 L 198.77052,198.85689 L 196.42847,196.50181 L 196.00425,194.43788 L 196.54598,193.00725 L 196.45554,191.70697 L 196.54598,193.00725 L 196.00425,194.43788 L 195.21354,193.57127 L 196.00425,194.43788 L 196.42847,196.50181 L 194.75459,196.27854 L 193.80712,195.65299 L 194.75459,196.27854 L 193.61361,196.87364 L 194.75459,196.27854 L 196.42847,196.50181 L 198.77052,198.85689 L 196.69663,200.23641 L 195.15319,200.25626 L 193.9873,199.80839 L 195.15319,200.25626 L 196.69663,200.23641 L 196.10817,201.39687 L 196.69663,200.23641 L 198.77052,198.85689 L 202.86817,199.2959 L 201.16128,201.67499 L 198.94657,202.3167 L 197.56123,202.16421 L 196.68405,201.38547 L 197.56123,202.16421 L 198.94657,202.3167 L 197.95568,203.19361 L 197.74377,204.31687 L 197.95568,203.19361 L 198.94657,202.3167 L 201.16128,201.67499 L 201.1241,203.38552 L 201.85968,204.6183 L 201.88156,205.72232 L 201.85968,204.6183 L 201.1241,203.38552 L 201.16128,201.67499 L 202.86817,199.2959 L 207.211,196.64282 L 213.04674,197.03691 L 221.45145,203.122 L 228.83608,214.57559 L 228.83608,240.00001"
       style="fill:none;fill-opacity:1;stroke:#281801;stroke-width:1.00000012px;stroke-linecap:butt;stroke-linejoin:miter;stroke-opacity:1" />
  </g>
</svg>
