<?xml version="1.0" encoding="UTF-8" standalone="no"?>
<!-- Created with Inkscape (http://www.inkscape.org/) -->
<svg
   xmlns:dc="http://purl.org/dc/elements/1.1/"
   xmlns:cc="http://web.resource.org/cc/"
   xmlns:rdf="http://www.w3.org/1999/02/22-rdf-syntax-ns#"
   xmlns:svg="http://www.w3.org/2000/svg"
   xmlns="http://www.w3.org/2000/svg"
   xmlns:xlink="http://www.w3.org/1999/xlink"
   xmlns:sodipodi="http://sodipodi.sourceforge.net/DTD/sodipodi-0.dtd"
   xmlns:inkscape="http://www.inkscape.org/namespaces/inkscape"
   id="svg10127"
   sodipodi:version="0.32"
   inkscape:version="0.45.1"
   width="259"
   height="246"
   version="1.0"
   sodipodi:docbase="/Users/paul/Desktop/16languages"
   sodipodi:docname="mit_scheme_stamp.svg"
   inkscape:output_extension="org.inkscape.output.svg.inkscape"
   inkscape:export-filename="/Users/paul/Desktop/16languages/mit_scheme_stamp.png"
   inkscape:export-xdpi="55"
   inkscape:export-ydpi="55">
  <metadata
     id="metadata10132">
    <rdf:RDF>
      <cc:Work
         rdf:about="">
        <dc:format>image/svg+xml</dc:format>
        <dc:type
           rdf:resource="http://purl.org/dc/dcmitype/StillImage" />
      </cc:Work>
    </rdf:RDF>
  </metadata>
  <defs
     id="defs10130" />
  <sodipodi:namedview
     inkscape:window-height="697"
     inkscape:window-width="890"
     inkscape:pageshadow="2"
     inkscape:pageopacity="0.0"
     guidetolerance="10.0"
     gridtolerance="10.0"
     objecttolerance="10.0"
     borderopacity="1.0"
     bordercolor="#666666"
     pagecolor="#ffffff"
     id="base"
     inkscape:zoom="1.5365854"
     inkscape:cx="129.5"
     inkscape:cy="94.723102"
     inkscape:window-x="20"
     inkscape:window-y="29"
     inkscape:current-layer="svg10127" />
  <path
     transform="matrix(1.0462428,0,0,1.0462428,-1.7179553,-1.4471049)"
     d="M 236.23809 117.79365 A 112.5873 112.5873 0 1 1  11.063484,117.79365 A 112.5873 112.5873 0 1 1  236.23809 117.79365 z"
     sodipodi:ry="112.5873"
     sodipodi:rx="112.5873"
     sodipodi:cy="117.79365"
     sodipodi:cx="123.65079"
     id="path40258"
     style="opacity:1;fill:#ffffff;fill-opacity:1;stroke:none;stroke-width:1.43370163;stroke-linecap:butt;stroke-linejoin:miter;stroke-miterlimit:4;stroke-dasharray:none;stroke-dashoffset:0;stroke-opacity:1"
     sodipodi:type="arc" />
  <path
     id="path15069"
     d="M 34.575485,163.74377 C 57.731955,215.12133 118.22334,238.0254 169.60092,214.86895 C 220.97847,191.71248 243.88254,131.2211 220.72609,79.843512 C 197.56962,28.465962 137.07822,5.561884 85.700661,28.718347 C 34.3231,51.874811 11.419021,112.36621 34.575485,163.74377 z "
     style="fill:none;fill-opacity:0.54777066;stroke:none;stroke-width:1.09540451;stroke-linecap:butt;stroke-linejoin:miter;stroke-miterlimit:4;stroke-dashoffset:0;stroke-opacity:1" />
  <path
     sodipodi:type="arc"
     style="opacity:1;fill:none;fill-opacity:1;stroke:#000000;stroke-width:1.5;stroke-linecap:butt;stroke-linejoin:miter;stroke-miterlimit:4;stroke-dasharray:none;stroke-dashoffset:0;stroke-opacity:1"
     id="path10169"
     sodipodi:cx="123.65079"
     sodipodi:cy="117.79365"
     sodipodi:rx="112.5873"
     sodipodi:ry="112.5873"
     d="M 236.23809 117.79365 A 112.5873 112.5873 0 1 1  11.063484,117.79365 A 112.5873 112.5873 0 1 1  236.23809 117.79365 z"
     transform="translate(4,4)" />
  <path
     transform="matrix(0.9571433,0,0,0.9571433,9.2992676,9.0482497)"
     d="M 236.23809 117.79365 A 112.5873 112.5873 0 1 1  11.063484,117.79365 A 112.5873 112.5873 0 1 1  236.23809 117.79365 z"
     sodipodi:ry="112.5873"
     sodipodi:rx="112.5873"
     sodipodi:cy="117.79365"
     sodipodi:cx="123.65079"
     id="path11140"
     style="opacity:1;fill:none;fill-opacity:1;stroke:#000000;stroke-width:0.88805932;stroke-linecap:butt;stroke-linejoin:miter;stroke-miterlimit:4;stroke-dasharray:none;stroke-dashoffset:0;stroke-opacity:1"
     sodipodi:type="arc" />
  <path
     sodipodi:type="arc"
     style="opacity:1;fill:none;fill-opacity:1;stroke:#000000;stroke-width:0.9077161;stroke-linecap:butt;stroke-linejoin:miter;stroke-miterlimit:4;stroke-dasharray:none;stroke-dashoffset:0;stroke-opacity:1"
     id="path13080"
     sodipodi:cx="123.65079"
     sodipodi:cy="117.79365"
     sodipodi:rx="112.5873"
     sodipodi:ry="112.5873"
     d="M 236.23809 117.79365 A 112.5873 112.5873 0 1 1  11.063484,117.79365 A 112.5873 112.5873 0 1 1  236.23809 117.79365 z"
     transform="matrix(0.9364162,0,0,0.9364162,11.862188,11.489769)" />
  <path
     sodipodi:type="arc"
     style="opacity:1;fill:none;fill-opacity:1;stroke:#000000;stroke-width:1.13115382;stroke-linecap:butt;stroke-linejoin:miter;stroke-miterlimit:4;stroke-dasharray:none;stroke-dashoffset:0;stroke-opacity:1"
     id="path13082"
     sodipodi:cx="123.65079"
     sodipodi:cy="117.79365"
     sodipodi:rx="112.5873"
     sodipodi:ry="112.5873"
     d="M 236.23809 117.79365 A 112.5873 112.5873 0 1 1  11.063484,117.79365 A 112.5873 112.5873 0 1 1  236.23809 117.79365 z"
     transform="matrix(0.7514451,0,0,0.7514451,34.73401,33.278189)" />
  <path
     transform="matrix(0.7289467,0,0,0.7289467,37.515949,35.928352)"
     d="M 236.23809 117.79365 A 112.5873 112.5873 0 1 1  11.063484,117.79365 A 112.5873 112.5873 0 1 1  236.23809 117.79365 z"
     sodipodi:ry="112.5873"
     sodipodi:rx="112.5873"
     sodipodi:cy="117.79365"
     sodipodi:cx="123.65079"
     id="path13084"
     style="opacity:1;fill:none;fill-opacity:1;stroke:#000000;stroke-width:1.16606605;stroke-linecap:butt;stroke-linejoin:miter;stroke-miterlimit:4;stroke-dasharray:none;stroke-dashoffset:0;stroke-opacity:1"
     sodipodi:type="arc" />
  <path
     sodipodi:type="star"
     style="opacity:1;fill:#000000;fill-opacity:1;stroke:none;stroke-width:0.85000002;stroke-linecap:butt;stroke-linejoin:miter;stroke-miterlimit:4;stroke-dasharray:none;stroke-dashoffset:0;stroke-opacity:1"
     id="path13086"
     sodipodi:sides="5"
     sodipodi:cx="47.398602"
     sodipodi:cy="70.671188"
     sodipodi:r1="7.8635697"
     sodipodi:r2="3.1454277"
     sodipodi:arg1="1.2120257"
     sodipodi:arg2="1.8403442"
     inkscape:flatsided="false"
     inkscape:rounded="0"
     inkscape:randomized="0"
     d="M 50.159685,78.034078 L 46.560988,73.703039 L 41.249299,75.572393 L 44.256303,70.811464 L 40.83704,66.337409 L 46.294168,67.726033 L 49.492636,63.091561 L 49.858322,68.710707 L 55.254348,70.3205 L 50.023226,72.4047 L 50.159685,78.034078 z "
     transform="translate(0.9203612,0.6194582)" />
  <path
     transform="matrix(-1,0,0,1,255.17103,0.6194582)"
     d="M 50.159685,78.034078 L 46.560988,73.703039 L 41.249299,75.572393 L 44.256303,70.811464 L 40.83704,66.337409 L 46.294168,67.726033 L 49.492636,63.091561 L 49.858322,68.710707 L 55.254348,70.3205 L 50.023226,72.4047 L 50.159685,78.034078 z "
     inkscape:randomized="0"
     inkscape:rounded="0"
     inkscape:flatsided="false"
     sodipodi:arg2="1.8403442"
     sodipodi:arg1="1.2120257"
     sodipodi:r2="3.1454277"
     sodipodi:r1="7.8635697"
     sodipodi:cy="70.671188"
     sodipodi:cx="47.398602"
     sodipodi:sides="5"
     id="path14057"
     style="opacity:1;fill:#000000;fill-opacity:1;stroke:none;stroke-width:0.85000002;stroke-linecap:butt;stroke-linejoin:miter;stroke-miterlimit:4;stroke-dasharray:none;stroke-dashoffset:0;stroke-opacity:1"
     sodipodi:type="star" />
  <path
     style="fill:none;fill-opacity:0.54777066;stroke:none;stroke-width:1.09540451;stroke-linecap:butt;stroke-linejoin:miter;stroke-miterlimit:4;stroke-dashoffset:0;stroke-opacity:1"
     d="M 66.465459,57.512758 C 101.94851,23.73846 158.15738,25.125269 191.93167,60.608317 C 225.70597,96.091366 224.31916,152.30024 188.83612,186.07453 C 153.35306,219.84883 97.144199,218.46202 63.369898,182.97898 C 29.5956,147.49592 30.98241,91.287059 66.465459,57.512758 z "
     id="path14079" />
  <text
     xml:space="preserve"
     id="text15059"><textPath
       xlink:href="#path14079"
       id="textPath15065"><tspan
   id="tspan15061"><tspan
     id="tspan15063"
     style="font-size:16px;font-family:Times New Roman"
     y="41.99894"
     x="29">MASSACHUSETTS</tspan></tspan></textPath></text>
  <text
     id="text16040"
     xml:space="preserve"
     style="font-size:17;font-family:Times New Roman"><textPath
       xlink:href="#path15069"
       id="textPath16050">INSTITUTE OF TECHNOLOGY</textPath></text>
  <flowRoot
     xml:space="preserve"
     id="flowRoot14063"
     style="font-size:48px;font-family:Symbol"
     transform="translate(4,-2)"><flowRegion
       id="flowRegion14065"><rect
         id="rect14067"
         width="38.655174"
         height="55.221668"
         x="81.912148"
         y="117.60961"
         style="font-size:48px;font-family:Symbol" /></flowRegion><flowPara
       id="flowPara14069"
       style="font-size:48px">l</flowPara></flowRoot>  <flowRoot
     xml:space="preserve"
     id="flowRoot14071"
     style="font-size:13px"
     transform="translate(0,-1.575124)"><flowRegion
       id="flowRegion14073"><rect
         id="rect14075"
         width="112.28407"
         height="15.646144"
         x="77.310341"
         y="84.016426"
         style="font-size:13px" /></flowRegion><flowPara
       id="flowPara14077">(Y F) = (F (Y F))</flowPara></flowRoot>  <path
     id="path14059"
     style="fill:none;fill-rule:evenodd;stroke:#000000;stroke-width:1px;stroke-linecap:butt;stroke-linejoin:miter;stroke-opacity:1"
     d="M 127.51384,193.53941 C 183.51169,173.34011 182.83666,143.99073 182.27533,68.830468 C 182.27533,68.830468 167.08937,78.49426 153.74414,78.49426 C 140.3989,78.49426 127.72203,69.542639 127.72203,70.211009 C 127.72203,69.542649 115.04515,78.49426 101.69991,78.49426 C 88.354676,78.49426 73.168716,68.830468 73.168716,68.830468 C 72.607389,143.99073 71.932358,173.34011 127.93021,193.53941"
     sodipodi:nodetypes="ccscscc" />
  <flowRoot
     transform="matrix(0.4728616,0,0,0.4728616,87.165669,70.967976)"
     style="font-size:48px;font-family:Symbol"
     id="flowRoot18010"
     xml:space="preserve"><flowRegion
       id="flowRegion18012"><rect
         style="font-size:48px;font-family:Symbol"
         y="117.60961"
         x="81.912148"
         height="55.221668"
         width="38.655174"
         id="rect18014" /></flowRegion><flowPara
       style="font-size:48px"
       id="flowPara18016">l</flowPara></flowRoot>  <flowRoot
     transform="matrix(0.4728616,0,0,0.4728616,85.274223,71.168883)"
     style="font-size:13px"
     id="flowRoot18018"
     xml:space="preserve"><flowRegion
       id="flowRegion18020"><rect
         style="font-size:13px"
         y="84.016426"
         x="77.310341"
         height="15.646144"
         width="112.28407"
         id="rect18022" /></flowRegion><flowPara
       id="flowPara18024">(Y F) = (F (Y F))</flowPara></flowRoot>  <path
     id="path18008"
     style="fill:none;fill-rule:evenodd;stroke:#000000;stroke-width:0.80000001;stroke-linecap:butt;stroke-linejoin:miter;stroke-miterlimit:4;stroke-opacity:1"
     d="M 145.98511,105.11379 C 145.98511,105.11379 139.67466,109.03062 133.36421,109.03062 C 127.05376,109.03062 119.8729,104.46098 119.8729,104.46098 C 119.60747,140.00139 119.28827,153.87958 145.76751,163.43105M 145.35302,105.11379 C 145.35302,105.11379 151.66347,109.03062 157.97392,109.03062 C 164.28437,109.03062 171.46523,104.46098 171.46523,104.46098 C 171.73066,140.00139 172.04985,153.87958 145.57062,163.43105" />
  <flowRoot
     transform="matrix(0.1970952,0,0,0.1970952,131.8682,108.61627)"
     style="font-size:48px;font-family:Symbol"
     id="flowRoot18032"
     xml:space="preserve"><flowRegion
       id="flowRegion18034"><rect
         style="font-size:48px;font-family:Symbol"
         y="117.60961"
         x="81.912148"
         height="55.221668"
         width="38.655174"
         id="rect18036" /></flowRegion><flowPara
       style="font-size:48px"
       id="flowPara18038">l</flowPara></flowRoot>  <flowRoot
     transform="matrix(0.1970952,0,0,0.1970952,131.07982,108.70001)"
     style="font-size:13px"
     id="flowRoot18040"
     xml:space="preserve"><flowRegion
       id="flowRegion18042"><rect
         style="font-size:13px"
         y="84.016426"
         x="77.310341"
         height="15.646144"
         width="112.28407"
         id="rect18044" /></flowRegion><flowPara
       id="flowPara18046">(Y F) = (F (Y F))</flowPara></flowRoot>  <path
     id="path18030"
     style="fill:none;fill-rule:evenodd;stroke:#000000;stroke-width:0.6;stroke-linecap:butt;stroke-linejoin:miter;stroke-opacity:1;stroke-miterlimit:4;stroke-dasharray:none"
     d="M 156.38495,122.84871 C 156.38495,122.84871 153.75467,124.4813 151.12438,124.4813 C 148.4941,124.4813 145.50102,122.57661 145.50102,122.57661 C 145.39039,137.39034 145.25734,143.17496 156.29425,147.15615M 156.12149,122.84871 C 156.12149,122.84871 158.75177,124.4813 161.38205,124.4813 C 164.01233,124.4813 167.00541,122.57661 167.00541,122.57661 C 167.11605,137.39034 167.24909,143.17496 156.21219,147.15615" />
  <flowRoot
     xml:space="preserve"
     id="flowRoot18054"
     style="font-size:48px;font-family:Symbol"
     transform="matrix(9.3198741e-2,0,0,9.3198741e-2,148.60489,122.76781)"><flowRegion
       id="flowRegion18056"><rect
         id="rect18058"
         width="38.655174"
         height="55.221668"
         x="81.912148"
         y="117.60961"
         style="font-size:48px;font-family:Symbol" /></flowRegion><flowPara
       id="flowPara18060"
       style="font-size:48px">l</flowPara></flowRoot>  <flowRoot
     xml:space="preserve"
     id="flowRoot18062"
     style="font-size:13px"
     transform="matrix(8.3824426e-2,0,0,8.3824426e-2,149.08237,123.89264)"><flowRegion
       id="flowRegion18064"><rect
         id="rect18066"
         width="112.28407"
         height="15.646144"
         x="77.310341"
         y="84.016426"
         style="font-size:13px" /></flowRegion><flowPara
       id="flowPara18068">(Y F) = (F (Y F))</flowPara></flowRoot>  <path
     id="path18052"
     style="fill:none;fill-rule:evenodd;stroke:#000000;stroke-width:0.4;stroke-linecap:butt;stroke-linejoin:miter;stroke-opacity:1;stroke-miterlimit:4;stroke-dasharray:none"
     d="M 159.85278,129.72788 C 159.85278,129.72788 158.60902,130.49987 157.36526,130.49987 C 156.1215,130.49987 154.70619,129.59921 154.70619,129.59921 C 154.65388,136.60405 154.59097,139.33938 159.80989,141.22193M 159.7282,129.72788 C 159.7282,129.72788 160.97196,130.49987 162.21572,130.49987 C 163.45948,130.49987 164.87479,129.59921 164.87479,129.59921 C 164.92711,136.60405 164.99002,139.33938 159.77109,141.22193" />
  <flowRoot
     transform="matrix(3.2028343e-2,0,0,3.2313143e-2,157.78722,131.37232)"
     style="font-size:48px;font-family:Symbol"
     id="flowRoot22975"
     xml:space="preserve"><flowRegion
       id="flowRegion22977"><rect
         style="font-size:48px;font-family:Symbol"
         y="117.60961"
         x="81.912148"
         height="55.221668"
         width="38.655174"
         id="rect22979" /></flowRegion><flowPara
       style="font-size:48px"
       id="flowPara22981">l</flowPara></flowRoot>  <flowRoot
     transform="matrix(2.8806799e-2,0,0,2.9062954e-2,157.9513,131.7623)"
     style="font-size:13px"
     id="flowRoot22983"
     xml:space="preserve"><flowRegion
       id="flowRegion22985"><rect
         style="font-size:13px"
         y="84.016426"
         x="77.310341"
         height="15.646144"
         width="112.28407"
         id="rect22987" /></flowRegion><flowPara
       id="flowPara22989">(Y F) = (F (Y F))</flowPara></flowRoot>  <path
     d="M 161.65263,133.78545 C 161.65263,133.78545 161.2252,134.0531 160.79778,134.0531 C 160.37035,134.0531 159.88397,133.74083 159.88397,133.74083 C 159.86599,136.1695 159.84437,137.11787 161.63788,137.77057 M 161.60981,133.78545 C 161.60981,133.78545 162.03724,134.0531 162.46466,134.0531 C 162.89209,134.0531 163.37847,133.74083 163.37847,133.74083 C 163.39645,136.1695 163.41806,137.11787 161.62454,137.77057"
     style="fill:none;fill-rule:evenodd;stroke:#000000;stroke-width:0.2;stroke-linecap:butt;stroke-linejoin:miter;stroke-miterlimit:4;stroke-dasharray:none;stroke-opacity:1"
     id="path22991" />
</svg>
