<?xml version="1.0" encoding="UTF-8" standalone="no"?>
<!-- Created with Inkscape (http://www.inkscape.org/) -->
<svg
   xmlns:dc="http://purl.org/dc/elements/1.1/"
   xmlns:cc="http://web.resource.org/cc/"
   xmlns:rdf="http://www.w3.org/1999/02/22-rdf-syntax-ns#"
   xmlns:svg="http://www.w3.org/2000/svg"
   xmlns="http://www.w3.org/2000/svg"
   xmlns:sodipodi="http://sodipodi.sourceforge.net/DTD/sodipodi-0.dtd"
   xmlns:inkscape="http://www.inkscape.org/namespaces/inkscape"
   width="744.09448819"
   height="1052.3622047"
   id="svg2"
   sodipodi:version="0.32"
   inkscape:version="0.45.1"
   sodipodi:docbase="/Users/paul/Desktop/16languages"
   sodipodi:docname="prolog_stamp.svg"
   inkscape:output_extension="org.inkscape.output.svg.inkscape">
  <defs
     id="defs4">
    <filter
       inkscape:collect="always"
       x="-0.25397187"
       width="1.5079437"
       y="-0.47798044"
       height="1.9559609"
       id="filter5718">
      <feGaussianBlur
         inkscape:collect="always"
         stdDeviation="16.045784"
         id="feGaussianBlur5720" />
    </filter>
  </defs>
  <sodipodi:namedview
     id="base"
     pagecolor="#ffffff"
     bordercolor="#666666"
     borderopacity="1.0"
     gridtolerance="10000"
     guidetolerance="10"
     objecttolerance="10"
     inkscape:pageopacity="0.0"
     inkscape:pageshadow="2"
     inkscape:zoom="1.979899"
     inkscape:cx="375"
     inkscape:cy="691.80297"
     inkscape:document-units="px"
     inkscape:current-layer="layer1"
     showguides="true"
     inkscape:guide-bbox="true"
     inkscape:connector-spacing="5"
     inkscape:window-width="1027"
     inkscape:window-height="721"
     inkscape:window-x="62"
     inkscape:window-y="22" />
  <metadata
     id="metadata7">
    <rdf:RDF>
      <cc:Work
         rdf:about="">
        <dc:format>image/svg+xml</dc:format>
        <dc:type
           rdf:resource="http://purl.org/dc/dcmitype/StillImage" />
      </cc:Work>
    </rdf:RDF>
  </metadata>
  <g
     inkscape:label="Layer 1"
     inkscape:groupmode="layer"
     id="layer1">
    <path
       style="fill:#cccccc;fill-opacity:1;stroke:none;stroke-width:1;stroke-miterlimit:4;stroke-opacity:1"
       d="M 325.72969,253.07694 C 315.60257,257.04242 314.33475,270.37108 302.26526,269.61145 C 294.24993,269.10698 286.24452,264.66913 278.06015,268.7386 C 269.60387,272.94327 261.60344,277.98076 252.50571,280.91885 C 241.63961,284.42803 242.45869,297.35409 242.10862,307.41755 C 241.65275,320.52219 247.26109,333.80309 253.50714,344.68713 C 259.68527,355.45281 246.65613,363.42839 247.52738,374.3999 C 248.18313,382.6576 255.20443,384.39308 260.1051,390.15184 C 264.75896,395.62058 267.02728,404.48493 272.88776,407.42464 C 284.19971,413.09889 295.96059,401.30927 308.08217,400.00651 C 318.67051,398.86853 324.72674,382.26135 336.27362,384.66983 C 350.67176,387.67304 350.70652,404.46856 363.59862,410.25441 C 373.22212,414.57335 383.46968,409.11609 389.23409,402.24514 C 394.55748,395.89988 403.99257,389.20555 412.14991,394.73009 C 421.08525,400.78152 431.19371,410.16967 442.90571,406.39622 C 450.7888,403.8564 454.70189,395.3662 452.77072,387.49279 C 450.78068,379.37937 449.43212,370.67215 453.36069,362.64287 C 457.76848,353.63413 461.66803,337.7836 454.56039,328.94935 C 448.94969,321.97568 443.28311,318.83959 448.92487,308.28947 C 452.42258,301.74872 454.85017,294.19994 450.67785,285.91498 C 446.36495,277.35088 440.33633,277.22288 433.17576,272.38594 C 426.11722,267.61792 423.57924,255.74567 413.86958,256.48563 C 404.38734,257.20826 397.80755,268.2129 387.89048,270.95459 C 377.06228,273.94818 366.44597,275.03051 355.45389,276.95479 C 345.67822,278.66613 341.9393,267.03896 339.06257,259.56803 C 337.20279,254.73812 331.39525,250.85847 325.72969,253.07694 z "
       id="path4508"
       sodipodi:nodetypes="csssssssssssssssssssssssss" />
    <path
       style="fill:#ffffff;fill-opacity:1;stroke:none;stroke-width:1;stroke-miterlimit:4;stroke-opacity:1;filter:url(#filter5718)"
       d="M 409.3125,291.9375 C 381.64513,303.38849 350.74944,316.95369 324.13078,296.46332 C 305.51611,291.59176 263.39325,296.33439 276.98379,324.39054 C 293.68919,336.96874 273.85386,364.06619 291.2064,370.04736 C 311.94861,358.27763 338.84453,340.60061 358.80477,365.17479 C 379.48685,384.73996 402.55657,359.05691 425.51566,358.08873 C 427.71812,339.30177 421.2646,315.42454 416.94521,295.64959 C 415.15158,293.31374 412.22396,292.01066 409.3125,291.9375 z "
       id="path4632" />
    <flowRoot
       xml:space="preserve"
       id="flowRoot2160"
       style="font-size:56px;font-family:Skia"
       transform="translate(107.42857,-70.857143)"><flowRegion
         id="flowRegion2162"><rect
           id="rect2164"
           width="334.28571"
           height="108.57143"
           x="165.71428"
           y="375.21933"
           style="font-size:56px;font-family:Skia" /></flowRegion><flowPara
         id="flowPara2166"
         style="font-size:56px;font-family:Skia">Prolog</flowPara></flowRoot>    <path
       sodipodi:type="arc"
       style="fill:#501616;fill-opacity:1;stroke:none;stroke-width:1;stroke-miterlimit:4;stroke-dasharray:none;stroke-opacity:1"
       id="path2172"
       sodipodi:cx="275"
       sodipodi:cy="275.93362"
       sodipodi:rx="11.428572"
       sodipodi:ry="11.428572"
       d="M 286.42857 275.93362 A 11.428572 11.428572 0 1 1  263.57143,275.93362 A 11.428572 11.428572 0 1 1  286.42857 275.93362 z"
       transform="translate(95.71429,118.57143)" />
    <path
       sodipodi:type="arc"
       style="fill:#000000;fill-opacity:1;stroke:none;stroke-width:1;stroke-miterlimit:4;stroke-dasharray:none;stroke-opacity:1"
       id="path2174"
       sodipodi:cx="317.85715"
       sodipodi:cy="263.79074"
       sodipodi:rx="6.4285712"
       sodipodi:ry="6.4285712"
       d="M 324.28572 263.79074 A 6.4285712 6.4285712 0 1 1  311.42858,263.79074 A 6.4285712 6.4285712 0 1 1  324.28572 263.79074 z"
       transform="translate(10.606602,-0.5050763)" />
    <path
       sodipodi:type="arc"
       style="fill:#a05a2c;fill-opacity:1;stroke:none;stroke-width:1;stroke-miterlimit:4;stroke-dasharray:none;stroke-opacity:1"
       id="path2176"
       sodipodi:cx="372.14285"
       sodipodi:cy="273.79074"
       sodipodi:rx="8.5714283"
       sodipodi:ry="8.5714283"
       d="M 380.71428 273.79074 A 8.5714283 8.5714283 0 1 1  363.57142,273.79074 A 8.5714283 8.5714283 0 1 1  380.71428 273.79074 z"
       transform="translate(23.045325,8.3263245)" />
    <path
       sodipodi:type="arc"
       style="fill:#aa4400;fill-opacity:1;stroke:none;stroke-width:1;stroke-miterlimit:4;stroke-dasharray:none;stroke-opacity:1"
       id="path2178"
       sodipodi:cx="320"
       sodipodi:cy="301.64789"
       sodipodi:rx="8.5714283"
       sodipodi:ry="8.5714283"
       d="M 328.57143 301.64789 A 8.5714283 8.5714283 0 1 1  311.42857,301.64789 A 8.5714283 8.5714283 0 1 1  328.57143 301.64789 z"
       transform="translate(1.5152288,-9.0913729)" />
    <path
       sodipodi:type="arc"
       style="fill:#000000;fill-opacity:1;stroke:none;stroke-width:1;stroke-miterlimit:4;stroke-dasharray:none;stroke-opacity:1"
       id="path2180"
       sodipodi:cx="409.28571"
       sodipodi:cy="313.79074"
       sodipodi:rx="8.5714283"
       sodipodi:ry="8.5714283"
       d="M 417.85713 313.79074 A 8.5714283 8.5714283 0 1 1  400.71428,313.79074 A 8.5714283 8.5714283 0 1 1  417.85713 313.79074 z" />
    <path
       sodipodi:type="arc"
       style="fill:#000000;fill-opacity:1;stroke:none;stroke-width:1;stroke-miterlimit:4;stroke-dasharray:none;stroke-opacity:1"
       id="path2182"
       sodipodi:cx="415.71429"
       sodipodi:cy="282.36218"
       sodipodi:rx="10"
       sodipodi:ry="10"
       d="M 425.71429 282.36218 A 10 10 0 1 1  405.71429,282.36218 A 10 10 0 1 1  425.71429 282.36218 z"
       transform="translate(22.316172,10.714286)" />
    <path
       sodipodi:type="arc"
       style="fill:#000000;fill-opacity:1;stroke:none;stroke-width:1;stroke-miterlimit:4;stroke-dasharray:none;stroke-opacity:1"
       id="path2184"
       sodipodi:cx="255.35715"
       sodipodi:cy="311.29074"
       sodipodi:rx="8.9285717"
       sodipodi:ry="8.9285717"
       d="M 264.28572 311.29074 A 8.9285717 8.9285717 0 1 1  246.42858,311.29074 A 8.9285717 8.9285717 0 1 1  264.28572 311.29074 z"
       transform="matrix(0.9434315,0,0,0.9434315,15.419437,27.226737)" />
    <path
       sodipodi:type="arc"
       style="fill:#806600;fill-opacity:1;stroke:none;stroke-width:1;stroke-miterlimit:4;stroke-dasharray:none;stroke-opacity:1"
       id="path2186"
       sodipodi:cx="267.14285"
       sodipodi:cy="350.21933"
       sodipodi:rx="6.4285712"
       sodipodi:ry="6.4285712"
       d="M 273.57142 350.21933 A 6.4285712 6.4285712 0 1 1  260.71428,350.21933 A 6.4285712 6.4285712 0 1 1  273.57142 350.21933 z" />
    <path
       sodipodi:type="arc"
       style="fill:#000000;fill-opacity:1;stroke:none;stroke-width:1;stroke-miterlimit:4;stroke-dasharray:none;stroke-opacity:1"
       id="path2188"
       sodipodi:cx="305"
       sodipodi:cy="384.50504"
       sodipodi:rx="9.2857141"
       sodipodi:ry="9.2857141"
       d="M 314.28571 384.50504 A 9.2857141 9.2857141 0 1 1  295.71429,384.50504 A 9.2857141 9.2857141 0 1 1  314.28571 384.50504 z" />
    <path
       sodipodi:type="arc"
       style="fill:#000000;fill-opacity:1;stroke:none;stroke-width:1;stroke-miterlimit:4;stroke-dasharray:none;stroke-opacity:1"
       id="path2190"
       sodipodi:cx="339.28571"
       sodipodi:cy="376.64789"
       sodipodi:rx="3.5714285"
       sodipodi:ry="3.5714285"
       d="M 342.85713 376.64789 A 3.5714285 3.5714285 0 1 1  335.71428,376.64789 A 3.5714285 3.5714285 0 1 1  342.85713 376.64789 z" />
    <path
       sodipodi:type="arc"
       style="fill:#502d16;fill-opacity:1;stroke:none;stroke-width:1;stroke-miterlimit:4;stroke-dasharray:none;stroke-opacity:1"
       id="path2192"
       sodipodi:cx="367.85715"
       sodipodi:cy="397.36218"
       sodipodi:rx="7.8571429"
       sodipodi:ry="7.8571429"
       d="M 375.71429 397.36218 A 7.8571429 7.8571429 0 1 1  360,397.36218 A 7.8571429 7.8571429 0 1 1  375.71429 397.36218 z"
       transform="translate(-93.311457,-114.09754)"
       inkscape:connector-avoid="true" />
    <path
       sodipodi:type="arc"
       style="fill:#000000;fill-opacity:1;stroke:none;stroke-width:1;stroke-miterlimit:4;stroke-dasharray:none;stroke-opacity:1"
       id="path2194"
       sodipodi:cx="378.21429"
       sodipodi:cy="308.43362"
       sodipodi:rx="3.2142856"
       sodipodi:ry="3.2142856"
       d="M 381.42858 308.43362 A 3.2142856 3.2142856 0 1 1  375.00001,308.43362 A 3.2142856 3.2142856 0 1 1  381.42858 308.43362 z" />
    <path
       sodipodi:type="arc"
       style="fill:#000000;fill-opacity:1;stroke:none;stroke-width:1;stroke-miterlimit:4;stroke-dasharray:none;stroke-opacity:1"
       id="path2196"
       sodipodi:cx="432.5"
       sodipodi:cy="382.00504"
       sodipodi:rx="8.9285717"
       sodipodi:ry="8.9285717"
       d="M 441.42857 382.00504 A 8.9285717 8.9285717 0 1 1  423.57143,382.00504 A 8.9285717 8.9285717 0 1 1  441.42857 382.00504 z"
       transform="matrix(1.2262742,0,0,1.2262742,-94.833071,-79.871886)" />
    <path
       sodipodi:type="arc"
       style="fill:#917c6f;fill-opacity:1;stroke:none;stroke-width:1;stroke-miterlimit:4;stroke-dasharray:none;stroke-opacity:1"
       id="path2198"
       sodipodi:cx="430.35715"
       sodipodi:cy="334.86218"
       sodipodi:rx="2.5"
       sodipodi:ry="2.5"
       d="M 432.85715 334.86218 A 2.5 2.5 0 1 1  427.85715,334.86218 A 2.5 2.5 0 1 1  432.85715 334.86218 z"
       transform="translate(21.213203,0.5050763)" />
    <path
       sodipodi:type="arc"
       style="fill:#000000;fill-opacity:1;stroke:none;stroke-width:1;stroke-miterlimit:4;stroke-dasharray:none;stroke-opacity:1"
       id="path2200"
       sodipodi:cx="445"
       sodipodi:cy="357.36218"
       sodipodi:rx="5.7142859"
       sodipodi:ry="5.7142859"
       d="M 450.71429 357.36218 A 5.7142859 5.7142859 0 1 1  439.28571,357.36218 A 5.7142859 5.7142859 0 1 1  450.71429 357.36218 z"
       inkscape:connector-avoid="true" />
    <path
       sodipodi:type="arc"
       style="fill:#000000;fill-opacity:1;stroke:none;stroke-width:1;stroke-miterlimit:4;stroke-dasharray:none;stroke-opacity:1"
       id="path2202"
       sodipodi:cx="395"
       sodipodi:cy="383.07648"
       sodipodi:rx="4.2857141"
       sodipodi:ry="4.2857141"
       d="M 399.28571 383.07648 A 4.2857141 4.2857141 0 1 1  390.71429,383.07648 A 4.2857141 4.2857141 0 1 1  399.28571 383.07648 z" />
    <path
       sodipodi:type="arc"
       style="fill:#000000;fill-opacity:1;stroke:none;stroke-width:1;stroke-miterlimit:4;stroke-dasharray:none;stroke-opacity:1"
       id="path2204"
       sodipodi:cx="253.92857"
       sodipodi:cy="374.86218"
       sodipodi:rx="2.5"
       sodipodi:ry="2.5"
       d="M 256.42857 374.86218 A 2.5 2.5 0 1 1  251.42857,374.86218 A 2.5 2.5 0 1 1  256.42857 374.86218 z" />
    <path
       sodipodi:type="arc"
       style="fill:#000000;fill-opacity:1;stroke:none;stroke-width:1;stroke-miterlimit:4;stroke-dasharray:none;stroke-opacity:1"
       id="path2206"
       sodipodi:cx="277.85715"
       sodipodi:cy="398.07648"
       sodipodi:rx="3.5714285"
       sodipodi:ry="3.5714285"
       d="M 281.42858 398.07648 A 3.5714285 3.5714285 0 1 1  274.28572,398.07648 A 3.5714285 3.5714285 0 1 1  281.42858 398.07648 z" />
    <path
       sodipodi:type="arc"
       style="fill:#000000;fill-opacity:1;stroke:none;stroke-width:1;stroke-miterlimit:4;stroke-dasharray:none;stroke-opacity:1"
       id="path2208"
       sodipodi:cx="355.35715"
       sodipodi:cy="251.29076"
       sodipodi:rx="4.6428571"
       sodipodi:ry="4.6428571"
       d="M 360 251.29076 A 4.6428571 4.6428571 0 1 1  350.71429,251.29076 A 4.6428571 4.6428571 0 1 1  360 251.29076 z"
       transform="translate(14.805659,33.861137)"
       inkscape:connector-avoid="true" />
    <path
       sodipodi:type="arc"
       style="fill:#000000;fill-opacity:1;stroke:none;stroke-width:1;stroke-miterlimit:4;stroke-dasharray:none;stroke-opacity:1"
       id="path2212"
       sodipodi:cx="292.85715"
       sodipodi:cy="272.36218"
       sodipodi:rx="2.1428571"
       sodipodi:ry="2.1428571"
       d="M 295 272.36218 A 2.1428571 2.1428571 0 1 1  290.71429,272.36218 A 2.1428571 2.1428571 0 1 1  295 272.36218 z" />
    <path
       sodipodi:type="arc"
       style="fill:#000000;fill-opacity:1;stroke:none;stroke-width:1;stroke-miterlimit:4;stroke-dasharray:none;stroke-opacity:1"
       id="path2214"
       sodipodi:cx="236.07143"
       sodipodi:cy="287.00504"
       sodipodi:rx="2.5"
       sodipodi:ry="2.5"
       d="M 238.57143 287.00504 A 2.5 2.5 0 1 1  233.57143,287.00504 A 2.5 2.5 0 1 1  238.57143 287.00504 z"
       transform="translate(12.857143,5)" />
    <path
       sodipodi:type="arc"
       style="fill:#000000;fill-opacity:1;stroke:none;stroke-width:1;stroke-miterlimit:4;stroke-dasharray:none;stroke-opacity:1"
       id="path2216"
       sodipodi:cx="342.85715"
       sodipodi:cy="276.64789"
       sodipodi:rx="2.8571429"
       sodipodi:ry="2.8571429"
       d="M 345.71429 276.64789 A 2.8571429 2.8571429 0 1 1  340,276.64789 A 2.8571429 2.8571429 0 1 1  345.71429 276.64789 z"
       transform="translate(1.0101525,5.0507627)" />
    <path
       sodipodi:type="arc"
       style="fill:#000000;fill-opacity:1;stroke:none;stroke-width:1;stroke-miterlimit:4;stroke-dasharray:none;stroke-opacity:1"
       id="path2218"
       sodipodi:cx="376.07144"
       sodipodi:cy="247.00504"
       sodipodi:rx="2.5"
       sodipodi:ry="2.5"
       d="M 378.57144 247.00504 A 2.5 2.5 0 1 1  373.57144,247.00504 A 2.5 2.5 0 1 1  378.57144 247.00504 z"
       transform="translate(39.66208,15.974257)" />
  </g>
</svg>
