<?xml version="1.0" encoding="UTF-8" standalone="no"?>
<!-- Created with Inkscape (http://www.inkscape.org/) -->
<svg
   xmlns:dc="http://purl.org/dc/elements/1.1/"
   xmlns:cc="http://web.resource.org/cc/"
   xmlns:rdf="http://www.w3.org/1999/02/22-rdf-syntax-ns#"
   xmlns:svg="http://www.w3.org/2000/svg"
   xmlns="http://www.w3.org/2000/svg"
   xmlns:xlink="http://www.w3.org/1999/xlink"
   xmlns:sodipodi="http://sodipodi.sourceforge.net/DTD/sodipodi-0.dtd"
   xmlns:inkscape="http://www.inkscape.org/namespaces/inkscape"
   width="744.09448819"
   height="1052.3622047"
   id="svg6508"
   sodipodi:version="0.32"
   inkscape:version="0.45.1"
   sodipodi:docbase="/Users/paul/Desktop/16languages"
   sodipodi:docname="python_stamp.svg"
   inkscape:output_extension="org.inkscape.output.svg.inkscape"
   inkscape:export-filename="/Users/paul/Desktop/16languages/python_stamp.png"
   inkscape:export-xdpi="55"
   inkscape:export-ydpi="55">
  <defs
     id="defs6510">
    <linearGradient
       id="linearGradient41517">
      <stop
         style="stop-color:#ececec;stop-opacity:0;"
         offset="0"
         id="stop41519" />
      <stop
         id="stop41525"
         offset="0.7027027"
         style="stop-color:#ececec;stop-opacity:1;" />
      <stop
         style="stop-color:#ececec;stop-opacity:1;"
         offset="1"
         id="stop41521" />
    </linearGradient>
    <linearGradient
       id="linearGradient36091">
      <stop
         style="stop-color:#ececec;stop-opacity:0;"
         offset="0"
         id="stop36093" />
      <stop
         id="stop36099"
         offset="0.5945946"
         style="stop-color:#ececec;stop-opacity:1;" />
      <stop
         style="stop-color:#ececec;stop-opacity:1;"
         offset="1"
         id="stop36095" />
    </linearGradient>
    <linearGradient
       id="linearGradient8541">
      <stop
         style="stop-color:#8e3800;stop-opacity:1;"
         offset="0"
         id="stop8543" />
      <stop
         style="stop-color:#4f1f00;stop-opacity:1;"
         offset="1"
         id="stop8545" />
    </linearGradient>
    <linearGradient
       inkscape:collect="always"
       xlink:href="#linearGradient36091"
       id="linearGradient36097"
       x1="664.10718"
       y1="339.82645"
       x2="685.00006"
       y2="339.82645"
       gradientUnits="userSpaceOnUse" />
    <linearGradient
       inkscape:collect="always"
       xlink:href="#linearGradient41517"
       id="linearGradient41523"
       x1="667.58459"
       y1="347.02316"
       x2="684.88346"
       y2="347.02316"
       gradientUnits="userSpaceOnUse"
       gradientTransform="matrix(1.4671533,0,0,1,-319.83394,0.8705357)" />
  </defs>
  <sodipodi:namedview
     id="base"
     pagecolor="#ffffff"
     bordercolor="#666666"
     borderopacity="1.0"
     gridtolerance="10000"
     guidetolerance="10"
     objecttolerance="10"
     inkscape:pageopacity="0.0"
     inkscape:pageshadow="2"
     inkscape:zoom="1.4"
     inkscape:cx="583.61691"
     inkscape:cy="846.4483"
     inkscape:document-units="px"
     inkscape:current-layer="layer1"
     inkscape:window-width="1035"
     inkscape:window-height="723"
     inkscape:window-x="130"
     inkscape:window-y="28" />
  <metadata
     id="metadata6513">
    <rdf:RDF>
      <cc:Work
         rdf:about="">
        <dc:format>image/svg+xml</dc:format>
        <dc:type
           rdf:resource="http://purl.org/dc/dcmitype/StillImage" />
      </cc:Work>
    </rdf:RDF>
  </metadata>
  <g
     inkscape:label="Layer 1"
     inkscape:groupmode="layer"
     id="layer1">
    <path
       sodipodi:nodetypes="ccscsccssscsssccscsccsccsc"
       id="path36117"
       d="M 677.58681,360.01319 C 678.46573,344.14168 679.33101,343.52769 678.16991,328.4667 C 667.00881,327.69142 625.8883,324.69528 610.09775,324.09149 C 586.66804,323.1956 539.7984,326.37059 536.42859,325.93362 C 522.94934,324.18574 516.37725,317.67569 526.56456,305.8466 C 540.215,289.99626 546.32323,291.80329 564.03432,284.80999 C 595.04693,277.14085 625.91169,267.62421 649.54267,244.97587 C 660.30888,232.72993 667.46401,208.54207 668.54235,192.21985 C 669.9134,171.46708 666.50704,136.85845 655.42488,116.05097 C 648.41753,102.8942 638.09011,88.310262 623.71917,84.970851 C 603.64146,80.305345 581.5993,85.446891 567.20367,99.795581 C 551.43528,118.74003 545.82813,145.95046 550.69109,168.85314 C 552.02379,175.12963 560.90138,181.75397 564.137,187.26416 C 567.37261,192.77435 566.21759,201.32463 570.44655,205.75288 C 574.5143,210.01233 591.11239,217.34846 601.16037,213.4041 C 613.00109,203.08136 597.72921,193.8094 596.52089,183.38725 C 591.82092,175.09432 574.54679,168.30456 572.02019,157.02905 C 568.73638,142.37428 574.08798,135.4147 583.24862,122.54998 C 607.51587,85.989911 635.02553,114.72962 637.61893,145.80458 C 638.93644,161.59139 639.10458,183.93697 634.33378,199.39556 C 616.98609,235.61497 585.78827,237.81394 551.18288,243.57591 C 523.22228,252.6314 498.82632,267.47074 488.7811,279.71665 C 480.70145,289.56637 473.89633,319.56217 482.86435,331.20683 C 494.82888,349.4252 519.18718,363.08635 540.71429,362.36218 C 546.09607,362.18113 576.14727,360.19093 606.37907,358.70872 C 621.49496,357.96761 666.70789,360.17041 677.58681,360.01319 z "
       style="fill:#d2d2d2;fill-rule:evenodd;stroke:none;stroke-width:1px;stroke-linecap:butt;stroke-linejoin:miter;stroke-opacity:1;fill-opacity:1" />
    <path
       style="fill:#c27b0a;fill-rule:evenodd;stroke:#000000;stroke-width:1px;stroke-linecap:butt;stroke-linejoin:miter;stroke-opacity:1;fill-opacity:1"
       d="M 592.5,203.79075 C 590.71688,205.57388 588.017,201.80775 586.78572,200.57647 C 585.49753,199.28828 584.65427,195.23073 583.21429,193.79075 C 580.94915,191.52561 581.68702,190.17984 578.21429,188.79075 C 577.71997,188.59303 577.26191,188.31456 576.78572,188.07647 C 574.74308,187.05515 573.48072,184.77147 572.14286,183.43361 C 570.20122,181.49197 568.73916,180.7442 567.14286,179.1479 C 565.73492,177.73995 565.4283,171.29006 565,170.21932 C 563.83562,167.30838 562.5,166.76787 562.5,162.36218 C 562.5,159.54493 565.16339,157.97959 568.21429,159.50504 C 569.64888,160.22233 568.73907,164.36838 572.14286,165.21932 C 573.99078,165.6813 576.59916,171.36008 577.14286,172.71932 C 578.90555,177.12606 578.88513,178.23332 582.14286,179.86218 C 584.55786,181.06968 586.39148,182.34363 588.57143,183.43361 C 591.04303,184.66941 592.14286,188.49464 592.14286,190.57647 C 592.14286,193.95847 592.85714,196.03648 592.85714,199.86218 C 592.85714,201.39382 592.80809,202.25029 592.5,203.79075 z "
       id="path6570" />
    <path
       style="fill:#b16f08;fill-rule:evenodd;stroke:#000000;stroke-width:1px;stroke-linecap:butt;stroke-linejoin:miter;stroke-opacity:1;fill-opacity:1"
       d="M 554.64286,176.50504 C 554.64286,178.93285 559.50382,179.4317 561.78572,178.29075 C 563.74042,177.3134 559.54878,174.53117 558.57143,172.57647 C 557.37952,170.19265 557.85714,166.36362 557.85714,163.29075 C 557.85714,160.82831 554.16311,158.84157 553.21429,157.57647 C 551.96593,155.91199 550.75017,155.79075 548.21429,155.79075 C 547.30365,156.48453 546.39301,157.17832 545.48237,157.8721 C 541.05795,161.24292 538.79182,168.95434 542.45192,173.52947 C 545.34862,177.15034 549.35639,179.19971 554.64286,176.50504 z "
       id="path6572" />
    <path
       style="fill:#b16f08;fill-rule:evenodd;stroke:#000000;stroke-width:1px;stroke-linecap:butt;stroke-linejoin:miter;stroke-opacity:1;fill-opacity:1"
       d="M 550.35714,142.00504 C 551.44002,143.76029 551.83853,146.19769 552.5,149.50504 C 553.09768,152.49343 555.48864,153.60247 556.07143,155.93361 C 556.66187,158.29537 562.78399,154.60257 562.85714,154.50504 C 564.53125,152.2729 563.19129,148.19755 562.14286,145.57647 C 561.31316,143.50222 564.21486,139.15077 563.57143,135.93361 C 562.92984,132.72564 558.48565,132.76221 556.42857,133.79075 C 553.60459,135.20274 552.2202,129.90996 551.07143,134.50504 C 550.37528,137.28964 550.35714,139.12596 550.35714,142.00504 z "
       id="path6580" />
    <path
       style="fill:#b16f08;fill-rule:evenodd;stroke:#000000;stroke-width:1px;stroke-linecap:butt;stroke-linejoin:miter;stroke-opacity:1;fill-opacity:1"
       d="M 574.28572,135.57647 C 573.74094,137.75559 570.36838,137.80018 568.57143,139.1479 C 566.18217,140.93984 567.14286,146.80063 567.14286,149.50504 C 567.14286,153.7263 567.3307,154.72303 570.35714,155.93361 C 573.6602,157.25483 575.71429,153.93367 575.71429,151.6479 C 575.71429,148.34939 577.5,146.24193 577.5,142.36218 C 577.5,138.58324 575.51923,138.66025 574.28572,135.57647 z "
       id="path6582" />
    <path
       style="fill:#a86700;fill-rule:evenodd;stroke:#000000;stroke-width:1px;stroke-linecap:butt;stroke-linejoin:miter;stroke-opacity:1;fill-opacity:1"
       d="M 563.66512,125.54722 C 564.48655,126.574 560.31575,126.79694 560.63466,128.0726 C 561.31865,130.80856 569.03812,131.4253 570.73619,133.12337 C 572.24135,134.62852 581.89441,135.87801 583.3631,135.14367 C 586.76351,133.44346 575.94508,127.64659 575.78695,127.56753 C 572.76176,126.05493 567.79545,124.40017 566.1905,125.04215 C 565.39344,125.36097 564.50691,125.37886 563.66512,125.54722 z "
       id="path8555" />
    <path
       style="fill:#a86700;fill-opacity:1;fill-rule:evenodd;stroke:#000000;stroke-width:1px;stroke-linecap:butt;stroke-linejoin:miter;stroke-opacity:1"
       d="M 555.07882,115.4457 C 554.39812,116.8071 553.47196,123.23637 555.5839,126.0523 C 557.63994,128.79368 562.2152,121.4413 562.65497,121.00154 C 565.36421,118.29229 567.83795,116.95299 569.72604,114.43554 C 571.7426,111.74679 571.34153,106.10365 572.25142,103.82894 C 573.29412,101.22219 567.35835,99.283256 563.66512,99.283256 C 562.18181,99.283256 559.1833,107.80569 558.10928,108.8797 C 556.75801,110.23097 557.0019,113.52262 555.07882,115.4457 z "
       id="path8559" />
    <path
       style="fill:#a86700;fill-rule:evenodd;stroke:#000000;stroke-width:1px;stroke-linecap:butt;stroke-linejoin:miter;stroke-opacity:1;fill-opacity:1"
       d="M 572.25142,119.99138 C 569.67602,122.56678 575.46829,113.17525 578.31233,110.90001 C 581.33886,108.47879 579.86164,103.30683 582.85802,101.80864 C 587.35832,99.558485 589.92909,100.27293 589.92909,106.35432 C 589.92909,109.78624 587.40371,112.48733 587.40371,117.466 C 587.40371,119.0377 583.31795,125.59236 582.35294,126.55737 C 579.28478,129.62554 578.38102,122.2814 575.28187,121.50661 C 574.18621,121.2327 573.26157,120.49646 572.25142,119.99138 z "
       id="path8561" />
    <path
       style="fill:#b06b00;fill-rule:evenodd;stroke:#000000;stroke-width:1px;stroke-linecap:butt;stroke-linejoin:miter;stroke-opacity:1;fill-opacity:1"
       d="M 569.72604,96.757874 C 568.99565,96.575278 576.00701,100.18338 579.82756,98.273103 C 584.51951,95.927129 585.33837,95.377747 586.89863,90.696959 C 587.90138,87.688721 578.4739,83.625891 576.7971,83.625891 C 573.17252,83.625891 572.45391,88.876849 571.74634,91.707111 C 570.98035,94.771058 569.72604,92.654677 569.72604,96.757874 z "
       id="path8563" />
    <path
       style="fill:#b06b00;fill-rule:evenodd;stroke:#000000;stroke-width:1px;stroke-linecap:butt;stroke-linejoin:miter;stroke-opacity:1;fill-opacity:1"
       d="M 610.13214,96.757874 C 608.66842,97.972269 601.59553,101.30356 597.50523,101.30356 C 592.95404,101.30356 599.52124,110.38419 599.52554,110.39493 C 600.07803,111.77616 608.37635,108.8797 611.14229,108.8797 C 617.0718,108.8797 617.20321,111.96256 617.20321,103.82894 C 617.20321,98.773099 613.86304,99.742593 610.13214,96.757874 z "
       id="path8565" />
    <path
       style="fill:#b06b00;fill-rule:evenodd;stroke:#000000;stroke-width:1px;stroke-linecap:butt;stroke-linejoin:miter;stroke-opacity:1;fill-opacity:1"
       d="M 596.49508,89.686806 C 596.49508,86.227583 590.7161,95.301435 592.45447,98.778179 C 593.7534,101.37605 600.40269,96.412316 601.04076,96.252798 C 606.26927,94.945672 596.69192,89.883646 596.49508,89.686806 z "
       id="path8567" />
    <path
       style="fill:#b06b00;fill-rule:evenodd;stroke:#000000;stroke-width:1px;stroke-linecap:butt;stroke-linejoin:miter;stroke-opacity:1;fill-opacity:1"
       d="M 608.11183,81.10051 C 609.92697,80.646726 600.5439,83.137232 603.06107,88.171578 C 604.36031,90.770062 610.69915,91.738079 612.65752,92.717264 C 617.12018,94.948592 618.69044,96.77187 622.75904,94.737569 C 626.81162,92.711283 625.87427,95.511783 630.33519,93.727417 C 633.10013,92.621439 632.9773,84.441873 630.33519,83.120815 C 626.61973,81.263087 624.8373,79.585281 619.72859,79.585281 C 614.58954,79.585281 612.07799,81.10051 608.11183,81.10051 z "
       id="path8569" />
    <path
       style="fill:#885300;fill-rule:evenodd;stroke:#000000;stroke-width:1px;stroke-linecap:butt;stroke-linejoin:miter;stroke-opacity:1;fill-opacity:1"
       d="M 618.21336,116.96093 C 615.87444,116.96093 623.53464,115.64428 624.27427,113.42539 C 625.92975,108.45896 620.65883,103.61636 625.28443,101.30356 C 630.06442,98.913562 631.85042,103.60581 631.85042,107.36448 C 631.85042,113.19958 633.87072,113.16436 633.87072,118.98123 C 633.87072,122.38608 627.07238,119.67066 623.7692,120.49646 C 620.95683,121.19955 618.95095,119.17371 618.21336,116.96093 z "
       id="path8571" />
    <path
       style="fill:#885300;fill-rule:evenodd;stroke:#000000;stroke-width:1px;stroke-linecap:butt;stroke-linejoin:miter;stroke-opacity:1;fill-opacity:1"
       d="M 643.46717,96.252798 C 642.50862,96.492435 639.2257,88.871677 637.40626,99.788332 C 636.38596,105.91009 640.40863,104.78292 642.45702,108.8797 C 644.51073,112.98712 636.10784,114.29141 642.45702,117.466 C 646.57279,119.52389 647.58408,121.77914 652.05347,119.99138 C 653.85669,119.27009 653.5687,109.89342 653.5687,107.86955 C 653.5687,101.83997 650.42805,103.10348 648.01286,98.273103 C 646.98234,96.212068 642.5644,92.641716 643.46717,96.252798 z "
       id="path8573" />
    <path
       style="fill:#885300;fill-rule:evenodd;stroke:#000000;stroke-width:1px;stroke-linecap:butt;stroke-linejoin:miter;stroke-opacity:1;fill-opacity:1"
       d="M 630.33519,132.11321 C 629.1003,129.64344 634.15107,128.01699 635.38595,125.54722 C 637.44308,121.43297 636.64026,118.87686 641.95194,121.00154 C 645.64347,122.47815 644.30662,128.40697 646.49763,130.59798 C 649.05797,133.15833 649.2705,140.82326 644.9824,138.6792 C 640.54531,136.46066 641.74511,134.04211 638.92149,139.68936 C 636.61926,144.2938 631.15334,134.15859 630.33519,132.11321 z "
       id="path8575" />
    <path
       style="fill:#885300;fill-rule:evenodd;stroke:#000000;stroke-width:1px;stroke-linecap:butt;stroke-linejoin:miter;stroke-opacity:1;fill-opacity:1"
       d="M 659.12454,122.01169 C 658.60851,123.04374 651.2806,125.10315 650.53824,128.0726 C 649.23747,133.2757 652.78573,135.04225 653.5687,138.17413 C 654.60489,142.31888 663.1017,133.78705 663.16515,133.62844 C 664.90937,129.26789 665.09438,126.97138 661.64992,123.52692 C 660.95576,122.83276 659.96633,122.51676 659.12454,122.01169 z "
       id="path8577" />
    <path
       style="fill:#c27b0a;fill-rule:evenodd;stroke:#000000;stroke-width:1px;stroke-linecap:butt;stroke-linejoin:miter;stroke-opacity:1;fill-opacity:1"
       d="M 563.16004,192.72237 C 562.51324,192.07556 571.28555,194.23759 573.76665,194.23759 C 576.8108,194.23759 580.1182,199.50989 580.83771,201.30866 C 583.31161,207.4934 578.99799,202.49939 577.30218,200.80359 C 574.82016,198.32157 571.80505,198.27821 566.69558,198.27821 C 564.11922,198.27821 563.16004,194.46123 563.16004,192.72237 z "
       id="path8579" />
    <path
       style="fill:#c27b0a;fill-rule:evenodd;stroke:#000000;stroke-width:1px;stroke-linecap:butt;stroke-linejoin:miter;stroke-opacity:1;fill-opacity:1"
       d="M 599.02046,182.62084 C 595.22211,182.62084 598.19375,190.33517 596.49508,193.73252 C 595.19462,196.33345 598.51538,207.19417 598.51538,199.28836 C 598.51538,194.17453 599.02903,191.67794 600.03061,187.6716 C 600.29784,186.60268 599.28511,183.9441 599.02046,182.62084 z "
       id="path8581" />
    <path
       style="fill:#885300;fill-rule:evenodd;stroke:#000000;stroke-width:1px;stroke-linecap:butt;stroke-linejoin:miter;stroke-opacity:1;fill-opacity:1"
       d="M 634.88088,153.32642 C 637.38124,152.78186 640.62739,149.9146 641.95194,147.2655 C 644.48627,142.19685 647.44723,151.92232 649.02301,152.31626 C 654.82451,153.76664 653.5687,155.23561 653.5687,162.41779 C 653.5687,167.50185 651.11673,171.80283 652.55854,177.57008 C 653.71774,182.20684 650.47345,190.00262 648.01286,182.62084 C 646.54291,178.21098 647.54779,174.72565 642.9621,176.55993 C 639.96206,177.75994 635.93943,172.20784 635.38595,169.99393 C 634.08443,164.78785 635.38595,160.33192 635.38595,156.35687 C 635.38595,155.33279 635.04923,154.33657 634.88088,153.32642 z "
       id="path8583" />
    <path
       style="fill:#885300;fill-rule:evenodd;stroke:#000000;stroke-width:1px;stroke-linecap:butt;stroke-linejoin:miter;stroke-opacity:1;fill-opacity:1"
       d="M 661.14484,142.71982 C 661.14484,142.39234 657.24757,149.43254 656.09408,152.31626 C 655.51572,153.76215 659.60441,160.29667 660.13469,162.41779 C 661.02364,165.97358 667.27636,167.13726 670.23621,165.95332 C 673.39998,164.68782 672.25652,156.33562 672.25652,152.82134 C 672.25652,148.62375 671.22517,143.20369 668.72099,140.69951 C 667.37745,139.35597 662.69963,142.33112 661.14484,142.71982 z "
       id="path8585" />
    <path
       style="fill:#885300;fill-rule:evenodd;stroke:#000000;stroke-width:1px;stroke-linecap:butt;stroke-linejoin:miter;stroke-opacity:1;fill-opacity:1"
       d="M 671.75144,173.02439 C 669.74386,171.01681 663.49288,171.50916 659.12454,171.50916 C 657.22481,171.50916 657.77971,180.25972 657.10423,181.61069 C 656.22629,183.36658 664.61679,179.43143 665.69053,182.11576 C 667.19679,185.88141 667.66663,191.60279 671.75144,186.15637 C 674.20859,182.88018 675.85893,178.6471 672.7616,175.54977 C 672.1205,174.90868 672.08816,173.86619 671.75144,173.02439 z "
       id="path8587" />
    <path
       style="fill:#885300;fill-rule:evenodd;stroke:#000000;stroke-width:1px;stroke-linecap:butt;stroke-linejoin:miter;stroke-opacity:1;fill-opacity:1"
       d="M 671.75144,193.73252 C 669.06561,191.04668 664.03711,192.90581 660.63977,191.20714 C 655.02955,188.40203 653.11137,191.3403 651.54839,195.24775 C 649.98373,199.15939 648.2047,203.24804 650.53824,206.35943 C 653.8494,210.77431 650.22138,211.03376 648.01286,215.4508 C 645.34009,220.79634 655.26302,220.41202 656.09408,219.99648 C 660.65048,217.71829 658.96335,213.43049 664.1753,213.43049 C 670.83637,213.43049 669.26101,210.31267 671.24637,205.34927 C 672.41319,202.43221 673.92248,197.35091 671.75144,193.73252 z "
       id="path8589" />
    <path
       style="fill:#885300;fill-rule:evenodd;stroke:#000000;stroke-width:1px;stroke-linecap:butt;stroke-linejoin:miter;stroke-opacity:1;fill-opacity:1"
       d="M 629.83011,186.15637 C 630.08343,185.52309 639.38394,185.14622 640.43671,185.14622 C 642.11819,185.14622 644.73394,192.47391 645.48748,193.22744 C 646.77182,194.51179 645.19582,204.39604 645.48748,205.85435 C 646.21547,209.49432 643.28807,212.81079 642.45702,216.96603 C 641.24328,223.03473 635.89103,218.52998 635.89103,214.44065 C 635.89103,210.44896 627.33846,213.43049 625.28443,213.43049 C 621.47598,213.43049 628.25248,204.38593 628.31488,204.33912 C 631.0912,202.25688 628.31488,193.07859 628.31488,190.70206 C 628.31488,188.13991 629.89461,185.99512 630.84026,183.63099"
       id="path8591" />
    <path
       style="fill:#885300;fill-rule:evenodd;stroke:#000000;stroke-width:1px;stroke-linecap:butt;stroke-linejoin:miter;stroke-opacity:1;fill-opacity:1"
       d="M 663.16515,223.53202 C 663.16515,219.56932 655.51109,226.0574 651.54839,226.0574 C 646.6146,226.0574 642.30551,224.54217 636.90118,224.54217 C 630.97499,224.54217 634.26148,231.30354 636.90118,232.62339 C 638.67741,233.51151 632.75444,239.26917 639.93164,240.70461 C 646.34606,241.9875 644.49297,237.69501 649.02301,243.73507 C 652.02292,247.73495 658.78358,238.86114 659.12454,238.17923 C 661.318,233.79231 660.27085,229.96185 663.16515,227.06755 C 663.99848,226.23422 663.16515,224.71053 663.16515,223.53202 z "
       id="path8593" />
    <path
       style="fill:#885300;fill-rule:evenodd;stroke:#000000;stroke-width:1px;stroke-linecap:butt;stroke-linejoin:miter;stroke-opacity:1;fill-opacity:1"
       d="M 614.67782,216.96603 C 614.67782,214.27229 620.25797,217.96646 622.75904,216.96603 C 623.91369,216.50417 628.09902,225.1206 628.31488,225.55232 C 629.89223,228.70701 629.29854,233.58054 630.84026,236.664 C 632.49316,239.96979 629.72542,242.73411 628.31488,246.26045 C 626.37628,251.10696 620.73874,243.16876 620.73874,240.19954 C 620.73874,234.44318 617.52187,235.7861 615.68798,232.11832 C 614.0484,228.83917 609.12199,229.84251 609.12199,224.03709 C 609.12199,221.36719 612.9652,219.10681 614.67782,216.96603 z "
       id="path8597" />
    <path
       style="fill:#885300;fill-rule:evenodd;stroke:#000000;stroke-width:1px;stroke-linecap:butt;stroke-linejoin:miter;stroke-opacity:1;fill-opacity:1"
       d="M 645.99255,249.29091 C 645.99255,248.72985 638.41601,247.37178 634.88088,248.78583 C 631.07647,250.3076 629.18248,252.82644 624.77935,252.82644 C 620.20952,252.82644 617.67849,255.29224 619.72859,259.39243 C 620.92239,261.78004 622.65852,266.12025 624.77935,266.96858 C 628.3222,268.38572 633.37358,264.43923 635.38595,263.43304 C 637.3325,262.45977 643.0545,257.4152 643.46717,255.35182 C 643.88572,253.25909 645.54767,251.96024 645.99255,249.29091 z "
       id="path8599" />
    <path
       style="fill:#885300;fill-rule:evenodd;stroke:#000000;stroke-width:1px;stroke-linecap:butt;stroke-linejoin:miter;stroke-opacity:1;fill-opacity:1"
       d="M 600.53569,231.10816 C 601.15604,228.00642 609.12199,231.9856 609.12199,235.14877 C 609.12199,240.75813 610.76353,242.55662 613.1626,245.75537 C 613.57891,246.31047 610.71708,252.52104 611.64737,254.84675 C 613.64841,259.84936 609.39095,262.87418 606.5966,263.43304 C 602.57149,264.23807 601.8757,257.3051 603.06107,254.34167 C 605.28967,248.77017 601.26306,246.11906 598.51538,244.74522 C 595.12554,243.0503 592.87734,238.34365 594.47477,235.14877 C 594.93905,234.22023 599.43458,231.10816 600.53569,231.10816 z "
       id="path8601" />
    <path
       style="fill:#885300;fill-rule:evenodd;stroke:#000000;stroke-width:1px;stroke-linecap:butt;stroke-linejoin:miter;stroke-opacity:1;fill-opacity:1"
       d="M 587.40371,279.59549 C 589.44351,275.51587 585.56924,273.53457 579.32249,273.53457 C 575.05089,273.53457 583.37421,264.1851 583.86817,263.93812 C 586.74656,262.49893 581.84787,255.82214 581.84787,252.82644 C 581.84787,248.2927 588.68338,249.79598 592.95954,249.79598 C 596.5703,249.79598 595.48493,256.76924 595.48493,260.40259 C 595.48493,262.98122 599.74079,266.07707 601.54584,268.48381 C 604.24845,272.08729 604.53007,272.93704 607.10168,278.08026 C 609.06437,282.00563 599.92709,283.94039 598.51538,284.64625 C 592.64591,287.58099 590.85566,280.97627 587.40371,279.59549 z "
       id="path8603" />
    <path
       style="fill:#885300;fill-rule:evenodd;stroke:#000000;stroke-width:1px;stroke-linecap:butt;stroke-linejoin:miter;stroke-opacity:1;fill-opacity:1"
       d="M 581.34279,230.62339 C 578.3311,232.12924 585.02275,236.32366 587.40371,238.70461 C 590.99121,242.29212 585.62016,246.0953 582.85802,246.78583 C 576.8643,248.28426 579.09629,249.94953 575.78695,254.36198 C 573.28544,257.69732 569.75512,259.44182 566.69558,256.38228 C 563.25471,252.94141 566.61597,262.36358 558.61436,254.36198 C 556.78614,252.53376 561.40417,248.06041 558.10928,244.76553 C 555.01496,241.67121 553.55735,240.23545 555.5839,235.16908 C 557.72668,229.81213 566.98634,228.09801 571.74634,228.09801 C 575.52775,228.09801 577.62188,230.62339 581.34279,230.62339 z "
       id="path8605" />
    <path
       style="fill:#885300;fill-rule:evenodd;stroke:#000000;stroke-width:1px;stroke-linecap:butt;stroke-linejoin:miter;stroke-opacity:1;fill-opacity:1"
       d="M 579.82756,284.14117 C 576.91075,283.21799 572.25142,278.592 572.25142,273.53457 C 572.25142,269.56903 568.6753,265.13407 565.68543,263.93812 C 561.77231,262.37287 559.44939,262.03902 556.59405,259.89751 C 552.43753,256.78012 554.74384,254.34167 548.00776,254.34167 C 543.75758,254.34167 550.45261,264.92814 552.55344,265.45335 C 557.3947,266.66366 554.99587,272.22673 554.06867,274.54472 C 553.19574,276.72705 561.79784,281.6923 562.65497,282.12087 C 567.19362,284.39019 560.88753,288.18178 570.23111,288.18178 C 575.52214,288.18178 577.72815,289.77612 580.83771,286.66655 C 582.55533,284.94894 582.19344,284.73264 579.82756,284.14117 z "
       id="path8607" />
    <path
       style="fill:#885300;fill-rule:evenodd;stroke:#000000;stroke-width:1px;stroke-linecap:butt;stroke-linejoin:miter;stroke-opacity:1;fill-opacity:1"
       d="M 528.81486,248.78583 C 532.03795,245.56274 537.89378,247.77568 542.45192,247.77568 C 547.17299,247.77568 542.94468,254.39094 542.45192,256.36198 C 540.98655,262.22343 541.73797,261.08233 542.95699,265.95843 C 543.69825,268.92347 536.89608,270.39178 536.89608,276.05995 C 536.89608,282.73838 529.95672,279.7272 527.80471,277.57518 C 523.82362,273.5941 533.53591,268.48381 523.7641,268.48381 C 517.5511,268.48381 519.21841,262.26859 519.21841,257.37213 C 519.21841,252.23328 517.99147,249.23671 524.26917,250.80614 C 526.6298,251.3963 526.9445,250.28212 528.81486,248.78583 z "
       id="path8609" />
    <path
       style="fill:#885300;fill-rule:evenodd;stroke:#000000;stroke-width:1px;stroke-linecap:butt;stroke-linejoin:miter;stroke-opacity:1;fill-opacity:1"
       d="M 560.12959,294.2427 C 562.1758,294.75425 555.54395,290.12218 553.5636,286.16148 C 552.72562,284.48553 548.10898,277.71668 546.49253,277.0701 C 542.74358,275.57053 540.2848,284.50528 539.42146,285.6564 C 538.01889,287.5265 529.83217,288.43074 528.30978,289.19193 C 524.38565,291.154 534.22168,296.97513 534.3707,297.27315 C 536.13315,300.79805 541.03455,300.85762 543.96715,302.32392 C 545.95799,303.31934 552.0387,298.28331 556.08898,298.28331 C 559.99162,298.28331 561.00029,298.5962 560.12959,294.2427 z "
       id="path8611" />
    <path
       style="fill:#885300;fill-opacity:1;fill-rule:evenodd;stroke:#000000;stroke-width:1px;stroke-linecap:butt;stroke-linejoin:miter;stroke-opacity:1"
       d="M 501.03566,263.93812 C 503.92174,263.93812 506.88063,267.69032 510.12704,268.98888 C 514.88305,270.89129 512.63303,274.78757 516.18795,276.56503 C 519.77087,278.35649 523.25902,278.56374 523.25902,283.13102 C 523.25902,287.53061 516.4286,288.67101 514.16765,285.6564 C 511.0537,281.50448 507.04218,283.77596 503.56104,284.64625 C 499.82589,285.58004 501.75228,290.31578 497.50013,284.64625 C 497.41021,284.52636 491.77051,288.86876 494.46967,282.12087 C 496.16212,277.88973 491.90689,274.95631 490.93414,272.52442 C 488.70734,266.95743 492.67263,265.59426 495.9849,263.93812 C 497.68173,263.08971 501.02135,263.9417 503.05597,263.43304"
       id="path8613" />
    <path
       style="fill:#885300;fill-rule:evenodd;stroke:#000000;stroke-width:1px;stroke-linecap:butt;stroke-linejoin:miter;stroke-opacity:1;fill-opacity:1"
       d="M 482.85292,283.13102 C 484.19715,284.17113 487.40702,287.18005 489.92398,289.69701 C 492.32337,292.0964 499.13394,291.27153 502.04582,292.72747 C 507.42156,295.41534 507.97639,292.77635 511.64226,294.2427 C 515.45214,295.76665 516.95647,298.65666 512.65242,300.80869 C 509.01746,302.62617 505.25141,302.32392 500.53059,302.32392 C 492.35975,302.32392 493.71263,304.47021 488.91383,306.8696 C 484.47775,309.08764 481.74157,304.34422 477.80215,304.34422 C 475.75449,304.34422 476.28693,293.92679 476.28693,291.71732 C 476.28693,285.40703 482.01436,288.16235 482.85292,283.13102 z "
       id="path8615" />
    <path
       style="fill:#885300;fill-rule:evenodd;stroke:#000000;stroke-width:1px;stroke-linecap:butt;stroke-linejoin:miter;stroke-opacity:1;fill-opacity:1"
       d="M 525.7844,303.33407 C 525.7844,299.04817 517.07968,304.58107 515.68287,307.37468 C 513.489,311.76242 510.16339,310.91021 504.5712,310.91021 C 497.15496,310.91021 505.80648,318.90774 506.5915,319.49651 C 511.0074,322.80844 512.24019,319.68221 514.67272,324.54727 C 515.15575,325.51334 523.81849,330.10311 524.77425,330.10311 C 525.66055,330.10311 523.90088,324.22634 529.31993,321.51682 C 532.42913,319.96222 528.72172,311.73409 527.80471,309.90006 C 526.72788,307.74641 526.7103,306.11178 525.7844,303.33407 z "
       id="path8617" />
    <path
       style="fill:#885300;fill-rule:evenodd;stroke:#000000;stroke-width:1px;stroke-linecap:butt;stroke-linejoin:miter;stroke-opacity:1;fill-opacity:1"
       d="M 475.78185,314.44575 C 474.11009,311.10223 483.55001,314.28922 486.89353,315.96098 C 488.3197,316.67406 490.41463,325.54299 491.43921,326.56758 C 495.20167,330.33004 501.35806,325.19207 503.56104,329.59804 C 505.28215,333.04025 506.76777,337.76739 509.62196,339.19449 C 513.42599,341.0965 513.45045,346.03825 512.14734,349.29601 C 509.89518,354.9264 511.74726,355.30443 506.5915,357.88231 C 505.78058,358.28777 504.90791,358.55574 504.06612,358.89246 C 499.52909,360.70727 495.38187,355.56049 492.95444,354.34677 C 489.71455,352.72683 486.89353,346.85497 486.89353,342.73002 C 486.89353,339.27432 481.35552,336.1997 479.82246,333.13357 C 477.88216,329.25298 476.792,328.85457 476.792,322.52697 C 476.792,318.56557 476.62248,316.12701 474.7717,312.42544"
       id="path8619" />
    <path
       style="fill:#885300;fill-rule:evenodd;stroke:#000000;stroke-width:1px;stroke-linecap:butt;stroke-linejoin:miter;stroke-opacity:1;fill-opacity:1"
       d="M 510.63211,361.41784 C 510.63211,360.12809 515.1778,355.81038 515.1778,351.31632 C 515.1778,346.92269 517.70318,343.93858 517.70318,338.68941 C 517.70318,335.15987 515.01994,333.05464 521.23871,336.16403 C 526.16067,338.625 528.71287,339.90354 525.7844,345.76048 C 523.1798,350.96968 523.96294,354.2394 525.7844,357.88231 C 528.56667,363.44685 523.27456,363.84531 518.71333,362.93307 C 515.29137,362.24868 514.03724,360.56656 510.63211,361.41784 z "
       id="path8621" />
    <path
       style="fill:#000000;fill-opacity:1;fill-rule:nonzero;stroke:none;stroke-width:1px;stroke-linecap:butt;stroke-linejoin:miter;stroke-opacity:1"
       id="path8625"
       d="M 581.23266,198.41253 C 580.7774,199.06451 580.42341,199.78163 580.01878,200.46619 C 579.3157,199.86538 579.42658,200.81364 579.26776,200.90683 C 579.31124,202.32585 577.84106,199.88737 577.54782,199.5372 C 577.04874,198.94124 580.41871,200.25599 579.7098,199.93706 L 579.7098,199.93706 C 579.30511,199.755 576.7787,199.35703 578.46559,199.08965 C 581.12442,198.85042 582.32544,200.74557 579.74816,202.48629 C 578.31546,200.80456 578.10953,200.17896 579.2376,197.91377 C 579.56172,197.26294 581.64892,197.81641 581.23266,198.41253 z " />
    <path
       style="fill:#000000;fill-opacity:1;fill-rule:nonzero;stroke:none;stroke-width:1px;stroke-linecap:butt;stroke-linejoin:miter;stroke-opacity:1"
       id="path8627"
       d="M 599.10724,193.67158 C 600.19522,194.34082 599.61649,194.9539 599.31555,196.17064 C 600.44616,195.05571 598.1055,195.62863 597.86699,195.60461 C 598.30894,194.99265 597.6115,195.01032 597.48375,194.71318 C 597.20982,194.07602 599.01184,193.18599 599.24069,193.8407 L 599.24069,193.8407 C 599.39401,194.27933 599.36143,194.8113 599.70948,195.18186 C 598.84073,197.721 597.11801,197.86901 597.84407,194.90741 C 600.38006,192.92844 599.37557,197.45891 597.30339,194.5735 C 596.88747,193.99434 598.49991,193.29799 599.10724,193.67158 z " />
    <path
       style="fill:#76400b;fill-opacity:1;fill-rule:nonzero;stroke:none;stroke-width:0.3;stroke-linecap:butt;stroke-linejoin:miter;stroke-opacity:1;stroke-miterlimit:4;stroke-dasharray:none"
       id="path8631"
       d="M 592.79378,213.5974 C 593.60134,212.04126 594.81002,210.95906 596.11981,209.84231 C 597.35364,208.87589 598.5998,208.46371 600.12032,208.21501 C 601.86144,208.05767 602.96104,208.99729 604.25121,209.97977 C 604.44831,210.12987 604.05225,210.71901 603.86086,210.5617 L 603.86086,210.5617 C 602.71012,209.61593 601.77345,208.74828 600.19081,208.86735 C 598.83653,209.19208 597.64003,209.49083 596.4859,210.35017 C 595.20446,211.40778 594.0683,212.31383 593.51532,213.95817 C 593.42441,214.22851 592.66241,213.85056 592.79378,213.5974 z " />
    <path
       style="fill:#76400b;fill-opacity:1;fill-rule:nonzero;stroke:none;stroke-width:0.3;stroke-linecap:butt;stroke-linejoin:miter;stroke-opacity:1;stroke-miterlimit:4;stroke-dasharray:none"
       id="path8639"
       d="M 596.47752,211.75616 C 597.93384,211.5979 598.87296,210.76664 599.96658,209.94293 C 600.13973,209.86345 600.31289,209.78397 600.48604,209.70449 C 600.74641,209.58497 601.00762,210.47016 600.72129,210.47992 L 600.72129,210.47992 C 600.62122,210.48333 600.52115,210.48674 600.42108,210.49015 C 599.17925,211.35313 598.02634,212.2208 596.47752,212.53885 C 596.20646,212.59451 596.20242,211.78605 596.47752,211.75616 z " />
    <path
       style="fill:#6b4100;fill-rule:evenodd;stroke:#000000;stroke-width:1px;stroke-linecap:butt;stroke-linejoin:miter;stroke-opacity:1;fill-opacity:1"
       d="M 534.35714,363.43361 C 535.26246,362.50841 535.07143,357.00433 535.07143,353.79075 C 535.07143,349.71473 533.64286,348.10612 533.64286,344.86218 C 533.64286,341.29672 532.57143,338.42449 532.57143,334.86218 C 532.57143,331.39774 537.54307,333.79075 540.07143,333.79075 C 543.80847,333.79075 546.27381,333.07647 549.35714,333.07647 C 552.40303,333.07647 553.64286,335.02326 553.64286,338.07647 C 553.64286,340.68186 555.66599,343.54928 556.14286,345.93361 C 557.02389,350.33879 556.17855,349.82649 553.64286,352.36218 C 551.68005,354.32498 547.91514,353.44032 545.78571,354.50504 C 543.18308,355.80636 546.5,360.26239 546.5,361.6479 C 546.5,364.66714 547.18613,367.00504 542.21429,367.00504 C 540.09315,367.00504 535.10949,359.67186 534,365.21933"
       id="path34120" />
    <path
       style="fill:#6b4100;fill-rule:evenodd;stroke:#000000;stroke-width:1px;stroke-linecap:butt;stroke-linejoin:miter;stroke-opacity:1;fill-opacity:1"
       d="M 562.14286,330.93361 C 559.79627,330.93361 562.48664,337.15022 562.85714,338.07647 C 564.06514,341.09646 563.69977,343.57589 564.64286,345.93361 C 565.93513,349.1643 567.14286,349.99572 567.14286,354.1479 C 567.14286,356.4472 564.24264,358.8769 563.21429,360.93361 C 562.11201,363.13817 560.829,364.64577 560.35714,367.00504 C 559.80929,369.74432 565.85901,370.14696 567.14286,369.50504 C 568.40668,368.87313 570.62606,363.25292 571.07143,362.36218 C 572.57914,359.34675 575.71429,360.70685 575.71429,356.29075 C 575.71429,353.28797 575.01124,350.72694 576.07143,348.07647 C 577.10912,345.48224 579.34122,344.75117 580.35714,342.71933 C 581.45295,340.52771 582.85714,338.83894 582.85714,335.57647 C 582.85714,332.65309 579.7617,331.88589 577.85714,330.93361 C 575.84232,329.9262 575.0086,335.93361 572.14286,335.93361 C 568.85579,335.93361 568.24059,333.72119 566.42857,332.36218 C 564.5733,330.97073 565.13328,330.93361 562.14286,330.93361 z "
       id="path34122" />
    <path
       style="fill:#6b4100;fill-rule:evenodd;stroke:#000000;stroke-width:1px;stroke-linecap:butt;stroke-linejoin:miter;stroke-opacity:1;fill-opacity:1"
       d="M 590.35714,324.1479 C 589.31115,322.05591 590.84051,330.36634 588.57143,330.93361 C 586.19281,331.52827 586.78571,336.69241 586.78571,339.1479 C 586.78571,341.71949 590,341.89036 590,345.57647 C 590,348.79075 590,352.00504 590,355.21933 C 590,358.44276 589.1188,362.10016 591.78571,363.43361 C 595.31456,365.19803 596.99907,362.86311 598.57143,361.29075 C 599.59211,360.27007 598.92857,353.7024 598.92857,352.00504 C 598.92857,349.03866 597.27864,346.96964 596.78571,344.50504 C 596.24897,341.8213 596.70414,337.77004 597.14286,335.57647 C 597.70452,332.76818 599.04461,331.04514 597.85714,328.07647 C 596.48866,324.65527 595.07306,324.89871 592.14286,323.43361 C 591.56945,323.14691 590.95238,323.9098 590.35714,324.1479 z "
       id="path34126" />
    <path
       style="fill:#6b4100;fill-rule:evenodd;stroke:#000000;stroke-width:1px;stroke-linecap:butt;stroke-linejoin:miter;stroke-opacity:1;fill-opacity:1"
       d="M 605.71429,324.86218 C 606.18754,325.65414 604.64286,330.33617 604.64286,332.71933 C 604.64286,336.05266 604.64286,339.38599 604.64286,342.71933 C 604.64286,344.93027 605.71429,348.78104 605.71429,351.29075 C 605.71429,355.48263 608.27167,354.50504 612.14286,354.50504 C 614.22534,354.50504 615.56646,352.06417 617.5,351.29075 C 619.28229,350.57784 618.43756,356.29075 620.35714,356.29075 C 624.65434,356.29075 623.7139,354.2201 625.35714,350.93361 C 626.75225,348.14339 624.64286,343.43735 624.64286,341.29075 C 624.64286,338.50202 622.72856,336.40503 621.07143,335.57647 C 618.77674,334.42912 617.76128,332.91529 616.07143,331.6479 C 613.82667,329.96433 613.57143,327.81276 613.57143,324.50504 C 613.57143,322.11206 609.22038,321.96476 608.21429,322.71933 C 607.33623,323.37786 606.57134,324.17654 605.71429,324.86218 z "
       id="path34130" />
    <path
       style="fill:#6b4100;fill-rule:evenodd;stroke:#000000;stroke-width:1px;stroke-linecap:butt;stroke-linejoin:miter;stroke-opacity:1;fill-opacity:1"
       d="M 637.85714,334.1479 C 636.38821,333.0462 632.35414,335.51104 631.42857,337.36218 C 630.27103,339.67727 628.57143,340.63458 628.57143,344.1479 C 628.57143,345.61281 630.35714,349.01316 630.35714,352.36218 C 630.35714,355.55566 634.396,355.63161 636.42857,356.6479 C 638.7096,357.78841 640.85307,351.72748 641.42857,350.57647 C 642.82326,347.7871 644.53438,346.86485 645.71429,344.50504 C 647.0797,341.7742 642.21932,338.65041 641.07143,338.07647 C 640.85004,337.96578 638.09277,334.50133 637.85714,334.1479 z "
       id="path34136" />
    <path
       style="fill:#6b4100;fill-rule:evenodd;stroke:#000000;stroke-width:1px;stroke-linecap:butt;stroke-linejoin:miter;stroke-opacity:1;fill-opacity:1"
       d="M 651.07143,353.07647 C 648.49604,351.78877 651.2877,347.08043 650,344.50504 C 648.70289,341.91082 649.06019,339.67438 648.21429,336.29075 C 647.01475,331.49262 653.05651,336.29075 653.57143,336.29075 C 657.0331,336.29075 658.05538,335.25905 661.07143,334.50504 C 664.9554,333.53405 665,339.32715 665,341.6479 C 665,343.7446 665.71429,347.45796 665.71429,350.57647 C 665.71429,354.37802 664.04099,354.6274 661.42857,355.93361 C 659.23877,357.02851 657.20523,351.67908 655.71429,350.93361 C 653.04252,349.59773 655.00471,354.64978 651.07143,353.07647 C 650.50782,352.85102 649.88095,352.83837 649.28571,352.71933 C 648.69048,352.60028 650.47619,352.95742 651.07143,353.07647 z "
       id="path34138" />
    <path
       style="fill:#ececec;fill-opacity:1;stroke:none;stroke-opacity:1"
       d="M 478.15625,75.25 C 471.42912,75.250003 466,80.679104 466,87.40625 L 466,366.4375 C 466.00001,373.16464 471.42911,378.59375 478.15625,378.59375 L 672.84375,378.59375 C 679.57089,378.59375 685.00002,373.16464 685,366.4375 L 685,360 C 673.21977,360.09751 621.30093,358.70125 606.375,359.43304 C 576.1432,360.91525 545.0291,362.16715 539.64732,362.34821 C 518.12021,363.07238 494.83953,349.43713 482.875,331.21875 C 473.90698,319.57409 480.7016,289.56848 488.78125,279.71875 C 498.82647,267.47284 523.22692,252.61799 551.1875,243.5625 C 585.79289,237.80053 616.99604,235.62567 634.34375,199.40625 C 639.11455,183.94766 638.94248,161.59931 637.625,145.8125 C 635.0316,114.73754 607.51727,86.002431 583.25,122.5625 C 574.08936,135.42722 568.74743,142.37648 572.03125,157.03125 C 574.55785,168.30676 591.8313,175.08207 596.53125,183.375 C 597.73957,193.79715 612.99694,203.08351 601.15625,213.40625 C 591.10827,217.35061 574.50527,210.00945 570.4375,205.75 C 566.20854,201.32175 567.36059,192.76019 564.125,187.25 C 560.88938,181.73981 552.02019,175.12025 550.6875,168.84375 C 545.82454,145.94107 551.45036,118.7257 567.21875,99.78125 C 581.61438,85.43256 603.64103,80.303247 623.71875,84.96875 C 638.08969,88.308161 648.43016,102.90573 655.4375,116.0625 C 666.51966,136.86998 669.90229,171.46598 668.53125,192.21875 C 667.45291,208.54097 660.29747,232.7228 649.53125,244.96875 C 625.90027,267.61709 595.04388,277.14335 564.03125,284.8125 C 546.32016,291.8058 540.21292,289.99342 526.5625,305.84375 C 516.37519,317.67284 522.95825,324.18962 536.4375,325.9375 C 539.80731,326.37447 586.32474,322.47911 609.75446,324.08929 C 625.24256,325.15369 672.7702,326.93745 685,327.70982 L 685,87.40625 C 685,80.67911 679.57087,75.25 672.84375,75.25 L 478.15625,75.25 z "
       id="rect6584"
       sodipodi:nodetypes="cccccccsscsccscsccssscsssccssscccc" />
    <path
       style="fill:none;fill-rule:evenodd;stroke:#000000;stroke-width:1px;stroke-linecap:butt;stroke-linejoin:miter;stroke-opacity:1"
       d="M 681.09848,328.10955 C 669.93738,327.33427 628.03115,325.05242 612.2406,324.44863 C 588.81089,323.55274 539.7984,326.37059 536.42859,325.93362 C 522.94934,324.18574 516.37725,317.67569 526.56456,305.8466 C 540.215,289.99626 546.32323,291.80329 564.03432,284.80999 C 595.04693,277.14085 625.91169,267.62421 649.54267,244.97587 C 660.30888,232.72993 667.46401,208.54207 668.54235,192.21985 C 669.9134,171.46708 666.50704,136.85845 655.42488,116.05097 C 648.41753,102.8942 638.09011,88.310262 623.71917,84.970851 C 603.64146,80.305345 581.5993,85.446891 567.20367,99.795581 C 551.43528,118.74003 545.82813,145.95046 550.69109,168.85314 C 552.02379,175.12963 560.90138,181.75397 564.137,187.26416 C 567.37261,192.77435 566.21759,201.32463 570.44655,205.75288 C 574.5143,210.01233 591.11239,217.34846 601.16037,213.4041 C 613.00109,203.08136 597.72921,193.8094 596.52089,183.38725 C 591.82092,175.09432 574.54679,168.30456 572.02019,157.02905 C 568.73638,142.37428 574.08798,135.4147 583.24862,122.54998 C 607.51587,85.989911 635.02553,114.72962 637.61893,145.80458 C 638.93644,161.59139 639.10458,183.93697 634.33378,199.39556 C 616.98609,235.61497 585.78827,237.81394 551.18288,243.57591 C 523.22228,252.6314 498.82632,267.47074 488.7811,279.71665 C 480.70145,289.56637 473.89633,319.56217 482.86435,331.20683 C 494.82888,349.4252 519.54432,363.08635 541.07143,362.36218 C 546.45321,362.18113 579.7187,360.19093 609.9505,358.70872 C 625.06639,357.96761 670.70789,360.17041 681.58681,360.01319"
       id="path6554"
       sodipodi:nodetypes="cscsccssscsssccscsccsccsc" />
    <rect
       style="fill:url(#linearGradient36097);fill-opacity:1.0;stroke:none;stroke-width:2.0999999;stroke-miterlimit:4;stroke-dasharray:none;stroke-dashoffset:0;stroke-opacity:1"
       id="rect34143"
       width="20.892859"
       height="57.857143"
       x="664.10718"
       y="310.89789" />
    <rect
       style="fill:url(#linearGradient41523);fill-opacity:1;stroke:none;stroke-width:2.0999999;stroke-miterlimit:4;stroke-dasharray:none;stroke-dashoffset:0;stroke-opacity:1"
       id="rect40546"
       width="25.380083"
       height="43.941635"
       x="659.61499"
       y="325.92288" />
  </g>
</svg>
